<ttFont>
    <TTGlyph name="A" xMin="34" yMin="0" xMax="664" yMax="727">
      <contour>
        <pt x="295" y="727" on="1"/>
        <pt x="402" y="727" on="1"/>
        <pt x="664" y="0" on="1"/>
        <pt x="548" y="0" on="1"/>
        <pt x="352" y="573" on="1"/>
        <pt x="345" y="604" on="1"/>
        <pt x="337" y="572" on="1"/>
        <pt x="233" y="269" on="1"/>
        <pt x="222" y="249" on="1"/>
        <pt x="234" y="251" on="1"/>
        <pt x="352" y="251" on="1"/>
        <pt x="371" y="251" on="0"/>
        <pt x="400" y="237" on="0"/>
        <pt x="422" y="214" on="0"/>
        <pt x="437" y="185" on="0"/>
        <pt x="442" y="170" on="1"/>
        <pt x="200" y="170" on="1"/>
        <pt x="142" y="0" on="1"/>
        <pt x="34" y="0" on="1"/>
      </contour>
    </TTGlyph>
    <TTGlyph name="AE" xMin="15" yMin="0" xMax="914" yMax="727">
      <contour>
        <pt x="700" y="421" on="1"/>
        <pt x="854" y="421" on="1"/>
        <pt x="854" y="342" on="1"/>
        <pt x="609" y="342" on="1"/>
        <pt x="614" y="357" on="0"/>
        <pt x="628" y="386" on="0"/>
        <pt x="650" y="408" on="0"/>
        <pt x="680" y="421" on="0"/>
      </contour>
      <contour>
        <pt x="525" y="0" on="1"/>
        <pt x="442" y="536" on="1"/>
        <pt x="440" y="549" on="0"/>
        <pt x="436" y="576" on="0"/>
        <pt x="434" y="590" on="1"/>
        <pt x="431" y="629" on="1"/>
        <pt x="417" y="590" on="1"/>
        <pt x="258" y="269" on="1"/>
        <pt x="243" y="249" on="1"/>
        <pt x="262" y="251" on="1"/>
        <pt x="372" y="251" on="1"/>
        <pt x="391" y="251" on="0"/>
        <pt x="420" y="237" on="0"/>
        <pt x="442" y="214" on="0"/>
        <pt x="457" y="185" on="0"/>
        <pt x="462" y="170" on="1"/>
        <pt x="210" y="170" on="1"/>
        <pt x="126" y="0" on="1"/>
        <pt x="15" y="0" on="1"/>
        <pt x="385" y="727" on="1"/>
        <pt x="844" y="727" on="1"/>
        <pt x="844" y="646" on="1"/>
        <pt x="528" y="646" on="1"/>
        <pt x="614" y="81" on="1"/>
        <pt x="914" y="81" on="1"/>
        <pt x="914" y="0" on="1"/>
      </contour>
    </TTGlyph>
    <TTGlyph name="Aacute" xMin="28" yMin="0" xMax="658" yMax="890">
      <contour>
        <pt x="485" y="890" on="1"/>
        <pt x="402" y="797" on="1"/>
        <pt x="379" y="771" on="0"/>
        <pt x="315" y="759" on="0"/>
        <pt x="290" y="766" on="1"/>
        <pt x="378" y="890" on="1"/>
      </contour>
      <contour>
        <pt x="290" y="727" on="1"/>
        <pt x="397" y="727" on="1"/>
        <pt x="658" y="0" on="1"/>
        <pt x="543" y="0" on="1"/>
        <pt x="339" y="597" on="1"/>
        <pt x="228" y="269" on="1"/>
        <pt x="216" y="249" on="1"/>
        <pt x="229" y="251" on="1"/>
        <pt x="347" y="251" on="1"/>
        <pt x="366" y="251" on="0"/>
        <pt x="395" y="237" on="0"/>
        <pt x="416" y="214" on="0"/>
        <pt x="431" y="185" on="0"/>
        <pt x="436" y="170" on="1"/>
        <pt x="195" y="170" on="1"/>
        <pt x="137" y="0" on="1"/>
        <pt x="28" y="0" on="1"/>
      </contour>
    </TTGlyph>
    <TTGlyph name="Acircumflex" xMin="29" yMin="0" xMax="659" yMax="890">
      <contour>
        <pt x="305" y="890" on="1"/>
        <pt x="376" y="890" on="1"/>
        <pt x="486" y="771" on="1"/>
        <pt x="425" y="760" on="1"/>
        <pt x="340" y="818" on="1"/>
        <pt x="255" y="760" on="1"/>
        <pt x="197" y="771" on="1"/>
      </contour>
      <contour>
        <pt x="291" y="727" on="1"/>
        <pt x="397" y="727" on="1"/>
        <pt x="659" y="0" on="1"/>
        <pt x="544" y="0" on="1"/>
        <pt x="340" y="597" on="1"/>
        <pt x="228" y="269" on="1"/>
        <pt x="217" y="249" on="1"/>
        <pt x="230" y="251" on="1"/>
        <pt x="348" y="251" on="1"/>
        <pt x="367" y="251" on="0"/>
        <pt x="396" y="237" on="0"/>
        <pt x="417" y="214" on="0"/>
        <pt x="432" y="185" on="0"/>
        <pt x="437" y="170" on="1"/>
        <pt x="195" y="170" on="1"/>
        <pt x="137" y="0" on="1"/>
        <pt x="29" y="0" on="1"/>
      </contour>
    </TTGlyph>
    <TTGlyph name="Adieresis" xMin="29" yMin="0" xMax="659" yMax="895">
      <contour>
        <pt x="385" y="840" on="1"/>
        <pt x="385" y="863" on="0"/>
        <pt x="418" y="895" on="0"/>
        <pt x="441" y="895" on="1"/>
        <pt x="464" y="895" on="0"/>
        <pt x="496" y="863" on="0"/>
        <pt x="496" y="840" on="1"/>
        <pt x="496" y="817" on="0"/>
        <pt x="464" y="785" on="0"/>
        <pt x="441" y="785" on="1"/>
        <pt x="418" y="785" on="0"/>
        <pt x="385" y="817" on="0"/>
      </contour>
      <contour>
        <pt x="191" y="840" on="1"/>
        <pt x="191" y="863" on="0"/>
        <pt x="223" y="895" on="0"/>
        <pt x="246" y="895" on="1"/>
        <pt x="269" y="895" on="0"/>
        <pt x="302" y="863" on="0"/>
        <pt x="302" y="840" on="1"/>
        <pt x="302" y="817" on="0"/>
        <pt x="269" y="785" on="0"/>
        <pt x="246" y="785" on="1"/>
        <pt x="223" y="785" on="0"/>
        <pt x="191" y="817" on="0"/>
      </contour>
      <contour>
        <pt x="291" y="727" on="1"/>
        <pt x="397" y="727" on="1"/>
        <pt x="659" y="0" on="1"/>
        <pt x="544" y="0" on="1"/>
        <pt x="340" y="597" on="1"/>
        <pt x="228" y="269" on="1"/>
        <pt x="217" y="249" on="1"/>
        <pt x="230" y="251" on="1"/>
        <pt x="348" y="251" on="1"/>
        <pt x="367" y="251" on="0"/>
        <pt x="396" y="237" on="0"/>
        <pt x="417" y="214" on="0"/>
        <pt x="432" y="185" on="0"/>
        <pt x="437" y="170" on="1"/>
        <pt x="195" y="170" on="1"/>
        <pt x="137" y="0" on="1"/>
        <pt x="29" y="0" on="1"/>
      </contour>
    </TTGlyph>
    <TTGlyph name="Agrave" xMin="29" yMin="0" xMax="659" yMax="890">
      <contour>
        <pt x="293" y="797" on="1"/>
        <pt x="223" y="890" on="1"/>
        <pt x="329" y="890" on="1"/>
        <pt x="403" y="766" on="1"/>
        <pt x="390" y="763" on="0"/>
        <pt x="360" y="762" on="0"/>
        <pt x="330" y="769" on="0"/>
        <pt x="302" y="784" on="0"/>
      </contour>
      <contour>
        <pt x="291" y="727" on="1"/>
        <pt x="397" y="727" on="1"/>
        <pt x="659" y="0" on="1"/>
        <pt x="544" y="0" on="1"/>
        <pt x="340" y="597" on="1"/>
        <pt x="228" y="269" on="1"/>
        <pt x="217" y="249" on="1"/>
        <pt x="230" y="251" on="1"/>
        <pt x="348" y="251" on="1"/>
        <pt x="367" y="251" on="0"/>
        <pt x="396" y="237" on="0"/>
        <pt x="417" y="214" on="0"/>
        <pt x="432" y="185" on="0"/>
        <pt x="437" y="170" on="1"/>
        <pt x="195" y="170" on="1"/>
        <pt x="137" y="0" on="1"/>
        <pt x="29" y="0" on="1"/>
      </contour>
    </TTGlyph>
    <TTGlyph name="Aring" xMin="29" yMin="0" xMax="659" yMax="892">
      <contour>
        <pt x="342" y="754" on="1"/>
        <pt x="364" y="754" on="0"/>
        <pt x="388" y="782" on="0"/>
        <pt x="388" y="802" on="1"/>
        <pt x="388" y="822" on="0"/>
        <pt x="364" y="850" on="0"/>
        <pt x="342" y="850" on="1"/>
        <pt x="322" y="850" on="0"/>
        <pt x="298" y="822" on="0"/>
        <pt x="298" y="800" on="1"/>
        <pt x="298" y="783" on="0"/>
        <pt x="322" y="754" on="0"/>
      </contour>
      <contour>
        <pt x="138" y="0" on="1"/>
        <pt x="29" y="0" on="1"/>
        <pt x="289" y="724" on="1"/>
        <pt x="266" y="735" on="0"/>
        <pt x="241" y="774" on="0"/>
        <pt x="241" y="800" on="1"/>
        <pt x="241" y="840" on="0"/>
        <pt x="298" y="892" on="0"/>
        <pt x="343" y="892" on="1"/>
        <pt x="388" y="892" on="0"/>
        <pt x="443" y="842" on="0"/>
        <pt x="443" y="801" on="1"/>
        <pt x="443" y="776" on="0"/>
        <pt x="418" y="736" on="0"/>
        <pt x="398" y="725" on="1"/>
        <pt x="659" y="0" on="1"/>
        <pt x="544" y="0" on="1"/>
        <pt x="497" y="137" on="0"/>
        <pt x="405" y="404" on="0"/>
        <pt x="359" y="540" on="1"/>
        <pt x="340" y="596" on="1"/>
        <pt x="321" y="539" on="1"/>
        <pt x="298" y="471" on="0"/>
        <pt x="252" y="337" on="0"/>
        <pt x="229" y="269" on="1"/>
        <pt x="217" y="249" on="1"/>
        <pt x="230" y="251" on="1"/>
        <pt x="348" y="251" on="1"/>
        <pt x="367" y="251" on="0"/>
        <pt x="396" y="237" on="0"/>
        <pt x="417" y="214" on="0"/>
        <pt x="432" y="185" on="0"/>
        <pt x="437" y="170" on="1"/>
        <pt x="196" y="170" on="1"/>
      </contour>
    </TTGlyph>
    <TTGlyph name="Atilde" xMin="29" yMin="0" xMax="659" yMax="894">
      <contour>
        <pt x="259" y="777" on="1"/>
        <pt x="198" y="783" on="1"/>
        <pt x="200" y="839" on="0"/>
        <pt x="254" y="894" on="0"/>
        <pt x="290" y="894" on="1"/>
        <pt x="312" y="894" on="0"/>
        <pt x="343" y="877" on="0"/>
        <pt x="369" y="856" on="0"/>
        <pt x="393" y="839" on="0"/>
        <pt x="408" y="839" on="1"/>
        <pt x="422" y="839" on="0"/>
        <pt x="437" y="867" on="0"/>
        <pt x="439" y="893" on="1"/>
        <pt x="498" y="887" on="1"/>
        <pt x="496" y="855" on="0"/>
        <pt x="480" y="813" on="0"/>
        <pt x="455" y="787" on="0"/>
        <pt x="425" y="776" on="0"/>
        <pt x="411" y="776" on="1"/>
        <pt x="387" y="776" on="0"/>
        <pt x="354" y="793" on="0"/>
        <pt x="329" y="814" on="0"/>
        <pt x="307" y="831" on="0"/>
        <pt x="294" y="831" on="1"/>
        <pt x="282" y="831" on="0"/>
        <pt x="261" y="807" on="0"/>
      </contour>
      <contour>
        <pt x="291" y="727" on="1"/>
        <pt x="397" y="727" on="1"/>
        <pt x="659" y="0" on="1"/>
        <pt x="544" y="0" on="1"/>
        <pt x="340" y="597" on="1"/>
        <pt x="228" y="269" on="1"/>
        <pt x="217" y="249" on="1"/>
        <pt x="230" y="251" on="1"/>
        <pt x="348" y="251" on="1"/>
        <pt x="367" y="251" on="0"/>
        <pt x="396" y="237" on="0"/>
        <pt x="417" y="214" on="0"/>
        <pt x="432" y="185" on="0"/>
        <pt x="437" y="170" on="1"/>
        <pt x="195" y="170" on="1"/>
        <pt x="137" y="0" on="1"/>
        <pt x="29" y="0" on="1"/>
      </contour>
    </TTGlyph>
    <TTGlyph name="B" xMin="85" yMin="-12" xMax="604" yMax="740">
      <contour>
        <pt x="329" y="72" on="1"/>
        <pt x="338" y="70" on="0"/>
        <pt x="352" y="69" on="0"/>
        <pt x="361" y="69" on="1"/>
        <pt x="388" y="69" on="0"/>
        <pt x="434" y="89" on="0"/>
        <pt x="469" y="125" on="0"/>
        <pt x="489" y="173" on="0"/>
        <pt x="489" y="202" on="1"/>
        <pt x="489" y="237" on="0"/>
        <pt x="460" y="290" on="0"/>
        <pt x="409" y="325" on="0"/>
        <pt x="340" y="343" on="0"/>
        <pt x="301" y="343" on="1"/>
        <pt x="193" y="343" on="1"/>
        <pt x="193" y="0" on="1"/>
        <pt x="85" y="0" on="1"/>
        <pt x="85" y="717" on="1"/>
        <pt x="149" y="729" on="0"/>
        <pt x="247" y="740" on="0"/>
        <pt x="301" y="740" on="1"/>
        <pt x="366" y="740" on="0"/>
        <pt x="463" y="710" on="0"/>
        <pt x="528" y="658" on="0"/>
        <pt x="561" y="586" on="0"/>
        <pt x="561" y="544" on="1"/>
        <pt x="561" y="526" on="0"/>
        <pt x="550" y="485" on="0"/>
        <pt x="530" y="447" on="0"/>
        <pt x="501" y="414" on="0"/>
        <pt x="483" y="402" on="1"/>
        <pt x="454" y="388" on="1"/>
        <pt x="482" y="381" on="1"/>
        <pt x="539" y="356" on="0"/>
        <pt x="604" y="264" on="0"/>
        <pt x="604" y="205" on="1"/>
        <pt x="604" y="166" on="0"/>
        <pt x="572" y="89" on="0"/>
        <pt x="510" y="27" on="0"/>
        <pt x="422" y="-12" on="0"/>
        <pt x="366" y="-12" on="1"/>
        <pt x="337" y="-12" on="0"/>
        <pt x="278" y="-5" on="0"/>
        <pt x="233" y="6" on="1"/>
        <pt x="240" y="19" on="0"/>
        <pt x="259" y="44" on="0"/>
        <pt x="282" y="64" on="0"/>
        <pt x="311" y="74" on="0"/>
      </contour>
      <contour>
        <pt x="193" y="419" on="1"/>
        <pt x="301" y="419" on="1"/>
        <pt x="370" y="419" on="0"/>
        <pt x="449" y="489" on="0"/>
        <pt x="449" y="543" on="1"/>
        <pt x="449" y="566" on="0"/>
        <pt x="431" y="608" on="0"/>
        <pt x="394" y="639" on="0"/>
        <pt x="338" y="658" on="0"/>
        <pt x="301" y="658" on="1"/>
        <pt x="247" y="658" on="0"/>
        <pt x="193" y="652" on="1"/>
      </contour>
    </TTGlyph>
    <TTGlyph name="C" xMin="65" yMin="-12" xMax="611" yMax="740">
      <contour>
        <pt x="434" y="-12" on="1"/>
        <pt x="353" y="-12" on="0"/>
        <pt x="217" y="42" on="0"/>
        <pt x="119" y="140" on="0"/>
        <pt x="65" y="278" on="0"/>
        <pt x="65" y="363" on="1"/>
        <pt x="65" y="445" on="0"/>
        <pt x="120" y="583" on="0"/>
        <pt x="218" y="684" on="0"/>
        <pt x="353" y="740" on="0"/>
        <pt x="434" y="740" on="1"/>
        <pt x="519" y="740" on="0"/>
        <pt x="611" y="706" on="1"/>
        <pt x="582" y="633" on="1"/>
        <pt x="538" y="647" on="0"/>
        <pt x="469" y="658" on="0"/>
        <pt x="434" y="658" on="1"/>
        <pt x="380" y="658" on="0"/>
        <pt x="288" y="618" on="0"/>
        <pt x="220" y="541" on="0"/>
        <pt x="182" y="432" on="0"/>
        <pt x="182" y="363" on="1"/>
        <pt x="182" y="300" on="0"/>
        <pt x="220" y="192" on="0"/>
        <pt x="288" y="113" on="0"/>
        <pt x="380" y="69" on="0"/>
        <pt x="434" y="69" on="1"/>
        <pt x="469" y="69" on="0"/>
        <pt x="542" y="87" on="0"/>
        <pt x="582" y="107" on="1"/>
        <pt x="611" y="34" on="1"/>
        <pt x="565" y="10" on="0"/>
        <pt x="476" y="-12" on="0"/>
      </contour>
    </TTGlyph>
    <TTGlyph name="Ccedilla" xMin="65" yMin="-208" xMax="611" yMax="740">
      <contour>
        <pt x="434" y="-12" on="1"/>
        <pt x="425" y="-12" on="0"/>
        <pt x="407" y="-11" on="0"/>
        <pt x="399" y="-10" on="1"/>
        <pt x="389" y="-48" on="1"/>
        <pt x="404" y="-50" on="0"/>
        <pt x="433" y="-62" on="0"/>
        <pt x="456" y="-81" on="0"/>
        <pt x="470" y="-107" on="0"/>
        <pt x="470" y="-123" on="1"/>
        <pt x="470" y="-146" on="0"/>
        <pt x="449" y="-178" on="0"/>
        <pt x="415" y="-198" on="0"/>
        <pt x="373" y="-208" on="0"/>
        <pt x="352" y="-208" on="1"/>
        <pt x="335" y="-208" on="0"/>
        <pt x="296" y="-200" on="0"/>
        <pt x="272" y="-189" on="1"/>
        <pt x="288" y="-142" on="1"/>
        <pt x="307" y="-150" on="0"/>
        <pt x="337" y="-155" on="0"/>
        <pt x="352" y="-155" on="1"/>
        <pt x="369" y="-155" on="0"/>
        <pt x="401" y="-142" on="0"/>
        <pt x="401" y="-126" on="1"/>
        <pt x="401" y="-108" on="0"/>
        <pt x="362" y="-90" on="0"/>
        <pt x="327" y="-86" on="1"/>
        <pt x="348" y="-4" on="1"/>
        <pt x="284" y="9" on="0"/>
        <pt x="180" y="72" on="0"/>
        <pt x="106" y="167" on="0"/>
        <pt x="65" y="291" on="0"/>
        <pt x="65" y="363" on="1"/>
        <pt x="65" y="445" on="0"/>
        <pt x="120" y="583" on="0"/>
        <pt x="218" y="684" on="0"/>
        <pt x="353" y="740" on="0"/>
        <pt x="434" y="740" on="1"/>
        <pt x="519" y="740" on="0"/>
        <pt x="611" y="706" on="1"/>
        <pt x="582" y="633" on="1"/>
        <pt x="538" y="647" on="0"/>
        <pt x="469" y="658" on="0"/>
        <pt x="434" y="658" on="1"/>
        <pt x="380" y="658" on="0"/>
        <pt x="288" y="618" on="0"/>
        <pt x="220" y="541" on="0"/>
        <pt x="182" y="432" on="0"/>
        <pt x="182" y="363" on="1"/>
        <pt x="182" y="295" on="0"/>
        <pt x="220" y="187" on="0"/>
        <pt x="288" y="110" on="0"/>
        <pt x="380" y="69" on="0"/>
        <pt x="434" y="69" on="1"/>
        <pt x="469" y="69" on="0"/>
        <pt x="542" y="87" on="0"/>
        <pt x="582" y="107" on="1"/>
        <pt x="611" y="34" on="1"/>
        <pt x="565" y="10" on="0"/>
        <pt x="476" y="-12" on="0"/>
      </contour>
    </TTGlyph>
    <TTGlyph name="D" xMin="87" yMin="-12" xMax="705" yMax="740">
      <contour>
        <pt x="368" y="-12" on="1"/>
        <pt x="336" y="-12" on="0"/>
        <pt x="278" y="-6" on="0"/>
        <pt x="235" y="5" on="1"/>
        <pt x="248" y="31" on="0"/>
        <pt x="295" y="72" on="0"/>
        <pt x="331" y="70" on="1"/>
        <pt x="342" y="69" on="0"/>
        <pt x="355" y="69" on="0"/>
        <pt x="363" y="69" on="1"/>
        <pt x="414" y="69" on="0"/>
        <pt x="497" y="117" on="0"/>
        <pt x="556" y="199" on="0"/>
        <pt x="588" y="306" on="0"/>
        <pt x="588" y="365" on="1"/>
        <pt x="588" y="502" on="0"/>
        <pt x="447" y="658" on="0"/>
        <pt x="300" y="658" on="1"/>
        <pt x="273" y="658" on="0"/>
        <pt x="219" y="654" on="0"/>
        <pt x="196" y="651" on="1"/>
        <pt x="196" y="0" on="1"/>
        <pt x="87" y="0" on="1"/>
        <pt x="87" y="715" on="1"/>
        <pt x="141" y="728" on="0"/>
        <pt x="256" y="740" on="0"/>
        <pt x="300" y="740" on="1"/>
        <pt x="397" y="740" on="0"/>
        <pt x="547" y="689" on="0"/>
        <pt x="651" y="592" on="0"/>
        <pt x="705" y="453" on="0"/>
        <pt x="705" y="365" on="1"/>
        <pt x="705" y="284" on="0"/>
        <pt x="652" y="146" on="0"/>
        <pt x="560" y="45" on="0"/>
        <pt x="438" y="-12" on="0"/>
      </contour>
    </TTGlyph>
    <TTGlyph name="E" xMin="87" yMin="0" xMax="523" yMax="727">
      <contour>
        <pt x="324" y="421" on="1"/>
        <pt x="474" y="421" on="1"/>
        <pt x="474" y="342" on="1"/>
        <pt x="234" y="342" on="1"/>
        <pt x="239" y="357" on="0"/>
        <pt x="254" y="385" on="0"/>
        <pt x="276" y="407" on="0"/>
        <pt x="305" y="421" on="0"/>
      </contour>
      <contour>
        <pt x="87" y="0" on="1"/>
        <pt x="87" y="727" on="1"/>
        <pt x="508" y="727" on="1"/>
        <pt x="508" y="646" on="1"/>
        <pt x="196" y="646" on="1"/>
        <pt x="196" y="81" on="1"/>
        <pt x="523" y="81" on="1"/>
        <pt x="523" y="0" on="1"/>
      </contour>
    </TTGlyph>
    <TTGlyph name="Eacute" xMin="83" yMin="0" xMax="518" yMax="890">
      <contour>
        <pt x="440" y="890" on="1"/>
        <pt x="357" y="797" on="1"/>
        <pt x="334" y="771" on="0"/>
        <pt x="270" y="759" on="0"/>
        <pt x="245" y="766" on="1"/>
        <pt x="333" y="890" on="1"/>
      </contour>
      <contour>
        <pt x="320" y="421" on="1"/>
        <pt x="469" y="421" on="1"/>
        <pt x="469" y="342" on="1"/>
        <pt x="230" y="342" on="1"/>
        <pt x="235" y="357" on="0"/>
        <pt x="250" y="385" on="0"/>
        <pt x="272" y="407" on="0"/>
        <pt x="301" y="421" on="0"/>
      </contour>
      <contour>
        <pt x="83" y="0" on="1"/>
        <pt x="83" y="727" on="1"/>
        <pt x="503" y="727" on="1"/>
        <pt x="503" y="646" on="1"/>
        <pt x="192" y="646" on="1"/>
        <pt x="192" y="81" on="1"/>
        <pt x="518" y="81" on="1"/>
        <pt x="518" y="0" on="1"/>
      </contour>
    </TTGlyph>
    <TTGlyph name="Ecircumflex" xMin="83" yMin="0" xMax="518" yMax="890">
      <contour>
        <pt x="267" y="890" on="1"/>
        <pt x="338" y="890" on="1"/>
        <pt x="448" y="771" on="1"/>
        <pt x="387" y="760" on="1"/>
        <pt x="302" y="818" on="1"/>
        <pt x="217" y="760" on="1"/>
        <pt x="159" y="771" on="1"/>
      </contour>
      <contour>
        <pt x="320" y="421" on="1"/>
        <pt x="469" y="421" on="1"/>
        <pt x="469" y="342" on="1"/>
        <pt x="230" y="342" on="1"/>
        <pt x="235" y="357" on="0"/>
        <pt x="250" y="385" on="0"/>
        <pt x="272" y="407" on="0"/>
        <pt x="301" y="421" on="0"/>
      </contour>
      <contour>
        <pt x="83" y="0" on="1"/>
        <pt x="83" y="727" on="1"/>
        <pt x="503" y="727" on="1"/>
        <pt x="503" y="646" on="1"/>
        <pt x="192" y="646" on="1"/>
        <pt x="192" y="81" on="1"/>
        <pt x="518" y="81" on="1"/>
        <pt x="518" y="0" on="1"/>
      </contour>
    </TTGlyph>
    <TTGlyph name="Edieresis" xMin="83" yMin="0" xMax="518" yMax="895">
      <contour>
        <pt x="342" y="840" on="1"/>
        <pt x="342" y="863" on="0"/>
        <pt x="375" y="895" on="0"/>
        <pt x="398" y="895" on="1"/>
        <pt x="421" y="895" on="0"/>
        <pt x="453" y="863" on="0"/>
        <pt x="453" y="840" on="1"/>
        <pt x="453" y="817" on="0"/>
        <pt x="421" y="785" on="0"/>
        <pt x="398" y="785" on="1"/>
        <pt x="375" y="785" on="0"/>
        <pt x="342" y="817" on="0"/>
      </contour>
      <contour>
        <pt x="148" y="840" on="1"/>
        <pt x="148" y="863" on="0"/>
        <pt x="180" y="895" on="0"/>
        <pt x="203" y="895" on="1"/>
        <pt x="226" y="895" on="0"/>
        <pt x="259" y="863" on="0"/>
        <pt x="259" y="840" on="1"/>
        <pt x="259" y="817" on="0"/>
        <pt x="226" y="785" on="0"/>
        <pt x="203" y="785" on="1"/>
        <pt x="180" y="785" on="0"/>
        <pt x="148" y="817" on="0"/>
      </contour>
      <contour>
        <pt x="320" y="421" on="1"/>
        <pt x="469" y="421" on="1"/>
        <pt x="469" y="342" on="1"/>
        <pt x="230" y="342" on="1"/>
        <pt x="235" y="357" on="0"/>
        <pt x="250" y="385" on="0"/>
        <pt x="272" y="407" on="0"/>
        <pt x="301" y="421" on="0"/>
      </contour>
      <contour>
        <pt x="83" y="0" on="1"/>
        <pt x="83" y="727" on="1"/>
        <pt x="503" y="727" on="1"/>
        <pt x="503" y="646" on="1"/>
        <pt x="192" y="646" on="1"/>
        <pt x="192" y="81" on="1"/>
        <pt x="518" y="81" on="1"/>
        <pt x="518" y="0" on="1"/>
      </contour>
    </TTGlyph>
    <TTGlyph name="Egrave" xMin="83" yMin="0" xMax="518" yMax="890">
      <contour>
        <pt x="252" y="797" on="1"/>
        <pt x="182" y="890" on="1"/>
        <pt x="288" y="890" on="1"/>
        <pt x="362" y="766" on="1"/>
        <pt x="349" y="763" on="0"/>
        <pt x="319" y="762" on="0"/>
        <pt x="289" y="769" on="0"/>
        <pt x="261" y="784" on="0"/>
      </contour>
      <contour>
        <pt x="320" y="421" on="1"/>
        <pt x="469" y="421" on="1"/>
        <pt x="469" y="342" on="1"/>
        <pt x="230" y="342" on="1"/>
        <pt x="235" y="357" on="0"/>
        <pt x="250" y="385" on="0"/>
        <pt x="272" y="407" on="0"/>
        <pt x="301" y="421" on="0"/>
      </contour>
      <contour>
        <pt x="83" y="0" on="1"/>
        <pt x="83" y="727" on="1"/>
        <pt x="503" y="727" on="1"/>
        <pt x="503" y="646" on="1"/>
        <pt x="192" y="646" on="1"/>
        <pt x="192" y="81" on="1"/>
        <pt x="518" y="81" on="1"/>
        <pt x="518" y="0" on="1"/>
      </contour>
    </TTGlyph>
    <TTGlyph name="Eth" xMin="1" yMin="-12" xMax="700" yMax="740">
      <contour>
        <pt x="1" y="319" on="1"/>
        <pt x="1" y="392" on="1"/>
        <pt x="83" y="392" on="1"/>
        <pt x="83" y="715" on="1"/>
        <pt x="136" y="728" on="0"/>
        <pt x="251" y="740" on="0"/>
        <pt x="295" y="740" on="1"/>
        <pt x="392" y="740" on="0"/>
        <pt x="542" y="687" on="0"/>
        <pt x="646" y="589" on="0"/>
        <pt x="700" y="450" on="0"/>
        <pt x="700" y="365" on="1"/>
        <pt x="700" y="284" on="0"/>
        <pt x="647" y="146" on="0"/>
        <pt x="555" y="45" on="0"/>
        <pt x="433" y="-12" on="0"/>
        <pt x="363" y="-12" on="1"/>
        <pt x="347" y="-12" on="0"/>
        <pt x="318" y="-11" on="0"/>
        <pt x="287" y="-7" on="0"/>
        <pt x="252" y="0" on="0"/>
        <pt x="230" y="5" on="1"/>
        <pt x="244" y="31" on="0"/>
        <pt x="291" y="72" on="0"/>
        <pt x="326" y="70" on="1"/>
        <pt x="337" y="69" on="0"/>
        <pt x="350" y="69" on="0"/>
        <pt x="358" y="69" on="1"/>
        <pt x="409" y="69" on="0"/>
        <pt x="492" y="117" on="0"/>
        <pt x="552" y="199" on="0"/>
        <pt x="584" y="306" on="0"/>
        <pt x="584" y="365" on="1"/>
        <pt x="584" y="502" on="0"/>
        <pt x="442" y="658" on="0"/>
        <pt x="295" y="658" on="1"/>
        <pt x="268" y="658" on="0"/>
        <pt x="215" y="654" on="0"/>
        <pt x="191" y="651" on="1"/>
        <pt x="191" y="392" on="1"/>
        <pt x="411" y="392" on="1"/>
        <pt x="411" y="319" on="1"/>
        <pt x="191" y="319" on="1"/>
        <pt x="191" y="0" on="1"/>
        <pt x="83" y="0" on="1"/>
        <pt x="83" y="319" on="1"/>
      </contour>
    </TTGlyph>
    <TTGlyph name="Euro" xMin="-15" yMin="-11" xMax="521" yMax="713">
      <contour>
        <pt x="284" y="467" on="1"/>
        <pt x="439" y="467" on="1"/>
        <pt x="439" y="400" on="1"/>
        <pt x="199" y="400" on="1"/>
        <pt x="209" y="429" on="0"/>
        <pt x="249" y="467" on="0"/>
      </contour>
      <contour>
        <pt x="-15" y="248" on="1"/>
        <pt x="-15" y="315" on="1"/>
        <pt x="55" y="315" on="1"/>
        <pt x="54" y="323" on="0"/>
        <pt x="54" y="341" on="0"/>
        <pt x="54" y="350" on="1"/>
        <pt x="54" y="363" on="0"/>
        <pt x="54" y="387" on="0"/>
        <pt x="56" y="400" on="1"/>
        <pt x="-15" y="400" on="1"/>
        <pt x="-15" y="467" on="1"/>
        <pt x="67" y="467" on="1"/>
        <pt x="80" y="522" on="0"/>
        <pt x="132" y="613" on="0"/>
        <pt x="205" y="677" on="0"/>
        <pt x="301" y="713" on="0"/>
        <pt x="358" y="713" on="1"/>
        <pt x="400" y="713" on="0"/>
        <pt x="473" y="700" on="0"/>
        <pt x="521" y="682" on="1"/>
        <pt x="492" y="609" on="1"/>
        <pt x="450" y="624" on="0"/>
        <pt x="389" y="634" on="0"/>
        <pt x="358" y="634" on="1"/>
        <pt x="314" y="634" on="0"/>
        <pt x="241" y="592" on="0"/>
        <pt x="189" y="517" on="0"/>
        <pt x="160" y="412" on="0"/>
        <pt x="160" y="350" on="1"/>
        <pt x="160" y="341" on="0"/>
        <pt x="160" y="323" on="0"/>
        <pt x="161" y="315" on="1"/>
        <pt x="439" y="315" on="1"/>
        <pt x="439" y="248" on="1"/>
        <pt x="209" y="248" on="1"/>
        <pt x="171" y="248" on="1"/>
        <pt x="194" y="167" on="0"/>
        <pt x="287" y="69" on="0"/>
        <pt x="358" y="69" on="1"/>
        <pt x="393" y="69" on="0"/>
        <pt x="453" y="82" on="0"/>
        <pt x="492" y="97" on="1"/>
        <pt x="521" y="24" on="1"/>
        <pt x="477" y="6" on="0"/>
        <pt x="400" y="-11" on="0"/>
        <pt x="358" y="-11" on="1"/>
        <pt x="298" y="-11" on="0"/>
        <pt x="201" y="27" on="0"/>
        <pt x="127" y="95" on="0"/>
        <pt x="76" y="191" on="0"/>
        <pt x="64" y="248" on="1"/>
      </contour>
    </TTGlyph>
    <TTGlyph name="F" xMin="87" yMin="0" xMax="508" yMax="727">
      <contour>
        <pt x="324" y="421" on="1"/>
        <pt x="474" y="421" on="1"/>
        <pt x="474" y="342" on="1"/>
        <pt x="234" y="342" on="1"/>
        <pt x="239" y="357" on="0"/>
        <pt x="254" y="385" on="0"/>
        <pt x="276" y="407" on="0"/>
        <pt x="305" y="421" on="0"/>
      </contour>
      <contour>
        <pt x="87" y="0" on="1"/>
        <pt x="87" y="727" on="1"/>
        <pt x="508" y="727" on="1"/>
        <pt x="508" y="646" on="1"/>
        <pt x="196" y="646" on="1"/>
        <pt x="196" y="0" on="1"/>
      </contour>
    </TTGlyph>
    <TTGlyph name="G" xMin="37" yMin="-12" xMax="628" yMax="740">
      <contour>
        <pt x="419" y="658" on="1"/>
        <pt x="365" y="658" on="0"/>
        <pt x="269" y="619" on="0"/>
        <pt x="196" y="543" on="0"/>
        <pt x="154" y="433" on="0"/>
        <pt x="154" y="363" on="1"/>
        <pt x="154" y="294" on="0"/>
        <pt x="196" y="184" on="0"/>
        <pt x="268" y="109" on="0"/>
        <pt x="364" y="69" on="0"/>
        <pt x="418" y="69" on="1"/>
        <pt x="440" y="69" on="0"/>
        <pt x="493" y="74" on="0"/>
        <pt x="525" y="84" on="1"/>
        <pt x="525" y="337" on="1"/>
        <pt x="628" y="337" on="1"/>
        <pt x="628" y="37" on="1"/>
        <pt x="574" y="9" on="0"/>
        <pt x="461" y="-12" on="0"/>
        <pt x="418" y="-12" on="1"/>
        <pt x="337" y="-12" on="0"/>
        <pt x="197" y="41" on="0"/>
        <pt x="95" y="139" on="0"/>
        <pt x="37" y="278" on="0"/>
        <pt x="37" y="363" on="1"/>
        <pt x="37" y="446" on="0"/>
        <pt x="96" y="584" on="0"/>
        <pt x="198" y="684" on="0"/>
        <pt x="338" y="740" on="0"/>
        <pt x="419" y="740" on="1"/>
        <pt x="462" y="740" on="0"/>
        <pt x="567" y="721" on="0"/>
        <pt x="621" y="696" on="1"/>
        <pt x="592" y="622" on="1"/>
        <pt x="537" y="645" on="0"/>
        <pt x="454" y="658" on="0"/>
      </contour>
    </TTGlyph>
    <TTGlyph name="H" xMin="87" yMin="0" xMax="654" yMax="727">
      <contour>
        <pt x="87" y="0" on="1"/>
        <pt x="87" y="727" on="1"/>
        <pt x="196" y="727" on="1"/>
        <pt x="196" y="0" on="1"/>
      </contour>
      <contour>
        <pt x="324" y="421" on="1"/>
        <pt x="546" y="421" on="1"/>
        <pt x="546" y="727" on="1"/>
        <pt x="654" y="727" on="1"/>
        <pt x="654" y="0" on="1"/>
        <pt x="546" y="0" on="1"/>
        <pt x="546" y="341" on="1"/>
        <pt x="234" y="341" on="1"/>
        <pt x="244" y="371" on="0"/>
        <pt x="286" y="421" on="0"/>
      </contour>
    </TTGlyph>
    <TTGlyph name="I" xMin="87" yMin="0" xMax="193" yMax="727">
      <contour>
        <pt x="193" y="727" on="1"/>
        <pt x="193" y="0" on="1"/>
        <pt x="87" y="0" on="1"/>
        <pt x="87" y="727" on="1"/>
      </contour>
    </TTGlyph>
    <TTGlyph name="Iacute" xMin="79" yMin="0" xMax="275" yMax="890">
      <contour>
        <pt x="275" y="890" on="1"/>
        <pt x="192" y="797" on="1"/>
        <pt x="169" y="771" on="0"/>
        <pt x="105" y="759" on="0"/>
        <pt x="79" y="766" on="1"/>
        <pt x="167" y="890" on="1"/>
      </contour>
      <contour>
        <pt x="188" y="727" on="1"/>
        <pt x="188" y="0" on="1"/>
        <pt x="82" y="0" on="1"/>
        <pt x="82" y="727" on="1"/>
      </contour>
    </TTGlyph>
    <TTGlyph name="Icircumflex" xMin="16" yMin="0" xMax="305" yMax="890">
      <contour>
        <pt x="124" y="890" on="1"/>
        <pt x="195" y="890" on="1"/>
        <pt x="305" y="771" on="1"/>
        <pt x="244" y="760" on="1"/>
        <pt x="159" y="818" on="1"/>
        <pt x="74" y="760" on="1"/>
        <pt x="16" y="771" on="1"/>
      </contour>
      <contour>
        <pt x="212" y="727" on="1"/>
        <pt x="212" y="0" on="1"/>
        <pt x="106" y="0" on="1"/>
        <pt x="106" y="727" on="1"/>
      </contour>
    </TTGlyph>
    <TTGlyph name="Idieresis" xMin="20" yMin="0" xMax="325" yMax="895">
      <contour>
        <pt x="214" y="840" on="1"/>
        <pt x="214" y="863" on="0"/>
        <pt x="247" y="895" on="0"/>
        <pt x="270" y="895" on="1"/>
        <pt x="293" y="895" on="0"/>
        <pt x="325" y="863" on="0"/>
        <pt x="325" y="840" on="1"/>
        <pt x="325" y="817" on="0"/>
        <pt x="293" y="785" on="0"/>
        <pt x="270" y="785" on="1"/>
        <pt x="247" y="785" on="0"/>
        <pt x="214" y="817" on="0"/>
      </contour>
      <contour>
        <pt x="20" y="840" on="1"/>
        <pt x="20" y="863" on="0"/>
        <pt x="52" y="895" on="0"/>
        <pt x="75" y="895" on="1"/>
        <pt x="98" y="895" on="0"/>
        <pt x="131" y="863" on="0"/>
        <pt x="131" y="840" on="1"/>
        <pt x="131" y="817" on="0"/>
        <pt x="98" y="785" on="0"/>
        <pt x="75" y="785" on="1"/>
        <pt x="52" y="785" on="0"/>
        <pt x="20" y="817" on="0"/>
      </contour>
      <contour>
        <pt x="225" y="727" on="1"/>
        <pt x="225" y="0" on="1"/>
        <pt x="120" y="0" on="1"/>
        <pt x="120" y="727" on="1"/>
      </contour>
    </TTGlyph>
    <TTGlyph name="Igrave" xMin="21" yMin="0" xMax="200" yMax="890">
      <contour>
        <pt x="90" y="797" on="1"/>
        <pt x="21" y="890" on="1"/>
        <pt x="126" y="890" on="1"/>
        <pt x="200" y="766" on="1"/>
        <pt x="174" y="759" on="0"/>
        <pt x="110" y="771" on="0"/>
      </contour>
      <contour>
        <pt x="196" y="727" on="1"/>
        <pt x="196" y="0" on="1"/>
        <pt x="91" y="0" on="1"/>
        <pt x="91" y="727" on="1"/>
      </contour>
    </TTGlyph>
    <TTGlyph name="J" xMin="-6" yMin="-212" xMax="269" yMax="727">
      <contour>
        <pt x="269" y="727" on="1"/>
        <pt x="269" y="128" on="1"/>
        <pt x="269" y="61" on="0"/>
        <pt x="238" y="-34" on="0"/>
        <pt x="179" y="-110" on="0"/>
        <pt x="95" y="-176" on="0"/>
        <pt x="41" y="-212" on="1"/>
        <pt x="-6" y="-152" on="1"/>
        <pt x="31" y="-121" on="0"/>
        <pt x="93" y="-68" on="0"/>
        <pt x="136" y="-7" on="0"/>
        <pt x="160" y="71" on="0"/>
        <pt x="160" y="128" on="1"/>
        <pt x="160" y="727" on="1"/>
      </contour>
    </TTGlyph>
    <TTGlyph name="K" xMin="87" yMin="0" xMax="656" yMax="727">
      <contour>
        <pt x="196" y="0" on="1"/>
        <pt x="87" y="0" on="1"/>
        <pt x="87" y="727" on="1"/>
        <pt x="196" y="727" on="1"/>
      </contour>
      <contour>
        <pt x="622" y="727" on="1"/>
        <pt x="397" y="434" on="1"/>
        <pt x="656" y="0" on="1"/>
        <pt x="527" y="0" on="1"/>
        <pt x="342" y="340" on="1"/>
        <pt x="335" y="359" on="1"/>
        <pt x="325" y="340" on="1"/>
        <pt x="250" y="243" on="1"/>
        <pt x="244" y="261" on="0"/>
        <pt x="240" y="305" on="0"/>
        <pt x="247" y="352" on="0"/>
        <pt x="264" y="400" on="0"/>
        <pt x="278" y="421" on="1"/>
        <pt x="329" y="496" on="0"/>
        <pt x="444" y="651" on="0"/>
        <pt x="500" y="727" on="1"/>
      </contour>
    </TTGlyph>
    <TTGlyph name="L" xMin="87" yMin="0" xMax="489" yMax="727">
      <contour>
        <pt x="87" y="0" on="1"/>
        <pt x="87" y="727" on="1"/>
        <pt x="197" y="727" on="1"/>
        <pt x="197" y="82" on="1"/>
        <pt x="489" y="82" on="1"/>
        <pt x="489" y="62" on="0"/>
        <pt x="488" y="20" on="0"/>
        <pt x="488" y="0" on="1"/>
      </contour>
    </TTGlyph>
    <TTGlyph name="M" xMin="70" yMin="0" xMax="888" yMax="727">
      <contour>
        <pt x="70" y="0" on="1"/>
        <pt x="148" y="727" on="1"/>
        <pt x="288" y="727" on="1"/>
        <pt x="473" y="150" on="1"/>
        <pt x="480" y="117" on="1"/>
        <pt x="487" y="150" on="1"/>
        <pt x="671" y="727" on="1"/>
        <pt x="811" y="727" on="1"/>
        <pt x="888" y="0" on="1"/>
        <pt x="785" y="0" on="1"/>
        <pt x="733" y="572" on="1"/>
        <pt x="730" y="617" on="1"/>
        <pt x="718" y="572" on="1"/>
        <pt x="532" y="10" on="1"/>
        <pt x="426" y="10" on="1"/>
        <pt x="239" y="573" on="1"/>
        <pt x="226" y="617" on="1"/>
        <pt x="172" y="0" on="1"/>
      </contour>
    </TTGlyph>
    <TTGlyph name="N" xMin="101" yMin="0" xMax="655" yMax="727">
      <contour>
        <pt x="558" y="0" on="1"/>
        <pt x="470" y="141" on="0"/>
        <pt x="295" y="418" on="0"/>
        <pt x="207" y="560" on="1"/>
        <pt x="192" y="595" on="1"/>
        <pt x="194" y="561" on="1"/>
        <pt x="194" y="0" on="1"/>
        <pt x="101" y="0" on="1"/>
        <pt x="101" y="727" on="1"/>
        <pt x="209" y="727" on="1"/>
        <pt x="512" y="242" on="1"/>
        <pt x="548" y="185" on="1"/>
        <pt x="561" y="150" on="1"/>
        <pt x="559" y="186" on="1"/>
        <pt x="559" y="727" on="1"/>
        <pt x="655" y="727" on="1"/>
        <pt x="655" y="0" on="1"/>
      </contour>
    </TTGlyph>
    <TTGlyph name="Ntilde" xMin="98" yMin="0" xMax="652" yMax="894">
      <contour>
        <pt x="289" y="777" on="1"/>
        <pt x="228" y="783" on="1"/>
        <pt x="230" y="839" on="0"/>
        <pt x="284" y="894" on="0"/>
        <pt x="320" y="894" on="1"/>
        <pt x="342" y="894" on="0"/>
        <pt x="373" y="877" on="0"/>
        <pt x="399" y="856" on="0"/>
        <pt x="423" y="839" on="0"/>
        <pt x="438" y="839" on="1"/>
        <pt x="452" y="839" on="0"/>
        <pt x="467" y="867" on="0"/>
        <pt x="469" y="893" on="1"/>
        <pt x="528" y="887" on="1"/>
        <pt x="526" y="855" on="0"/>
        <pt x="510" y="813" on="0"/>
        <pt x="485" y="787" on="0"/>
        <pt x="455" y="776" on="0"/>
        <pt x="441" y="776" on="1"/>
        <pt x="417" y="776" on="0"/>
        <pt x="384" y="793" on="0"/>
        <pt x="359" y="814" on="0"/>
        <pt x="337" y="831" on="0"/>
        <pt x="324" y="831" on="1"/>
        <pt x="312" y="831" on="0"/>
        <pt x="291" y="807" on="0"/>
      </contour>
      <contour>
        <pt x="555" y="0" on="1"/>
        <pt x="467" y="141" on="0"/>
        <pt x="291" y="419" on="0"/>
        <pt x="203" y="561" on="1"/>
        <pt x="189" y="595" on="1"/>
        <pt x="191" y="561" on="1"/>
        <pt x="191" y="0" on="1"/>
        <pt x="98" y="0" on="1"/>
        <pt x="98" y="727" on="1"/>
        <pt x="206" y="727" on="1"/>
        <pt x="510" y="242" on="1"/>
        <pt x="519" y="228" on="0"/>
        <pt x="537" y="198" on="0"/>
        <pt x="546" y="184" on="1"/>
        <pt x="558" y="151" on="1"/>
        <pt x="556" y="186" on="1"/>
        <pt x="556" y="727" on="1"/>
        <pt x="652" y="727" on="1"/>
        <pt x="652" y="0" on="1"/>
      </contour>
    </TTGlyph>
    <TTGlyph name="O" xMin="44" yMin="-14" xMax="733" yMax="742">
      <contour>
        <pt x="161" y="364" on="1"/>
        <pt x="161" y="301" on="0"/>
        <pt x="194" y="192" on="0"/>
        <pt x="254" y="112" on="0"/>
        <pt x="338" y="67" on="0"/>
        <pt x="389" y="67" on="1"/>
        <pt x="438" y="67" on="0"/>
        <pt x="522" y="111" on="0"/>
        <pt x="582" y="191" on="0"/>
        <pt x="616" y="299" on="0"/>
        <pt x="616" y="364" on="1"/>
        <pt x="616" y="431" on="0"/>
        <pt x="582" y="540" on="0"/>
        <pt x="521" y="618" on="0"/>
        <pt x="438" y="660" on="0"/>
        <pt x="389" y="660" on="1"/>
        <pt x="339" y="660" on="0"/>
        <pt x="256" y="617" on="0"/>
        <pt x="195" y="539" on="0"/>
        <pt x="161" y="430" on="0"/>
      </contour>
      <contour>
        <pt x="44" y="364" on="1"/>
        <pt x="44" y="455" on="0"/>
        <pt x="102" y="596" on="0"/>
        <pt x="198" y="692" on="0"/>
        <pt x="322" y="742" on="0"/>
        <pt x="389" y="742" on="1"/>
        <pt x="475" y="742" on="0"/>
        <pt x="604" y="680" on="0"/>
        <pt x="690" y="575" on="0"/>
        <pt x="733" y="438" on="0"/>
        <pt x="733" y="364" on="1"/>
        <pt x="733" y="281" on="0"/>
        <pt x="680" y="142" on="0"/>
        <pt x="588" y="42" on="0"/>
        <pt x="462" y="-14" on="0"/>
        <pt x="389" y="-14" on="1"/>
        <pt x="314" y="-14" on="0"/>
        <pt x="187" y="39" on="0"/>
        <pt x="96" y="138" on="0"/>
        <pt x="44" y="278" on="0"/>
      </contour>
    </TTGlyph>
    <TTGlyph name="OE" xMin="38" yMin="-14" xMax="929" yMax="742">
      <contour>
        <pt x="731" y="421" on="1"/>
        <pt x="880" y="421" on="1"/>
        <pt x="880" y="342" on="1"/>
        <pt x="641" y="342" on="1"/>
        <pt x="646" y="357" on="0"/>
        <pt x="661" y="385" on="0"/>
        <pt x="683" y="407" on="0"/>
        <pt x="712" y="421" on="0"/>
      </contour>
      <contour>
        <pt x="382" y="660" on="1"/>
        <pt x="332" y="660" on="0"/>
        <pt x="249" y="617" on="0"/>
        <pt x="188" y="539" on="0"/>
        <pt x="154" y="430" on="0"/>
        <pt x="154" y="364" on="1"/>
        <pt x="154" y="298" on="0"/>
        <pt x="188" y="189" on="0"/>
        <pt x="249" y="111" on="0"/>
        <pt x="333" y="67" on="0"/>
        <pt x="382" y="67" on="1"/>
        <pt x="408" y="67" on="0"/>
        <pt x="465" y="75" on="0"/>
        <pt x="494" y="85" on="1"/>
        <pt x="494" y="642" on="1"/>
        <pt x="468" y="651" on="0"/>
        <pt x="408" y="660" on="0"/>
      </contour>
      <contour>
        <pt x="382" y="-14" on="1"/>
        <pt x="308" y="-14" on="0"/>
        <pt x="182" y="39" on="0"/>
        <pt x="90" y="137" on="0"/>
        <pt x="38" y="277" on="0"/>
        <pt x="38" y="364" on="1"/>
        <pt x="38" y="449" on="0"/>
        <pt x="91" y="589" on="0"/>
        <pt x="184" y="688" on="0"/>
        <pt x="310" y="742" on="0"/>
        <pt x="382" y="742" on="1"/>
        <pt x="414" y="742" on="0"/>
        <pt x="493" y="727" on="0"/>
        <pt x="533" y="727" on="1"/>
        <pt x="914" y="727" on="1"/>
        <pt x="914" y="646" on="1"/>
        <pt x="603" y="646" on="1"/>
        <pt x="603" y="81" on="1"/>
        <pt x="929" y="81" on="1"/>
        <pt x="929" y="0" on="1"/>
        <pt x="533" y="0" on="1"/>
        <pt x="490" y="0" on="0"/>
        <pt x="410" y="-14" on="0"/>
      </contour>
    </TTGlyph>
    <TTGlyph name="Oacute" xMin="37" yMin="-14" xMax="726" yMax="890">
      <contour>
        <pt x="536" y="890" on="1"/>
        <pt x="453" y="797" on="1"/>
        <pt x="430" y="771" on="0"/>
        <pt x="366" y="759" on="0"/>
        <pt x="341" y="766" on="1"/>
        <pt x="429" y="890" on="1"/>
      </contour>
      <contour>
        <pt x="609" y="364" on="1"/>
        <pt x="609" y="430" on="0"/>
        <pt x="575" y="539" on="0"/>
        <pt x="514" y="617" on="0"/>
        <pt x="431" y="660" on="0"/>
        <pt x="382" y="660" on="1"/>
        <pt x="332" y="660" on="0"/>
        <pt x="249" y="617" on="0"/>
        <pt x="188" y="539" on="0"/>
        <pt x="154" y="430" on="0"/>
        <pt x="154" y="364" on="1"/>
        <pt x="154" y="298" on="0"/>
        <pt x="188" y="189" on="0"/>
        <pt x="249" y="111" on="0"/>
        <pt x="333" y="67" on="0"/>
        <pt x="382" y="67" on="1"/>
        <pt x="431" y="67" on="0"/>
        <pt x="514" y="111" on="0"/>
        <pt x="575" y="189" on="0"/>
        <pt x="609" y="298" on="0"/>
      </contour>
      <contour>
        <pt x="726" y="364" on="1"/>
        <pt x="726" y="278" on="0"/>
        <pt x="672" y="139" on="0"/>
        <pt x="578" y="40" on="0"/>
        <pt x="453" y="-14" on="0"/>
        <pt x="382" y="-14" on="1"/>
        <pt x="307" y="-14" on="0"/>
        <pt x="181" y="39" on="0"/>
        <pt x="89" y="137" on="0"/>
        <pt x="37" y="277" on="0"/>
        <pt x="37" y="364" on="1"/>
        <pt x="37" y="449" on="0"/>
        <pt x="91" y="589" on="0"/>
        <pt x="184" y="688" on="0"/>
        <pt x="310" y="742" on="0"/>
        <pt x="382" y="742" on="1"/>
        <pt x="457" y="742" on="0"/>
        <pt x="583" y="689" on="0"/>
        <pt x="674" y="590" on="0"/>
        <pt x="726" y="451" on="0"/>
      </contour>
    </TTGlyph>
    <TTGlyph name="Ocircumflex" xMin="37" yMin="-14" xMax="726" yMax="890">
      <contour>
        <pt x="348" y="890" on="1"/>
        <pt x="419" y="890" on="1"/>
        <pt x="529" y="771" on="1"/>
        <pt x="468" y="760" on="1"/>
        <pt x="383" y="818" on="1"/>
        <pt x="298" y="760" on="1"/>
        <pt x="240" y="771" on="1"/>
      </contour>
      <contour>
        <pt x="609" y="364" on="1"/>
        <pt x="609" y="430" on="0"/>
        <pt x="575" y="539" on="0"/>
        <pt x="514" y="617" on="0"/>
        <pt x="431" y="660" on="0"/>
        <pt x="382" y="660" on="1"/>
        <pt x="332" y="660" on="0"/>
        <pt x="249" y="617" on="0"/>
        <pt x="188" y="539" on="0"/>
        <pt x="154" y="430" on="0"/>
        <pt x="154" y="364" on="1"/>
        <pt x="154" y="298" on="0"/>
        <pt x="188" y="189" on="0"/>
        <pt x="249" y="111" on="0"/>
        <pt x="333" y="67" on="0"/>
        <pt x="382" y="67" on="1"/>
        <pt x="431" y="67" on="0"/>
        <pt x="514" y="111" on="0"/>
        <pt x="575" y="189" on="0"/>
        <pt x="609" y="298" on="0"/>
      </contour>
      <contour>
        <pt x="726" y="364" on="1"/>
        <pt x="726" y="278" on="0"/>
        <pt x="672" y="139" on="0"/>
        <pt x="578" y="40" on="0"/>
        <pt x="453" y="-14" on="0"/>
        <pt x="382" y="-14" on="1"/>
        <pt x="307" y="-14" on="0"/>
        <pt x="181" y="39" on="0"/>
        <pt x="89" y="137" on="0"/>
        <pt x="37" y="277" on="0"/>
        <pt x="37" y="364" on="1"/>
        <pt x="37" y="449" on="0"/>
        <pt x="91" y="589" on="0"/>
        <pt x="184" y="688" on="0"/>
        <pt x="310" y="742" on="0"/>
        <pt x="382" y="742" on="1"/>
        <pt x="457" y="742" on="0"/>
        <pt x="583" y="689" on="0"/>
        <pt x="674" y="590" on="0"/>
        <pt x="726" y="451" on="0"/>
      </contour>
    </TTGlyph>
    <TTGlyph name="Odieresis" xMin="38" yMin="-14" xMax="726" yMax="895">
      <contour>
        <pt x="425" y="840" on="1"/>
        <pt x="425" y="863" on="0"/>
        <pt x="458" y="895" on="0"/>
        <pt x="481" y="895" on="1"/>
        <pt x="504" y="895" on="0"/>
        <pt x="536" y="863" on="0"/>
        <pt x="536" y="840" on="1"/>
        <pt x="536" y="817" on="0"/>
        <pt x="504" y="785" on="0"/>
        <pt x="481" y="785" on="1"/>
        <pt x="458" y="785" on="0"/>
        <pt x="425" y="817" on="0"/>
      </contour>
      <contour>
        <pt x="231" y="840" on="1"/>
        <pt x="231" y="863" on="0"/>
        <pt x="263" y="895" on="0"/>
        <pt x="286" y="895" on="1"/>
        <pt x="309" y="895" on="0"/>
        <pt x="342" y="863" on="0"/>
        <pt x="342" y="840" on="1"/>
        <pt x="342" y="817" on="0"/>
        <pt x="309" y="785" on="0"/>
        <pt x="286" y="785" on="1"/>
        <pt x="263" y="785" on="0"/>
        <pt x="231" y="817" on="0"/>
      </contour>
      <contour>
        <pt x="610" y="364" on="1"/>
        <pt x="610" y="430" on="0"/>
        <pt x="576" y="539" on="0"/>
        <pt x="515" y="617" on="0"/>
        <pt x="431" y="660" on="0"/>
        <pt x="382" y="660" on="1"/>
        <pt x="332" y="660" on="0"/>
        <pt x="249" y="617" on="0"/>
        <pt x="188" y="539" on="0"/>
        <pt x="154" y="430" on="0"/>
        <pt x="154" y="364" on="1"/>
        <pt x="154" y="298" on="0"/>
        <pt x="188" y="189" on="0"/>
        <pt x="249" y="111" on="0"/>
        <pt x="333" y="67" on="0"/>
        <pt x="382" y="67" on="1"/>
        <pt x="431" y="67" on="0"/>
        <pt x="515" y="111" on="0"/>
        <pt x="576" y="189" on="0"/>
        <pt x="610" y="298" on="0"/>
      </contour>
      <contour>
        <pt x="726" y="364" on="1"/>
        <pt x="726" y="278" on="0"/>
        <pt x="672" y="139" on="0"/>
        <pt x="578" y="40" on="0"/>
        <pt x="453" y="-14" on="0"/>
        <pt x="382" y="-14" on="1"/>
        <pt x="308" y="-14" on="0"/>
        <pt x="182" y="39" on="0"/>
        <pt x="90" y="137" on="0"/>
        <pt x="38" y="277" on="0"/>
        <pt x="38" y="364" on="1"/>
        <pt x="38" y="449" on="0"/>
        <pt x="91" y="589" on="0"/>
        <pt x="184" y="688" on="0"/>
        <pt x="310" y="742" on="0"/>
        <pt x="382" y="742" on="1"/>
        <pt x="457" y="742" on="0"/>
        <pt x="583" y="689" on="0"/>
        <pt x="674" y="590" on="0"/>
        <pt x="726" y="451" on="0"/>
      </contour>
    </TTGlyph>
    <TTGlyph name="Ograve" xMin="38" yMin="-14" xMax="726" yMax="890">
      <contour>
        <pt x="301" y="797" on="1"/>
        <pt x="231" y="890" on="1"/>
        <pt x="337" y="890" on="1"/>
        <pt x="411" y="766" on="1"/>
        <pt x="398" y="763" on="0"/>
        <pt x="367" y="762" on="0"/>
        <pt x="337" y="768" on="0"/>
        <pt x="310" y="784" on="0"/>
      </contour>
      <contour>
        <pt x="610" y="364" on="1"/>
        <pt x="610" y="430" on="0"/>
        <pt x="576" y="539" on="0"/>
        <pt x="515" y="617" on="0"/>
        <pt x="431" y="660" on="0"/>
        <pt x="382" y="660" on="1"/>
        <pt x="333" y="660" on="0"/>
        <pt x="250" y="617" on="0"/>
        <pt x="189" y="539" on="0"/>
        <pt x="155" y="430" on="0"/>
        <pt x="155" y="364" on="1"/>
        <pt x="155" y="298" on="0"/>
        <pt x="189" y="189" on="0"/>
        <pt x="250" y="111" on="0"/>
        <pt x="333" y="67" on="0"/>
        <pt x="382" y="67" on="1"/>
        <pt x="431" y="67" on="0"/>
        <pt x="515" y="111" on="0"/>
        <pt x="576" y="189" on="0"/>
        <pt x="610" y="298" on="0"/>
      </contour>
      <contour>
        <pt x="726" y="364" on="1"/>
        <pt x="726" y="278" on="0"/>
        <pt x="672" y="139" on="0"/>
        <pt x="579" y="40" on="0"/>
        <pt x="453" y="-14" on="0"/>
        <pt x="382" y="-14" on="1"/>
        <pt x="308" y="-14" on="0"/>
        <pt x="182" y="39" on="0"/>
        <pt x="90" y="137" on="0"/>
        <pt x="38" y="277" on="0"/>
        <pt x="38" y="364" on="1"/>
        <pt x="38" y="449" on="0"/>
        <pt x="91" y="589" on="0"/>
        <pt x="184" y="688" on="0"/>
        <pt x="310" y="742" on="0"/>
        <pt x="382" y="742" on="1"/>
        <pt x="457" y="742" on="0"/>
        <pt x="583" y="689" on="0"/>
        <pt x="675" y="590" on="0"/>
        <pt x="726" y="451" on="0"/>
      </contour>
    </TTGlyph>
    <TTGlyph name="Oslash" xMin="38" yMin="-60" xMax="726" yMax="789">
      <contour>
        <pt x="612" y="364" on="1"/>
        <pt x="612" y="429" on="0"/>
        <pt x="577" y="536" on="0"/>
        <pt x="548" y="574" on="1"/>
        <pt x="289" y="136" on="1"/>
        <pt x="270" y="159" on="0"/>
        <pt x="249" y="223" on="0"/>
        <pt x="266" y="256" on="1"/>
        <pt x="490" y="630" on="1"/>
        <pt x="467" y="645" on="0"/>
        <pt x="411" y="662" on="0"/>
        <pt x="382" y="662" on="1"/>
        <pt x="332" y="662" on="0"/>
        <pt x="248" y="618" on="0"/>
        <pt x="187" y="540" on="0"/>
        <pt x="152" y="430" on="0"/>
        <pt x="152" y="364" on="1"/>
        <pt x="152" y="298" on="0"/>
        <pt x="187" y="189" on="0"/>
        <pt x="249" y="110" on="0"/>
        <pt x="333" y="66" on="0"/>
        <pt x="382" y="66" on="1"/>
        <pt x="431" y="66" on="0"/>
        <pt x="516" y="110" on="0"/>
        <pt x="577" y="189" on="0"/>
        <pt x="612" y="298" on="0"/>
      </contour>
      <contour>
        <pt x="675" y="789" on="1"/>
        <pt x="602" y="665" on="1"/>
        <pt x="660" y="615" on="0"/>
        <pt x="726" y="463" on="0"/>
        <pt x="726" y="364" on="1"/>
        <pt x="726" y="278" on="0"/>
        <pt x="672" y="139" on="0"/>
        <pt x="578" y="40" on="0"/>
        <pt x="453" y="-14" on="0"/>
        <pt x="382" y="-14" on="1"/>
        <pt x="299" y="-14" on="0"/>
        <pt x="228" y="20" on="1"/>
        <pt x="182" y="-60" on="1"/>
        <pt x="91" y="-60" on="1"/>
        <pt x="163" y="62" on="1"/>
        <pt x="104" y="111" on="0"/>
        <pt x="38" y="264" on="0"/>
        <pt x="38" y="364" on="1"/>
        <pt x="38" y="449" on="0"/>
        <pt x="91" y="589" on="0"/>
        <pt x="184" y="688" on="0"/>
        <pt x="310" y="742" on="0"/>
        <pt x="382" y="742" on="1"/>
        <pt x="467" y="742" on="0"/>
        <pt x="535" y="707" on="1"/>
        <pt x="584" y="789" on="1"/>
      </contour>
    </TTGlyph>
    <TTGlyph name="Otilde" xMin="38" yMin="-14" xMax="726" yMax="894">
      <contour>
        <pt x="298" y="777" on="1"/>
        <pt x="237" y="783" on="1"/>
        <pt x="239" y="839" on="0"/>
        <pt x="293" y="894" on="0"/>
        <pt x="329" y="894" on="1"/>
        <pt x="351" y="894" on="0"/>
        <pt x="382" y="877" on="0"/>
        <pt x="408" y="856" on="0"/>
        <pt x="432" y="839" on="0"/>
        <pt x="447" y="839" on="1"/>
        <pt x="461" y="839" on="0"/>
        <pt x="476" y="867" on="0"/>
        <pt x="478" y="893" on="1"/>
        <pt x="537" y="887" on="1"/>
        <pt x="535" y="855" on="0"/>
        <pt x="519" y="813" on="0"/>
        <pt x="494" y="787" on="0"/>
        <pt x="464" y="776" on="0"/>
        <pt x="450" y="776" on="1"/>
        <pt x="426" y="776" on="0"/>
        <pt x="393" y="793" on="0"/>
        <pt x="368" y="814" on="0"/>
        <pt x="346" y="831" on="0"/>
        <pt x="333" y="831" on="1"/>
        <pt x="321" y="831" on="0"/>
        <pt x="300" y="807" on="0"/>
      </contour>
      <contour>
        <pt x="610" y="364" on="1"/>
        <pt x="610" y="430" on="0"/>
        <pt x="576" y="539" on="0"/>
        <pt x="515" y="617" on="0"/>
        <pt x="431" y="660" on="0"/>
        <pt x="382" y="660" on="1"/>
        <pt x="332" y="660" on="0"/>
        <pt x="249" y="617" on="0"/>
        <pt x="188" y="539" on="0"/>
        <pt x="154" y="430" on="0"/>
        <pt x="154" y="364" on="1"/>
        <pt x="154" y="298" on="0"/>
        <pt x="188" y="189" on="0"/>
        <pt x="249" y="111" on="0"/>
        <pt x="333" y="67" on="0"/>
        <pt x="382" y="67" on="1"/>
        <pt x="431" y="67" on="0"/>
        <pt x="515" y="111" on="0"/>
        <pt x="576" y="189" on="0"/>
        <pt x="610" y="298" on="0"/>
      </contour>
      <contour>
        <pt x="726" y="364" on="1"/>
        <pt x="726" y="278" on="0"/>
        <pt x="672" y="139" on="0"/>
        <pt x="578" y="40" on="0"/>
        <pt x="453" y="-14" on="0"/>
        <pt x="382" y="-14" on="1"/>
        <pt x="308" y="-14" on="0"/>
        <pt x="182" y="39" on="0"/>
        <pt x="90" y="137" on="0"/>
        <pt x="38" y="277" on="0"/>
        <pt x="38" y="364" on="1"/>
        <pt x="38" y="449" on="0"/>
        <pt x="91" y="589" on="0"/>
        <pt x="184" y="688" on="0"/>
        <pt x="310" y="742" on="0"/>
        <pt x="382" y="742" on="1"/>
        <pt x="457" y="742" on="0"/>
        <pt x="583" y="689" on="0"/>
        <pt x="674" y="590" on="0"/>
        <pt x="726" y="451" on="0"/>
      </contour>
    </TTGlyph>
    <TTGlyph name="P" xMin="87" yMin="0" xMax="569" yMax="740">
      <contour>
        <pt x="569" y="518" on="1"/>
        <pt x="569" y="470" on="0"/>
        <pt x="530" y="392" on="0"/>
        <pt x="465" y="337" on="0"/>
        <pt x="381" y="304" on="0"/>
        <pt x="336" y="300" on="1"/>
        <pt x="314" y="298" on="0"/>
        <pt x="264" y="301" on="0"/>
        <pt x="236" y="309" on="1"/>
        <pt x="247" y="335" on="0"/>
        <pt x="291" y="377" on="0"/>
        <pt x="323" y="378" on="1"/>
        <pt x="347" y="379" on="0"/>
        <pt x="395" y="400" on="0"/>
        <pt x="432" y="438" on="0"/>
        <pt x="455" y="488" on="0"/>
        <pt x="455" y="518" on="1"/>
        <pt x="455" y="548" on="0"/>
        <pt x="431" y="600" on="0"/>
        <pt x="389" y="637" on="0"/>
        <pt x="332" y="659" on="0"/>
        <pt x="299" y="659" on="1"/>
        <pt x="271" y="659" on="0"/>
        <pt x="223" y="656" on="0"/>
        <pt x="196" y="653" on="1"/>
        <pt x="196" y="0" on="1"/>
        <pt x="87" y="1" on="1"/>
        <pt x="87" y="719" on="1"/>
        <pt x="119" y="725" on="0"/>
        <pt x="173" y="733" on="0"/>
        <pt x="222" y="738" on="0"/>
        <pt x="272" y="740" on="0"/>
        <pt x="299" y="740" on="1"/>
        <pt x="359" y="740" on="0"/>
        <pt x="459" y="706" on="0"/>
        <pt x="530" y="647" on="0"/>
        <pt x="569" y="566" on="0"/>
      </contour>
    </TTGlyph>
    <TTGlyph name="Q" xMin="50" yMin="-17" xMax="738" yMax="742">
      <contour>
        <pt x="648" y="115" on="1"/>
        <pt x="720" y="42" on="1"/>
        <pt x="660" y="-17" on="1"/>
        <pt x="413" y="235" on="1"/>
        <pt x="473" y="294" on="1"/>
        <pt x="567" y="197" on="1"/>
        <pt x="580" y="177" on="1"/>
        <pt x="587" y="202" on="1"/>
        <pt x="607" y="240" on="0"/>
        <pt x="621" y="323" on="0"/>
        <pt x="621" y="364" on="1"/>
        <pt x="621" y="430" on="0"/>
        <pt x="587" y="539" on="0"/>
        <pt x="527" y="617" on="0"/>
        <pt x="443" y="660" on="0"/>
        <pt x="394" y="660" on="1"/>
        <pt x="345" y="660" on="0"/>
        <pt x="261" y="617" on="0"/>
        <pt x="200" y="539" on="0"/>
        <pt x="166" y="430" on="0"/>
        <pt x="166" y="364" on="1"/>
        <pt x="166" y="299" on="0"/>
        <pt x="199" y="191" on="0"/>
        <pt x="258" y="112" on="0"/>
        <pt x="340" y="68" on="0"/>
        <pt x="389" y="68" on="1"/>
        <pt x="404" y="68" on="0"/>
        <pt x="429" y="71" on="0"/>
        <pt x="443" y="74" on="1"/>
        <pt x="471" y="79" on="0"/>
        <pt x="529" y="58" on="0"/>
        <pt x="546" y="40" on="1"/>
        <pt x="506" y="12" on="0"/>
        <pt x="428" y="-14" on="0"/>
        <pt x="389" y="-14" on="1"/>
        <pt x="315" y="-14" on="0"/>
        <pt x="191" y="40" on="0"/>
        <pt x="101" y="139" on="0"/>
        <pt x="50" y="279" on="0"/>
        <pt x="50" y="364" on="1"/>
        <pt x="50" y="449" on="0"/>
        <pt x="103" y="589" on="0"/>
        <pt x="196" y="688" on="0"/>
        <pt x="322" y="742" on="0"/>
        <pt x="394" y="742" on="1"/>
        <pt x="469" y="742" on="0"/>
        <pt x="595" y="689" on="0"/>
        <pt x="687" y="590" on="0"/>
        <pt x="738" y="451" on="0"/>
        <pt x="738" y="364" on="1"/>
        <pt x="738" y="295" on="0"/>
        <pt x="693" y="178" on="0"/>
      </contour>
    </TTGlyph>
    <TTGlyph name="R" xMin="87" yMin="0" xMax="598" yMax="741">
      <contour>
        <pt x="569" y="524" on="1"/>
        <pt x="569" y="464" on="0"/>
        <pt x="507" y="373" on="0"/>
        <pt x="456" y="347" on="1"/>
        <pt x="431" y="338" on="1"/>
        <pt x="474" y="317" on="0"/>
        <pt x="519" y="246" on="0"/>
        <pt x="549" y="155" on="0"/>
        <pt x="574" y="52" on="0"/>
        <pt x="598" y="0" on="1"/>
        <pt x="485" y="0" on="1"/>
        <pt x="465" y="42" on="0"/>
        <pt x="443" y="137" on="0"/>
        <pt x="416" y="224" on="0"/>
        <pt x="376" y="294" on="0"/>
        <pt x="340" y="311" on="1"/>
        <pt x="335" y="310" on="0"/>
        <pt x="326" y="310" on="0"/>
        <pt x="321" y="310" on="1"/>
        <pt x="302" y="309" on="0"/>
        <pt x="259" y="313" on="0"/>
        <pt x="236" y="319" on="1"/>
        <pt x="247" y="345" on="0"/>
        <pt x="291" y="387" on="0"/>
        <pt x="323" y="389" on="1"/>
        <pt x="347" y="390" on="0"/>
        <pt x="395" y="411" on="0"/>
        <pt x="432" y="447" on="0"/>
        <pt x="455" y="495" on="0"/>
        <pt x="455" y="524" on="1"/>
        <pt x="455" y="552" on="0"/>
        <pt x="430" y="602" on="0"/>
        <pt x="388" y="638" on="0"/>
        <pt x="331" y="659" on="0"/>
        <pt x="299" y="659" on="1"/>
        <pt x="271" y="659" on="0"/>
        <pt x="230" y="657" on="0"/>
        <pt x="196" y="651" on="1"/>
        <pt x="196" y="0" on="1"/>
        <pt x="87" y="0" on="1"/>
        <pt x="87" y="718" on="1"/>
        <pt x="119" y="724" on="0"/>
        <pt x="173" y="733" on="0"/>
        <pt x="222" y="738" on="0"/>
        <pt x="272" y="741" on="0"/>
        <pt x="299" y="741" on="1"/>
        <pt x="359" y="741" on="0"/>
        <pt x="458" y="708" on="0"/>
        <pt x="530" y="650" on="0"/>
        <pt x="569" y="570" on="0"/>
      </contour>
    </TTGlyph>
    <TTGlyph name="S" xMin="57" yMin="-12" xMax="512" yMax="740">
      <contour>
        <pt x="283" y="659" on="1"/>
        <pt x="230" y="659" on="0"/>
        <pt x="172" y="601" on="0"/>
        <pt x="172" y="560" on="1"/>
        <pt x="172" y="522" on="0"/>
        <pt x="222" y="469" on="0"/>
        <pt x="298" y="423" on="0"/>
        <pt x="386" y="378" on="0"/>
        <pt x="462" y="319" on="0"/>
        <pt x="512" y="240" on="0"/>
        <pt x="512" y="183" on="1"/>
        <pt x="512" y="142" on="0"/>
        <pt x="479" y="71" on="0"/>
        <pt x="417" y="19" on="0"/>
        <pt x="327" y="-12" on="0"/>
        <pt x="270" y="-12" on="1"/>
        <pt x="227" y="-12" on="0"/>
        <pt x="113" y="9" on="0"/>
        <pt x="57" y="36" on="1"/>
        <pt x="86" y="109" on="1"/>
        <pt x="134" y="87" on="0"/>
        <pt x="226" y="69" on="0"/>
        <pt x="262" y="69" on="1"/>
        <pt x="295" y="69" on="0"/>
        <pt x="347" y="87" on="0"/>
        <pt x="383" y="118" on="0"/>
        <pt x="403" y="160" on="0"/>
        <pt x="403" y="184" on="1"/>
        <pt x="403" y="225" on="0"/>
        <pt x="353" y="281" on="0"/>
        <pt x="278" y="326" on="0"/>
        <pt x="191" y="369" on="0"/>
        <pt x="116" y="424" on="0"/>
        <pt x="66" y="500" on="0"/>
        <pt x="66" y="556" on="1"/>
        <pt x="66" y="597" on="0"/>
        <pt x="97" y="665" on="0"/>
        <pt x="153" y="713" on="0"/>
        <pt x="229" y="740" on="0"/>
        <pt x="274" y="740" on="1"/>
        <pt x="318" y="740" on="0"/>
        <pt x="404" y="726" on="0"/>
        <pt x="459" y="709" on="1"/>
        <pt x="429" y="637" on="1"/>
        <pt x="385" y="650" on="0"/>
        <pt x="312" y="659" on="0"/>
      </contour>
    </TTGlyph>
    <TTGlyph name="Scaron" xMin="54" yMin="-12" xMax="510" yMax="891">
      <contour>
        <pt x="316" y="761" on="1"/>
        <pt x="245" y="761" on="1"/>
        <pt x="137" y="880" on="1"/>
        <pt x="195" y="891" on="1"/>
        <pt x="280" y="833" on="1"/>
        <pt x="365" y="891" on="1"/>
        <pt x="426" y="880" on="1"/>
      </contour>
      <contour>
        <pt x="281" y="659" on="1"/>
        <pt x="227" y="659" on="0"/>
        <pt x="170" y="601" on="0"/>
        <pt x="170" y="560" on="1"/>
        <pt x="170" y="522" on="0"/>
        <pt x="220" y="469" on="0"/>
        <pt x="296" y="423" on="0"/>
        <pt x="384" y="378" on="0"/>
        <pt x="460" y="319" on="0"/>
        <pt x="510" y="240" on="0"/>
        <pt x="510" y="183" on="1"/>
        <pt x="510" y="142" on="0"/>
        <pt x="477" y="71" on="0"/>
        <pt x="414" y="19" on="0"/>
        <pt x="324" y="-12" on="0"/>
        <pt x="267" y="-12" on="1"/>
        <pt x="224" y="-12" on="0"/>
        <pt x="111" y="9" on="0"/>
        <pt x="54" y="36" on="1"/>
        <pt x="84" y="109" on="1"/>
        <pt x="132" y="87" on="0"/>
        <pt x="224" y="69" on="0"/>
        <pt x="259" y="69" on="1"/>
        <pt x="325" y="69" on="0"/>
        <pt x="401" y="136" on="0"/>
        <pt x="401" y="184" on="1"/>
        <pt x="401" y="225" on="0"/>
        <pt x="351" y="281" on="0"/>
        <pt x="276" y="326" on="0"/>
        <pt x="189" y="369" on="0"/>
        <pt x="114" y="424" on="0"/>
        <pt x="64" y="500" on="0"/>
        <pt x="64" y="556" on="1"/>
        <pt x="64" y="597" on="0"/>
        <pt x="95" y="665" on="0"/>
        <pt x="151" y="713" on="0"/>
        <pt x="226" y="740" on="0"/>
        <pt x="271" y="740" on="1"/>
        <pt x="315" y="740" on="0"/>
        <pt x="402" y="726" on="0"/>
        <pt x="457" y="709" on="1"/>
        <pt x="427" y="637" on="1"/>
        <pt x="383" y="650" on="0"/>
        <pt x="310" y="659" on="0"/>
      </contour>
    </TTGlyph>
    <TTGlyph name="T" xMin="9" yMin="0" xMax="530" yMax="727">
      <contour>
        <pt x="214" y="646" on="1"/>
        <pt x="9" y="646" on="1"/>
        <pt x="9" y="727" on="1"/>
        <pt x="530" y="727" on="1"/>
        <pt x="530" y="646" on="1"/>
        <pt x="324" y="646" on="1"/>
        <pt x="324" y="0" on="1"/>
        <pt x="214" y="0" on="1"/>
      </contour>
    </TTGlyph>
    <TTGlyph name="Thorn" xMin="86" yMin="0" xMax="564" yMax="727">
      <contour>
        <pt x="564" y="363" on="1"/>
        <pt x="564" y="314" on="0"/>
        <pt x="525" y="236" on="0"/>
        <pt x="459" y="181" on="0"/>
        <pt x="375" y="148" on="0"/>
        <pt x="330" y="144" on="1"/>
        <pt x="308" y="142" on="0"/>
        <pt x="258" y="145" on="0"/>
        <pt x="230" y="153" on="1"/>
        <pt x="241" y="179" on="0"/>
        <pt x="285" y="221" on="0"/>
        <pt x="317" y="222" on="1"/>
        <pt x="341" y="223" on="0"/>
        <pt x="389" y="244" on="0"/>
        <pt x="426" y="282" on="0"/>
        <pt x="449" y="333" on="0"/>
        <pt x="449" y="363" on="1"/>
        <pt x="449" y="393" on="0"/>
        <pt x="425" y="445" on="0"/>
        <pt x="383" y="483" on="0"/>
        <pt x="326" y="505" on="0"/>
        <pt x="293" y="505" on="1"/>
        <pt x="265" y="505" on="0"/>
        <pt x="218" y="502" on="0"/>
        <pt x="191" y="499" on="1"/>
        <pt x="191" y="0" on="1"/>
        <pt x="86" y="0" on="1"/>
        <pt x="86" y="727" on="1"/>
        <pt x="191" y="727" on="1"/>
        <pt x="191" y="582" on="1"/>
        <pt x="216" y="584" on="0"/>
        <pt x="265" y="587" on="0"/>
        <pt x="293" y="587" on="1"/>
        <pt x="353" y="587" on="0"/>
        <pt x="453" y="553" on="0"/>
        <pt x="525" y="493" on="0"/>
        <pt x="564" y="411" on="0"/>
      </contour>
    </TTGlyph>
    <TTGlyph name="U" xMin="79" yMin="-14" xMax="630" yMax="727">
      <contour>
        <pt x="355" y="-14" on="1"/>
        <pt x="290" y="-14" on="0"/>
        <pt x="188" y="26" on="0"/>
        <pt x="117" y="100" on="0"/>
        <pt x="79" y="205" on="0"/>
        <pt x="79" y="271" on="1"/>
        <pt x="79" y="727" on="1"/>
        <pt x="187" y="727" on="1"/>
        <pt x="187" y="255" on="1"/>
        <pt x="187" y="212" on="0"/>
        <pt x="211" y="142" on="0"/>
        <pt x="256" y="93" on="0"/>
        <pt x="317" y="67" on="0"/>
        <pt x="355" y="67" on="1"/>
        <pt x="392" y="67" on="0"/>
        <pt x="454" y="93" on="0"/>
        <pt x="499" y="142" on="0"/>
        <pt x="523" y="212" on="0"/>
        <pt x="523" y="255" on="1"/>
        <pt x="523" y="727" on="1"/>
        <pt x="630" y="727" on="1"/>
        <pt x="630" y="271" on="1"/>
        <pt x="630" y="207" on="0"/>
        <pt x="590" y="102" on="0"/>
        <pt x="518" y="27" on="0"/>
        <pt x="417" y="-14" on="0"/>
      </contour>
    </TTGlyph>
    <TTGlyph name="Uacute" xMin="72" yMin="-14" xMax="622" yMax="890">
      <contour>
        <pt x="496" y="890" on="1"/>
        <pt x="413" y="797" on="1"/>
        <pt x="390" y="771" on="0"/>
        <pt x="326" y="759" on="0"/>
        <pt x="301" y="766" on="1"/>
        <pt x="389" y="890" on="1"/>
      </contour>
      <contour>
        <pt x="347" y="-14" on="1"/>
        <pt x="282" y="-14" on="0"/>
        <pt x="180" y="26" on="0"/>
        <pt x="109" y="100" on="0"/>
        <pt x="72" y="205" on="0"/>
        <pt x="72" y="271" on="1"/>
        <pt x="72" y="727" on="1"/>
        <pt x="179" y="727" on="1"/>
        <pt x="179" y="255" on="1"/>
        <pt x="179" y="212" on="0"/>
        <pt x="203" y="142" on="0"/>
        <pt x="248" y="93" on="0"/>
        <pt x="309" y="67" on="0"/>
        <pt x="347" y="67" on="1"/>
        <pt x="384" y="67" on="0"/>
        <pt x="446" y="93" on="0"/>
        <pt x="491" y="142" on="0"/>
        <pt x="515" y="212" on="0"/>
        <pt x="515" y="255" on="1"/>
        <pt x="515" y="727" on="1"/>
        <pt x="622" y="727" on="1"/>
        <pt x="622" y="271" on="1"/>
        <pt x="622" y="207" on="0"/>
        <pt x="582" y="102" on="0"/>
        <pt x="510" y="27" on="0"/>
        <pt x="409" y="-14" on="0"/>
      </contour>
    </TTGlyph>
    <TTGlyph name="Ucircumflex" xMin="72" yMin="-14" xMax="622" yMax="890">
      <contour>
        <pt x="311" y="890" on="1"/>
        <pt x="382" y="890" on="1"/>
        <pt x="492" y="771" on="1"/>
        <pt x="431" y="760" on="1"/>
        <pt x="346" y="818" on="1"/>
        <pt x="261" y="760" on="1"/>
        <pt x="203" y="771" on="1"/>
      </contour>
      <contour>
        <pt x="347" y="-14" on="1"/>
        <pt x="282" y="-14" on="0"/>
        <pt x="180" y="26" on="0"/>
        <pt x="109" y="100" on="0"/>
        <pt x="72" y="205" on="0"/>
        <pt x="72" y="271" on="1"/>
        <pt x="72" y="727" on="1"/>
        <pt x="179" y="727" on="1"/>
        <pt x="179" y="255" on="1"/>
        <pt x="179" y="212" on="0"/>
        <pt x="203" y="142" on="0"/>
        <pt x="248" y="93" on="0"/>
        <pt x="309" y="67" on="0"/>
        <pt x="347" y="67" on="1"/>
        <pt x="384" y="67" on="0"/>
        <pt x="446" y="93" on="0"/>
        <pt x="491" y="142" on="0"/>
        <pt x="515" y="212" on="0"/>
        <pt x="515" y="255" on="1"/>
        <pt x="515" y="727" on="1"/>
        <pt x="622" y="727" on="1"/>
        <pt x="622" y="271" on="1"/>
        <pt x="622" y="207" on="0"/>
        <pt x="582" y="102" on="0"/>
        <pt x="510" y="27" on="0"/>
        <pt x="409" y="-14" on="0"/>
      </contour>
    </TTGlyph>
    <TTGlyph name="Udieresis" xMin="71" yMin="-14" xMax="622" yMax="895">
      <contour>
        <pt x="389" y="840" on="1"/>
        <pt x="389" y="863" on="0"/>
        <pt x="422" y="895" on="0"/>
        <pt x="445" y="895" on="1"/>
        <pt x="468" y="895" on="0"/>
        <pt x="500" y="863" on="0"/>
        <pt x="500" y="840" on="1"/>
        <pt x="500" y="817" on="0"/>
        <pt x="468" y="785" on="0"/>
        <pt x="445" y="785" on="1"/>
        <pt x="422" y="785" on="0"/>
        <pt x="389" y="817" on="0"/>
      </contour>
      <contour>
        <pt x="195" y="840" on="1"/>
        <pt x="195" y="863" on="0"/>
        <pt x="227" y="895" on="0"/>
        <pt x="250" y="895" on="1"/>
        <pt x="273" y="895" on="0"/>
        <pt x="306" y="863" on="0"/>
        <pt x="306" y="840" on="1"/>
        <pt x="306" y="817" on="0"/>
        <pt x="273" y="785" on="0"/>
        <pt x="250" y="785" on="1"/>
        <pt x="227" y="785" on="0"/>
        <pt x="195" y="817" on="0"/>
      </contour>
      <contour>
        <pt x="347" y="-14" on="1"/>
        <pt x="282" y="-14" on="0"/>
        <pt x="180" y="26" on="0"/>
        <pt x="109" y="100" on="0"/>
        <pt x="71" y="205" on="0"/>
        <pt x="71" y="271" on="1"/>
        <pt x="71" y="727" on="1"/>
        <pt x="179" y="727" on="1"/>
        <pt x="179" y="255" on="1"/>
        <pt x="179" y="212" on="0"/>
        <pt x="203" y="142" on="0"/>
        <pt x="248" y="93" on="0"/>
        <pt x="309" y="67" on="0"/>
        <pt x="347" y="67" on="1"/>
        <pt x="384" y="67" on="0"/>
        <pt x="446" y="93" on="0"/>
        <pt x="490" y="142" on="0"/>
        <pt x="514" y="212" on="0"/>
        <pt x="514" y="255" on="1"/>
        <pt x="514" y="727" on="1"/>
        <pt x="622" y="727" on="1"/>
        <pt x="622" y="271" on="1"/>
        <pt x="622" y="207" on="0"/>
        <pt x="582" y="102" on="0"/>
        <pt x="510" y="27" on="0"/>
        <pt x="409" y="-14" on="0"/>
      </contour>
    </TTGlyph>
    <TTGlyph name="Ugrave" xMin="72" yMin="-14" xMax="622" yMax="890">
      <contour>
        <pt x="285" y="797" on="1"/>
        <pt x="216" y="890" on="1"/>
        <pt x="321" y="890" on="1"/>
        <pt x="395" y="766" on="1"/>
        <pt x="369" y="759" on="0"/>
        <pt x="305" y="771" on="0"/>
      </contour>
      <contour>
        <pt x="347" y="-14" on="1"/>
        <pt x="282" y="-14" on="0"/>
        <pt x="180" y="26" on="0"/>
        <pt x="110" y="100" on="0"/>
        <pt x="72" y="205" on="0"/>
        <pt x="72" y="271" on="1"/>
        <pt x="72" y="727" on="1"/>
        <pt x="180" y="727" on="1"/>
        <pt x="180" y="255" on="1"/>
        <pt x="180" y="212" on="0"/>
        <pt x="204" y="142" on="0"/>
        <pt x="248" y="93" on="0"/>
        <pt x="309" y="67" on="0"/>
        <pt x="347" y="67" on="1"/>
        <pt x="384" y="67" on="0"/>
        <pt x="446" y="93" on="0"/>
        <pt x="491" y="142" on="0"/>
        <pt x="515" y="212" on="0"/>
        <pt x="515" y="255" on="1"/>
        <pt x="515" y="727" on="1"/>
        <pt x="622" y="727" on="1"/>
        <pt x="622" y="271" on="1"/>
        <pt x="622" y="207" on="0"/>
        <pt x="582" y="102" on="0"/>
        <pt x="510" y="27" on="0"/>
        <pt x="409" y="-14" on="0"/>
      </contour>
    </TTGlyph>
    <TTGlyph name="V" xMin="12" yMin="0" xMax="633" yMax="727">
      <contour>
        <pt x="380" y="0" on="1"/>
        <pt x="267" y="0" on="1"/>
        <pt x="12" y="727" on="1"/>
        <pt x="129" y="727" on="1"/>
        <pt x="318" y="143" on="1"/>
        <pt x="325" y="109" on="1"/>
        <pt x="332" y="142" on="1"/>
        <pt x="520" y="727" on="1"/>
        <pt x="633" y="727" on="1"/>
      </contour>
    </TTGlyph>
    <TTGlyph name="W" xMin="24" yMin="0" xMax="974" yMax="727">
      <contour>
        <pt x="443" y="717" on="1"/>
        <pt x="561" y="717" on="1"/>
        <pt x="706" y="153" on="1"/>
        <pt x="716" y="102" on="1"/>
        <pt x="724" y="151" on="1"/>
        <pt x="868" y="727" on="1"/>
        <pt x="974" y="727" on="1"/>
        <pt x="776" y="0" on="1"/>
        <pt x="656" y="0" on="1"/>
        <pt x="509" y="557" on="1"/>
        <pt x="500" y="599" on="1"/>
        <pt x="492" y="559" on="1"/>
        <pt x="346" y="0" on="1"/>
        <pt x="222" y="0" on="1"/>
        <pt x="24" y="727" on="1"/>
        <pt x="132" y="727" on="1"/>
        <pt x="277" y="153" on="1"/>
        <pt x="285" y="102" on="1"/>
        <pt x="296" y="153" on="1"/>
      </contour>
    </TTGlyph>
    <TTGlyph name="X" xMin="33" yMin="0" xMax="602" yMax="727">
      <contour>
        <pt x="256" y="191" on="1"/>
        <pt x="150" y="0" on="1"/>
        <pt x="33" y="0" on="1"/>
        <pt x="232" y="329" on="1"/>
        <pt x="241" y="317" on="0"/>
        <pt x="258" y="284" on="0"/>
        <pt x="268" y="247" on="0"/>
        <pt x="266" y="209" on="0"/>
      </contour>
      <contour>
        <pt x="480" y="0" on="1"/>
        <pt x="45" y="727" on="1"/>
        <pt x="170" y="727" on="1"/>
        <pt x="310" y="470" on="1"/>
        <pt x="319" y="443" on="1"/>
        <pt x="327" y="470" on="1"/>
        <pt x="468" y="727" on="1"/>
        <pt x="589" y="727" on="1"/>
        <pt x="376" y="374" on="1"/>
        <pt x="602" y="0" on="1"/>
      </contour>
    </TTGlyph>
    <TTGlyph name="Y" xMin="27" yMin="0" xMax="625" yMax="727">
      <contour>
        <pt x="389" y="518" on="1"/>
        <pt x="506" y="727" on="1"/>
        <pt x="625" y="727" on="1"/>
        <pt x="411" y="376" on="1"/>
        <pt x="402" y="388" on="0"/>
        <pt x="385" y="421" on="0"/>
        <pt x="376" y="458" on="0"/>
        <pt x="378" y="498" on="0"/>
      </contour>
      <contour>
        <pt x="149" y="727" on="1"/>
        <pt x="383" y="338" on="1"/>
        <pt x="383" y="0" on="1"/>
        <pt x="277" y="0" on="1"/>
        <pt x="277" y="313" on="1"/>
        <pt x="27" y="727" on="1"/>
      </contour>
    </TTGlyph>
    <TTGlyph name="Yacute" xMin="21" yMin="0" xMax="619" yMax="890">
      <contour>
        <pt x="492" y="890" on="1"/>
        <pt x="409" y="797" on="1"/>
        <pt x="386" y="771" on="0"/>
        <pt x="322" y="759" on="0"/>
        <pt x="297" y="766" on="1"/>
        <pt x="385" y="890" on="1"/>
      </contour>
      <contour>
        <pt x="383" y="518" on="1"/>
        <pt x="500" y="727" on="1"/>
        <pt x="619" y="727" on="1"/>
        <pt x="406" y="376" on="1"/>
        <pt x="397" y="388" on="0"/>
        <pt x="379" y="421" on="0"/>
        <pt x="370" y="458" on="0"/>
        <pt x="372" y="498" on="0"/>
      </contour>
      <contour>
        <pt x="143" y="727" on="1"/>
        <pt x="377" y="338" on="1"/>
        <pt x="377" y="0" on="1"/>
        <pt x="271" y="0" on="1"/>
        <pt x="271" y="313" on="1"/>
        <pt x="21" y="727" on="1"/>
      </contour>
    </TTGlyph>
    <TTGlyph name="Ydieresis" xMin="21" yMin="0" xMax="618" yMax="895">
      <contour>
        <pt x="366" y="840" on="1"/>
        <pt x="366" y="863" on="0"/>
        <pt x="399" y="895" on="0"/>
        <pt x="422" y="895" on="1"/>
        <pt x="445" y="895" on="0"/>
        <pt x="477" y="863" on="0"/>
        <pt x="477" y="840" on="1"/>
        <pt x="477" y="817" on="0"/>
        <pt x="445" y="785" on="0"/>
        <pt x="422" y="785" on="1"/>
        <pt x="399" y="785" on="0"/>
        <pt x="366" y="817" on="0"/>
      </contour>
      <contour>
        <pt x="172" y="840" on="1"/>
        <pt x="172" y="863" on="0"/>
        <pt x="204" y="895" on="0"/>
        <pt x="227" y="895" on="1"/>
        <pt x="250" y="895" on="0"/>
        <pt x="283" y="863" on="0"/>
        <pt x="283" y="840" on="1"/>
        <pt x="283" y="817" on="0"/>
        <pt x="250" y="785" on="0"/>
        <pt x="227" y="785" on="1"/>
        <pt x="204" y="785" on="0"/>
        <pt x="172" y="817" on="0"/>
      </contour>
      <contour>
        <pt x="382" y="518" on="1"/>
        <pt x="499" y="727" on="1"/>
        <pt x="618" y="727" on="1"/>
        <pt x="405" y="376" on="1"/>
        <pt x="396" y="388" on="0"/>
        <pt x="378" y="421" on="0"/>
        <pt x="369" y="458" on="0"/>
        <pt x="371" y="498" on="0"/>
      </contour>
      <contour>
        <pt x="143" y="727" on="1"/>
        <pt x="376" y="338" on="1"/>
        <pt x="376" y="0" on="1"/>
        <pt x="270" y="0" on="1"/>
        <pt x="270" y="313" on="1"/>
        <pt x="21" y="727" on="1"/>
      </contour>
    </TTGlyph>
    <TTGlyph name="Z" xMin="74" yMin="0" xMax="604" yMax="727">
      <contour>
        <pt x="114" y="647" on="1"/>
        <pt x="114" y="727" on="1"/>
        <pt x="594" y="727" on="1"/>
        <pt x="594" y="683" on="1"/>
        <pt x="216" y="93" on="1"/>
        <pt x="201" y="78" on="1"/>
        <pt x="223" y="81" on="1"/>
        <pt x="604" y="81" on="1"/>
        <pt x="604" y="0" on="1"/>
        <pt x="74" y="0" on="1"/>
        <pt x="74" y="44" on="1"/>
        <pt x="451" y="633" on="1"/>
        <pt x="467" y="650" on="1"/>
        <pt x="443" y="647" on="1"/>
      </contour>
    </TTGlyph>
    <TTGlyph name="Zcaron" xMin="82" yMin="0" xMax="611" yMax="891">
      <contour>
        <pt x="399" y="761" on="1"/>
        <pt x="328" y="761" on="1"/>
        <pt x="220" y="880" on="1"/>
        <pt x="278" y="891" on="1"/>
        <pt x="363" y="833" on="1"/>
        <pt x="448" y="891" on="1"/>
        <pt x="509" y="880" on="1"/>
      </contour>
      <contour>
        <pt x="122" y="647" on="1"/>
        <pt x="122" y="727" on="1"/>
        <pt x="601" y="727" on="1"/>
        <pt x="601" y="683" on="1"/>
        <pt x="223" y="93" on="1"/>
        <pt x="208" y="78" on="1"/>
        <pt x="230" y="81" on="1"/>
        <pt x="611" y="81" on="1"/>
        <pt x="611" y="0" on="1"/>
        <pt x="82" y="0" on="1"/>
        <pt x="82" y="44" on="1"/>
        <pt x="459" y="633" on="1"/>
        <pt x="475" y="650" on="1"/>
        <pt x="451" y="647" on="1"/>
      </contour>
    </TTGlyph>
    <TTGlyph name="a" xMin="44" yMin="-11" xMax="478" yMax="527">
      <contour>
        <pt x="462" y="313" on="1"/>
        <pt x="462" y="171" on="1"/>
        <pt x="462" y="116" on="0"/>
        <pt x="469" y="33" on="0"/>
        <pt x="478" y="0" on="1"/>
        <pt x="400" y="0" on="1"/>
        <pt x="383" y="10" on="0"/>
        <pt x="363" y="49" on="0"/>
        <pt x="362" y="69" on="1"/>
        <pt x="351" y="52" on="1"/>
        <pt x="311" y="13" on="0"/>
        <pt x="246" y="-11" on="0"/>
        <pt x="208" y="-11" on="1"/>
        <pt x="170" y="-11" on="0"/>
        <pt x="109" y="12" on="0"/>
        <pt x="67" y="51" on="0"/>
        <pt x="44" y="104" on="0"/>
        <pt x="44" y="134" on="1"/>
        <pt x="44" y="170" on="0"/>
        <pt x="72" y="227" on="0"/>
        <pt x="137" y="269" on="0"/>
        <pt x="243" y="297" on="0"/>
        <pt x="320" y="305" on="1"/>
        <pt x="318" y="294" on="0"/>
        <pt x="310" y="268" on="0"/>
        <pt x="294" y="245" on="0"/>
        <pt x="268" y="227" on="0"/>
        <pt x="250" y="224" on="1"/>
        <pt x="192" y="214" on="0"/>
        <pt x="153" y="169" on="0"/>
        <pt x="153" y="142" on="1"/>
        <pt x="153" y="113" on="0"/>
        <pt x="195" y="70" on="0"/>
        <pt x="230" y="70" on="1"/>
        <pt x="262" y="70" on="0"/>
        <pt x="328" y="105" on="0"/>
        <pt x="356" y="142" on="1"/>
        <pt x="356" y="318" on="1"/>
        <pt x="356" y="375" on="0"/>
        <pt x="299" y="446" on="0"/>
        <pt x="235" y="446" on="1"/>
        <pt x="209" y="446" on="0"/>
        <pt x="154" y="436" on="0"/>
        <pt x="119" y="423" on="1"/>
        <pt x="93" y="492" on="1"/>
        <pt x="141" y="513" on="0"/>
        <pt x="221" y="527" on="0"/>
        <pt x="254" y="527" on="1"/>
        <pt x="354" y="527" on="0"/>
        <pt x="462" y="416" on="0"/>
      </contour>
    </TTGlyph>
    <TTGlyph name="aacute" xMin="39" yMin="-11" xMax="474" yMax="740">
      <contour>
        <pt x="458" y="313" on="1"/>
        <pt x="458" y="171" on="1"/>
        <pt x="458" y="116" on="0"/>
        <pt x="465" y="33" on="0"/>
        <pt x="474" y="0" on="1"/>
        <pt x="395" y="0" on="1"/>
        <pt x="378" y="10" on="0"/>
        <pt x="359" y="47" on="0"/>
        <pt x="357" y="67" on="1"/>
        <pt x="338" y="42" on="0"/>
        <pt x="299" y="12" on="0"/>
        <pt x="261" y="-5" on="0"/>
        <pt x="223" y="-11" on="0"/>
        <pt x="204" y="-11" on="1"/>
        <pt x="166" y="-11" on="0"/>
        <pt x="105" y="12" on="0"/>
        <pt x="62" y="51" on="0"/>
        <pt x="39" y="104" on="0"/>
        <pt x="39" y="134" on="1"/>
        <pt x="39" y="170" on="0"/>
        <pt x="67" y="227" on="0"/>
        <pt x="132" y="269" on="0"/>
        <pt x="238" y="297" on="0"/>
        <pt x="316" y="305" on="1"/>
        <pt x="314" y="294" on="0"/>
        <pt x="306" y="268" on="0"/>
        <pt x="289" y="245" on="0"/>
        <pt x="264" y="227" on="0"/>
        <pt x="245" y="224" on="1"/>
        <pt x="216" y="219" on="0"/>
        <pt x="179" y="202" on="0"/>
        <pt x="157" y="181" on="0"/>
        <pt x="149" y="155" on="0"/>
        <pt x="149" y="142" on="1"/>
        <pt x="149" y="113" on="0"/>
        <pt x="190" y="70" on="0"/>
        <pt x="225" y="70" on="1"/>
        <pt x="257" y="70" on="0"/>
        <pt x="323" y="105" on="0"/>
        <pt x="352" y="142" on="1"/>
        <pt x="352" y="318" on="1"/>
        <pt x="352" y="375" on="0"/>
        <pt x="294" y="446" on="0"/>
        <pt x="230" y="446" on="1"/>
        <pt x="204" y="446" on="0"/>
        <pt x="150" y="436" on="0"/>
        <pt x="114" y="423" on="1"/>
        <pt x="88" y="492" on="1"/>
        <pt x="136" y="513" on="0"/>
        <pt x="211" y="527" on="0"/>
        <pt x="245" y="527" on="1"/>
        <pt x="348" y="527" on="0"/>
        <pt x="458" y="416" on="0"/>
      </contour>
      <contour>
        <pt x="410" y="740" on="1"/>
        <pt x="325" y="635" on="1"/>
        <pt x="302" y="607" on="0"/>
        <pt x="238" y="595" on="0"/>
        <pt x="213" y="602" on="1"/>
        <pt x="301" y="740" on="1"/>
      </contour>
    </TTGlyph>
    <TTGlyph name="acircumflex" xMin="40" yMin="-11" xMax="475" yMax="743">
      <contour>
        <pt x="459" y="313" on="1"/>
        <pt x="459" y="171" on="1"/>
        <pt x="459" y="116" on="0"/>
        <pt x="466" y="33" on="0"/>
        <pt x="475" y="0" on="1"/>
        <pt x="396" y="0" on="1"/>
        <pt x="379" y="10" on="0"/>
        <pt x="360" y="47" on="0"/>
        <pt x="358" y="67" on="1"/>
        <pt x="338" y="42" on="0"/>
        <pt x="300" y="12" on="0"/>
        <pt x="261" y="-5" on="0"/>
        <pt x="223" y="-11" on="0"/>
        <pt x="204" y="-11" on="1"/>
        <pt x="166" y="-11" on="0"/>
        <pt x="105" y="12" on="0"/>
        <pt x="63" y="51" on="0"/>
        <pt x="40" y="104" on="0"/>
        <pt x="40" y="134" on="1"/>
        <pt x="40" y="170" on="0"/>
        <pt x="68" y="227" on="0"/>
        <pt x="133" y="269" on="0"/>
        <pt x="239" y="297" on="0"/>
        <pt x="316" y="305" on="1"/>
        <pt x="314" y="294" on="0"/>
        <pt x="306" y="268" on="0"/>
        <pt x="289" y="245" on="0"/>
        <pt x="264" y="227" on="0"/>
        <pt x="245" y="224" on="1"/>
        <pt x="188" y="214" on="0"/>
        <pt x="149" y="169" on="0"/>
        <pt x="149" y="142" on="1"/>
        <pt x="149" y="113" on="0"/>
        <pt x="191" y="70" on="0"/>
        <pt x="226" y="70" on="1"/>
        <pt x="258" y="70" on="0"/>
        <pt x="323" y="105" on="0"/>
        <pt x="352" y="142" on="1"/>
        <pt x="352" y="318" on="1"/>
        <pt x="352" y="375" on="0"/>
        <pt x="295" y="446" on="0"/>
        <pt x="231" y="446" on="1"/>
        <pt x="205" y="446" on="0"/>
        <pt x="150" y="436" on="0"/>
        <pt x="115" y="423" on="1"/>
        <pt x="88" y="492" on="1"/>
        <pt x="136" y="513" on="0"/>
        <pt x="212" y="527" on="0"/>
        <pt x="246" y="527" on="1"/>
        <pt x="349" y="527" on="0"/>
        <pt x="459" y="416" on="0"/>
      </contour>
      <contour>
        <pt x="231" y="743" on="1"/>
        <pt x="302" y="743" on="1"/>
        <pt x="412" y="599" on="1"/>
        <pt x="351" y="589" on="1"/>
        <pt x="266" y="669" on="1"/>
        <pt x="181" y="588" on="1"/>
        <pt x="123" y="599" on="1"/>
      </contour>
    </TTGlyph>
    <TTGlyph name="acute" xMin="65" yMin="595" xMax="262" yMax="740">
      <contour>
        <pt x="262" y="740" on="1"/>
        <pt x="177" y="635" on="1"/>
        <pt x="154" y="607" on="0"/>
        <pt x="90" y="595" on="0"/>
        <pt x="65" y="602" on="1"/>
        <pt x="153" y="740" on="1"/>
      </contour>
    </TTGlyph>
    <TTGlyph name="adieresis" xMin="40" yMin="-11" xMax="475" yMax="725">
      <contour>
        <pt x="459" y="313" on="1"/>
        <pt x="459" y="171" on="1"/>
        <pt x="459" y="116" on="0"/>
        <pt x="466" y="33" on="0"/>
        <pt x="475" y="0" on="1"/>
        <pt x="396" y="0" on="1"/>
        <pt x="379" y="10" on="0"/>
        <pt x="360" y="47" on="0"/>
        <pt x="358" y="67" on="1"/>
        <pt x="339" y="42" on="0"/>
        <pt x="300" y="12" on="0"/>
        <pt x="262" y="-5" on="0"/>
        <pt x="224" y="-11" on="0"/>
        <pt x="205" y="-11" on="1"/>
        <pt x="167" y="-11" on="0"/>
        <pt x="106" y="12" on="0"/>
        <pt x="63" y="51" on="0"/>
        <pt x="40" y="104" on="0"/>
        <pt x="40" y="134" on="1"/>
        <pt x="40" y="170" on="0"/>
        <pt x="68" y="227" on="0"/>
        <pt x="133" y="269" on="0"/>
        <pt x="239" y="297" on="0"/>
        <pt x="317" y="305" on="1"/>
        <pt x="315" y="294" on="0"/>
        <pt x="307" y="268" on="0"/>
        <pt x="290" y="245" on="0"/>
        <pt x="265" y="227" on="0"/>
        <pt x="246" y="224" on="1"/>
        <pt x="217" y="219" on="0"/>
        <pt x="180" y="202" on="0"/>
        <pt x="158" y="181" on="0"/>
        <pt x="150" y="155" on="0"/>
        <pt x="150" y="142" on="1"/>
        <pt x="150" y="113" on="0"/>
        <pt x="191" y="70" on="0"/>
        <pt x="226" y="70" on="1"/>
        <pt x="258" y="70" on="0"/>
        <pt x="324" y="105" on="0"/>
        <pt x="353" y="142" on="1"/>
        <pt x="353" y="318" on="1"/>
        <pt x="353" y="375" on="0"/>
        <pt x="295" y="446" on="0"/>
        <pt x="231" y="446" on="1"/>
        <pt x="205" y="446" on="0"/>
        <pt x="151" y="436" on="0"/>
        <pt x="115" y="423" on="1"/>
        <pt x="89" y="492" on="1"/>
        <pt x="137" y="513" on="0"/>
        <pt x="212" y="527" on="0"/>
        <pt x="246" y="527" on="1"/>
        <pt x="349" y="527" on="0"/>
        <pt x="459" y="416" on="0"/>
      </contour>
      <contour>
        <pt x="309" y="670" on="1"/>
        <pt x="309" y="693" on="0"/>
        <pt x="342" y="725" on="0"/>
        <pt x="365" y="725" on="1"/>
        <pt x="388" y="725" on="0"/>
        <pt x="420" y="693" on="0"/>
        <pt x="420" y="670" on="1"/>
        <pt x="420" y="647" on="0"/>
        <pt x="388" y="615" on="0"/>
        <pt x="365" y="615" on="1"/>
        <pt x="342" y="615" on="0"/>
        <pt x="309" y="647" on="0"/>
      </contour>
      <contour>
        <pt x="115" y="670" on="1"/>
        <pt x="115" y="693" on="0"/>
        <pt x="147" y="725" on="0"/>
        <pt x="170" y="725" on="1"/>
        <pt x="193" y="725" on="0"/>
        <pt x="226" y="693" on="0"/>
        <pt x="226" y="670" on="1"/>
        <pt x="226" y="647" on="0"/>
        <pt x="193" y="615" on="0"/>
        <pt x="170" y="615" on="1"/>
        <pt x="147" y="615" on="0"/>
        <pt x="115" y="647" on="0"/>
      </contour>
    </TTGlyph>
    <TTGlyph name="ae" xMin="40" yMin="-11" xMax="800" yMax="528">
      <contour>
        <pt x="578" y="317" on="1"/>
        <pt x="694" y="317" on="1"/>
        <pt x="697" y="344" on="0"/>
        <pt x="685" y="392" on="0"/>
        <pt x="657" y="428" on="0"/>
        <pt x="617" y="449" on="0"/>
        <pt x="593" y="449" on="1"/>
        <pt x="565" y="449" on="0"/>
        <pt x="516" y="425" on="0"/>
        <pt x="480" y="379" on="0"/>
        <pt x="459" y="310" on="0"/>
        <pt x="459" y="265" on="1"/>
        <pt x="459" y="221" on="0"/>
        <pt x="482" y="149" on="0"/>
        <pt x="522" y="98" on="0"/>
        <pt x="579" y="70" on="0"/>
        <pt x="612" y="70" on="1"/>
        <pt x="647" y="70" on="0"/>
        <pt x="710" y="85" on="0"/>
        <pt x="753" y="106" on="1"/>
        <pt x="781" y="33" on="1"/>
        <pt x="731" y="7" on="0"/>
        <pt x="640" y="-11" on="0"/>
        <pt x="601" y="-11" on="1"/>
        <pt x="569" y="-11" on="0"/>
        <pt x="508" y="11" on="0"/>
        <pt x="456" y="49" on="0"/>
        <pt x="418" y="100" on="0"/>
        <pt x="408" y="128" on="1"/>
        <pt x="396" y="95" on="0"/>
        <pt x="356" y="43" on="0"/>
        <pt x="304" y="7" on="0"/>
        <pt x="244" y="-11" on="0"/>
        <pt x="212" y="-11" on="1"/>
        <pt x="133" y="-11" on="0"/>
        <pt x="40" y="70" on="0"/>
        <pt x="40" y="134" on="1"/>
        <pt x="40" y="170" on="0"/>
        <pt x="68" y="227" on="0"/>
        <pt x="133" y="269" on="0"/>
        <pt x="239" y="297" on="0"/>
        <pt x="317" y="305" on="1"/>
        <pt x="315" y="295" on="0"/>
        <pt x="308" y="272" on="0"/>
        <pt x="294" y="250" on="0"/>
        <pt x="272" y="232" on="0"/>
        <pt x="256" y="228" on="1"/>
        <pt x="226" y="218" on="0"/>
        <pt x="186" y="202" on="0"/>
        <pt x="161" y="183" on="0"/>
        <pt x="150" y="160" on="0"/>
        <pt x="150" y="142" on="1"/>
        <pt x="150" y="113" on="0"/>
        <pt x="191" y="70" on="0"/>
        <pt x="226" y="70" on="1"/>
        <pt x="286" y="70" on="0"/>
        <pt x="353" y="172" on="0"/>
        <pt x="353" y="263" on="1"/>
        <pt x="353" y="318" on="1"/>
        <pt x="353" y="375" on="0"/>
        <pt x="295" y="446" on="0"/>
        <pt x="231" y="446" on="1"/>
        <pt x="205" y="446" on="0"/>
        <pt x="151" y="436" on="0"/>
        <pt x="115" y="423" on="1"/>
        <pt x="89" y="492" on="1"/>
        <pt x="137" y="513" on="0"/>
        <pt x="217" y="527" on="0"/>
        <pt x="251" y="527" on="1"/>
        <pt x="306" y="527" on="0"/>
        <pt x="393" y="469" on="0"/>
        <pt x="416" y="419" on="1"/>
        <pt x="429" y="443" on="0"/>
        <pt x="469" y="483" on="0"/>
        <pt x="518" y="512" on="0"/>
        <pt x="574" y="528" on="0"/>
        <pt x="603" y="528" on="1"/>
        <pt x="655" y="528" on="0"/>
        <pt x="738" y="482" on="0"/>
        <pt x="788" y="405" on="0"/>
        <pt x="800" y="303" on="0"/>
        <pt x="782" y="246" on="1"/>
        <pt x="495" y="246" on="1"/>
        <pt x="506" y="276" on="0"/>
        <pt x="545" y="317" on="0"/>
      </contour>
    </TTGlyph>
    <TTGlyph name="agrave" xMin="40" yMin="-11" xMax="474" yMax="740">
      <contour>
        <pt x="458" y="313" on="1"/>
        <pt x="458" y="171" on="1"/>
        <pt x="458" y="116" on="0"/>
        <pt x="465" y="33" on="0"/>
        <pt x="474" y="0" on="1"/>
        <pt x="396" y="0" on="1"/>
        <pt x="379" y="10" on="0"/>
        <pt x="360" y="47" on="0"/>
        <pt x="358" y="67" on="1"/>
        <pt x="338" y="42" on="0"/>
        <pt x="300" y="12" on="0"/>
        <pt x="261" y="-5" on="0"/>
        <pt x="223" y="-11" on="0"/>
        <pt x="204" y="-11" on="1"/>
        <pt x="166" y="-11" on="0"/>
        <pt x="105" y="12" on="0"/>
        <pt x="63" y="51" on="0"/>
        <pt x="40" y="104" on="0"/>
        <pt x="40" y="134" on="1"/>
        <pt x="40" y="170" on="0"/>
        <pt x="68" y="227" on="0"/>
        <pt x="133" y="269" on="0"/>
        <pt x="239" y="297" on="0"/>
        <pt x="316" y="305" on="1"/>
        <pt x="314" y="294" on="0"/>
        <pt x="306" y="268" on="0"/>
        <pt x="289" y="245" on="0"/>
        <pt x="264" y="227" on="0"/>
        <pt x="245" y="224" on="1"/>
        <pt x="188" y="214" on="0"/>
        <pt x="149" y="169" on="0"/>
        <pt x="149" y="142" on="1"/>
        <pt x="149" y="113" on="0"/>
        <pt x="191" y="70" on="0"/>
        <pt x="226" y="70" on="1"/>
        <pt x="258" y="70" on="0"/>
        <pt x="323" y="105" on="0"/>
        <pt x="352" y="142" on="1"/>
        <pt x="352" y="318" on="1"/>
        <pt x="352" y="375" on="0"/>
        <pt x="295" y="446" on="0"/>
        <pt x="231" y="446" on="1"/>
        <pt x="205" y="446" on="0"/>
        <pt x="150" y="436" on="0"/>
        <pt x="115" y="423" on="1"/>
        <pt x="88" y="492" on="1"/>
        <pt x="136" y="513" on="0"/>
        <pt x="212" y="527" on="0"/>
        <pt x="246" y="527" on="1"/>
        <pt x="349" y="527" on="0"/>
        <pt x="458" y="416" on="0"/>
      </contour>
      <contour>
        <pt x="190" y="636" on="1"/>
        <pt x="120" y="740" on="1"/>
        <pt x="227" y="740" on="1"/>
        <pt x="300" y="602" on="1"/>
        <pt x="274" y="596" on="0"/>
        <pt x="213" y="609" on="0"/>
      </contour>
    </TTGlyph>
    <TTGlyph name="ampersand" xMin="119" yMin="-11" xMax="719" yMax="737">
      <contour>
        <pt x="393" y="78" on="1"/>
        <pt x="426" y="86" on="0"/>
        <pt x="479" y="69" on="0"/>
        <pt x="502" y="48" on="1"/>
        <pt x="467" y="20" on="0"/>
        <pt x="387" y="-11" on="0"/>
        <pt x="335" y="-11" on="1"/>
        <pt x="284" y="-11" on="0"/>
        <pt x="204" y="25" on="0"/>
        <pt x="149" y="85" on="0"/>
        <pt x="119" y="165" on="0"/>
        <pt x="119" y="209" on="1"/>
        <pt x="119" y="277" on="0"/>
        <pt x="189" y="379" on="0"/>
        <pt x="238" y="416" on="1"/>
        <pt x="209" y="458" on="0"/>
        <pt x="184" y="526" on="0"/>
        <pt x="184" y="559" on="1"/>
        <pt x="184" y="598" on="0"/>
        <pt x="213" y="664" on="0"/>
        <pt x="265" y="711" on="0"/>
        <pt x="340" y="737" on="0"/>
        <pt x="387" y="737" on="1"/>
        <pt x="420" y="737" on="0"/>
        <pt x="499" y="720" on="0"/>
        <pt x="534" y="703" on="1"/>
        <pt x="508" y="632" on="1"/>
        <pt x="480" y="644" on="0"/>
        <pt x="412" y="656" on="0"/>
        <pt x="385" y="656" on="1"/>
        <pt x="340" y="656" on="0"/>
        <pt x="282" y="606" on="0"/>
        <pt x="282" y="568" on="1"/>
        <pt x="282" y="546" on="0"/>
        <pt x="294" y="508" on="0"/>
        <pt x="318" y="469" on="0"/>
        <pt x="351" y="428" on="0"/>
        <pt x="372" y="404" on="1"/>
        <pt x="535" y="212" on="1"/>
        <pt x="555" y="254" on="0"/>
        <pt x="583" y="331" on="0"/>
        <pt x="591" y="379" on="1"/>
        <pt x="675" y="379" on="1"/>
        <pt x="661" y="313" on="0"/>
        <pt x="623" y="197" on="0"/>
        <pt x="592" y="146" on="1"/>
        <pt x="719" y="0" on="1"/>
        <pt x="589" y="0" on="1"/>
        <pt x="318" y="316" on="1"/>
        <pt x="289" y="353" on="1"/>
        <pt x="263" y="325" on="0"/>
        <pt x="227" y="266" on="0"/>
        <pt x="227" y="222" on="1"/>
        <pt x="227" y="155" on="0"/>
        <pt x="290" y="70" on="0"/>
        <pt x="350" y="70" on="1"/>
        <pt x="361" y="70" on="0"/>
        <pt x="380" y="74" on="0"/>
      </contour>
    </TTGlyph>
    <TTGlyph name="aring" xMin="40" yMin="-11" xMax="475" yMax="748">
      <contour>
        <pt x="267" y="610" on="1"/>
        <pt x="289" y="610" on="0"/>
        <pt x="313" y="638" on="0"/>
        <pt x="313" y="658" on="1"/>
        <pt x="313" y="678" on="0"/>
        <pt x="289" y="706" on="0"/>
        <pt x="267" y="706" on="1"/>
        <pt x="247" y="706" on="0"/>
        <pt x="223" y="678" on="0"/>
        <pt x="223" y="656" on="1"/>
        <pt x="223" y="639" on="0"/>
        <pt x="247" y="610" on="0"/>
      </contour>
      <contour>
        <pt x="267" y="568" on="1"/>
        <pt x="222" y="568" on="0"/>
        <pt x="166" y="618" on="0"/>
        <pt x="166" y="656" on="1"/>
        <pt x="166" y="696" on="0"/>
        <pt x="223" y="748" on="0"/>
        <pt x="268" y="748" on="1"/>
        <pt x="313" y="748" on="0"/>
        <pt x="368" y="698" on="0"/>
        <pt x="368" y="657" on="1"/>
        <pt x="368" y="618" on="0"/>
        <pt x="310" y="568" on="0"/>
      </contour>
      <contour>
        <pt x="459" y="313" on="1"/>
        <pt x="459" y="171" on="1"/>
        <pt x="459" y="116" on="0"/>
        <pt x="466" y="33" on="0"/>
        <pt x="475" y="0" on="1"/>
        <pt x="396" y="0" on="1"/>
        <pt x="379" y="10" on="0"/>
        <pt x="360" y="47" on="0"/>
        <pt x="358" y="67" on="1"/>
        <pt x="339" y="42" on="0"/>
        <pt x="300" y="12" on="0"/>
        <pt x="262" y="-5" on="0"/>
        <pt x="224" y="-11" on="0"/>
        <pt x="205" y="-11" on="1"/>
        <pt x="167" y="-11" on="0"/>
        <pt x="106" y="12" on="0"/>
        <pt x="63" y="51" on="0"/>
        <pt x="40" y="104" on="0"/>
        <pt x="40" y="134" on="1"/>
        <pt x="40" y="170" on="0"/>
        <pt x="68" y="227" on="0"/>
        <pt x="133" y="269" on="0"/>
        <pt x="239" y="297" on="0"/>
        <pt x="317" y="305" on="1"/>
        <pt x="315" y="294" on="0"/>
        <pt x="307" y="268" on="0"/>
        <pt x="290" y="245" on="0"/>
        <pt x="265" y="227" on="0"/>
        <pt x="246" y="224" on="1"/>
        <pt x="217" y="219" on="0"/>
        <pt x="180" y="202" on="0"/>
        <pt x="158" y="181" on="0"/>
        <pt x="150" y="155" on="0"/>
        <pt x="150" y="142" on="1"/>
        <pt x="150" y="113" on="0"/>
        <pt x="191" y="70" on="0"/>
        <pt x="226" y="70" on="1"/>
        <pt x="258" y="70" on="0"/>
        <pt x="324" y="105" on="0"/>
        <pt x="353" y="142" on="1"/>
        <pt x="353" y="318" on="1"/>
        <pt x="353" y="375" on="0"/>
        <pt x="295" y="446" on="0"/>
        <pt x="231" y="446" on="1"/>
        <pt x="205" y="446" on="0"/>
        <pt x="151" y="436" on="0"/>
        <pt x="115" y="423" on="1"/>
        <pt x="89" y="492" on="1"/>
        <pt x="137" y="513" on="0"/>
        <pt x="217" y="527" on="0"/>
        <pt x="251" y="527" on="1"/>
        <pt x="351" y="527" on="0"/>
        <pt x="459" y="416" on="0"/>
      </contour>
    </TTGlyph>
    <TTGlyph name="asciicircum" xMin="75" yMin="210" xMax="556" yMax="727">
      <contour>
        <pt x="310" y="569" on="1"/>
        <pt x="169" y="210" on="1"/>
        <pt x="75" y="210" on="1"/>
        <pt x="283" y="727" on="1"/>
        <pt x="348" y="727" on="1"/>
        <pt x="556" y="210" on="1"/>
        <pt x="464" y="210" on="1"/>
        <pt x="340" y="525" on="1"/>
        <pt x="335" y="536" on="0"/>
        <pt x="327" y="558" on="0"/>
        <pt x="322" y="569" on="1"/>
        <pt x="316" y="597" on="1"/>
      </contour>
    </TTGlyph>
    <TTGlyph name="asciitilde" xMin="63" yMin="226" xMax="569" yMax="386">
      <contour>
        <pt x="154" y="228" on="1"/>
        <pt x="63" y="236" on="1"/>
        <pt x="64" y="273" on="0"/>
        <pt x="89" y="330" on="0"/>
        <pt x="130" y="367" on="0"/>
        <pt x="184" y="386" on="0"/>
        <pt x="215" y="386" on="1"/>
        <pt x="249" y="386" on="0"/>
        <pt x="302" y="361" on="0"/>
        <pt x="349" y="331" on="0"/>
        <pt x="397" y="306" on="0"/>
        <pt x="426" y="306" on="1"/>
        <pt x="449" y="306" on="0"/>
        <pt x="475" y="349" on="0"/>
        <pt x="478" y="384" on="1"/>
        <pt x="569" y="376" on="1"/>
        <pt x="566" y="334" on="0"/>
        <pt x="541" y="276" on="0"/>
        <pt x="501" y="242" on="0"/>
        <pt x="450" y="226" on="0"/>
        <pt x="422" y="226" on="1"/>
        <pt x="385" y="226" on="0"/>
        <pt x="331" y="251" on="0"/>
        <pt x="284" y="281" on="0"/>
        <pt x="240" y="307" on="0"/>
        <pt x="213" y="307" on="1"/>
        <pt x="191" y="307" on="0"/>
        <pt x="157" y="267" on="0"/>
      </contour>
    </TTGlyph>
    <TTGlyph name="asterisk" xMin="51" yMin="352" xMax="450" yMax="740">
      <contour>
        <pt x="250" y="590" on="1"/>
        <pt x="314" y="740" on="1"/>
        <pt x="388" y="697" on="1"/>
        <pt x="362" y="663" on="0"/>
        <pt x="327" y="618" on="0"/>
        <pt x="305" y="589" on="0"/>
        <pt x="293" y="573" on="0"/>
        <pt x="289" y="568" on="1"/>
        <pt x="450" y="588" on="1"/>
        <pt x="450" y="503" on="1"/>
        <pt x="407" y="508" on="0"/>
        <pt x="350" y="515" on="0"/>
        <pt x="314" y="519" on="0"/>
        <pt x="294" y="522" on="0"/>
        <pt x="288" y="523" on="1"/>
        <pt x="387" y="394" on="1"/>
        <pt x="313" y="352" on="1"/>
        <pt x="251" y="502" on="1"/>
        <pt x="188" y="352" on="1"/>
        <pt x="114" y="394" on="1"/>
        <pt x="212" y="524" on="1"/>
        <pt x="51" y="503" on="1"/>
        <pt x="51" y="589" on="1"/>
        <pt x="212" y="569" on="1"/>
        <pt x="112" y="697" on="1"/>
        <pt x="186" y="740" on="1"/>
      </contour>
    </TTGlyph>
    <TTGlyph name="at" xMin="82" yMin="-125" xMax="820" yMax="641">
      <contour>
        <pt x="623" y="149" on="1"/>
        <pt x="622" y="143" on="0"/>
        <pt x="622" y="131" on="0"/>
        <pt x="621" y="126" on="1"/>
        <pt x="625" y="128" on="0"/>
        <pt x="633" y="136" on="0"/>
        <pt x="636" y="138" on="1"/>
        <pt x="692" y="174" on="0"/>
        <pt x="739" y="264" on="0"/>
        <pt x="739" y="317" on="1"/>
        <pt x="739" y="378" on="0"/>
        <pt x="699" y="474" on="0"/>
        <pt x="627" y="540" on="0"/>
        <pt x="524" y="575" on="0"/>
        <pt x="461" y="575" on="1"/>
        <pt x="397" y="575" on="0"/>
        <pt x="288" y="534" on="0"/>
        <pt x="209" y="454" on="0"/>
        <pt x="164" y="335" on="0"/>
        <pt x="164" y="257" on="1"/>
        <pt x="164" y="179" on="0"/>
        <pt x="208" y="61" on="0"/>
        <pt x="285" y="-19" on="0"/>
        <pt x="388" y="-59" on="0"/>
        <pt x="447" y="-59" on="1"/>
        <pt x="469" y="-59" on="0"/>
        <pt x="509" y="-57" on="0"/>
        <pt x="553" y="-50" on="0"/>
        <pt x="602" y="-38" on="0"/>
        <pt x="633" y="-28" on="1"/>
        <pt x="656" y="-90" on="1"/>
        <pt x="620" y="-101" on="0"/>
        <pt x="565" y="-115" on="0"/>
        <pt x="517" y="-122" on="0"/>
        <pt x="472" y="-125" on="0"/>
        <pt x="447" y="-125" on="1"/>
        <pt x="370" y="-125" on="0"/>
        <pt x="237" y="-81" on="0"/>
        <pt x="139" y="12" on="0"/>
        <pt x="82" y="156" on="0"/>
        <pt x="82" y="257" on="1"/>
        <pt x="82" y="350" on="0"/>
        <pt x="144" y="494" on="0"/>
        <pt x="249" y="591" on="0"/>
        <pt x="386" y="641" on="0"/>
        <pt x="462" y="641" on="1"/>
        <pt x="538" y="641" on="0"/>
        <pt x="669" y="598" on="0"/>
        <pt x="765" y="515" on="0"/>
        <pt x="820" y="394" on="0"/>
        <pt x="820" y="317" on="1"/>
        <pt x="820" y="265" on="0"/>
        <pt x="784" y="178" on="0"/>
        <pt x="719" y="111" on="0"/>
        <pt x="629" y="66" on="0"/>
        <pt x="575" y="56" on="1"/>
        <pt x="564" y="62" on="0"/>
        <pt x="553" y="81" on="0"/>
        <pt x="548" y="94" on="1"/>
        <pt x="546" y="113" on="1"/>
        <pt x="536" y="93" on="1"/>
        <pt x="507" y="64" on="0"/>
        <pt x="454" y="47" on="0"/>
        <pt x="427" y="47" on="1"/>
        <pt x="364" y="47" on="0"/>
        <pt x="291" y="108" on="0"/>
        <pt x="291" y="158" on="1"/>
        <pt x="291" y="218" on="0"/>
        <pt x="390" y="279" on="0"/>
        <pt x="504" y="291" on="1"/>
        <pt x="503" y="284" on="0"/>
        <pt x="497" y="263" on="0"/>
        <pt x="484" y="242" on="0"/>
        <pt x="463" y="225" on="0"/>
        <pt x="448" y="223" on="1"/>
        <pt x="404" y="217" on="0"/>
        <pt x="371" y="184" on="0"/>
        <pt x="371" y="162" on="1"/>
        <pt x="371" y="139" on="0"/>
        <pt x="408" y="109" on="0"/>
        <pt x="439" y="109" on="1"/>
        <pt x="465" y="109" on="0"/>
        <pt x="520" y="133" on="0"/>
        <pt x="543" y="164" on="1"/>
        <pt x="543" y="305" on="1"/>
        <pt x="543" y="351" on="0"/>
        <pt x="498" y="402" on="0"/>
        <pt x="447" y="402" on="1"/>
        <pt x="426" y="402" on="0"/>
        <pt x="379" y="394" on="0"/>
        <pt x="350" y="383" on="1"/>
        <pt x="329" y="439" on="1"/>
        <pt x="367" y="455" on="0"/>
        <pt x="429" y="466" on="0"/>
        <pt x="461" y="466" on="1"/>
        <pt x="538" y="466" on="0"/>
        <pt x="622" y="380" on="0"/>
        <pt x="622" y="300" on="1"/>
        <pt x="622" y="201" on="1"/>
        <pt x="622" y="187" on="0"/>
        <pt x="622" y="161" on="0"/>
      </contour>
    </TTGlyph>
    <TTGlyph name="atilde" xMin="40" yMin="-11" xMax="475" yMax="735">
      <contour>
        <pt x="176" y="618" on="1"/>
        <pt x="116" y="624" on="1"/>
        <pt x="118" y="680" on="0"/>
        <pt x="171" y="735" on="0"/>
        <pt x="208" y="735" on="1"/>
        <pt x="230" y="735" on="0"/>
        <pt x="261" y="718" on="0"/>
        <pt x="287" y="697" on="0"/>
        <pt x="311" y="680" on="0"/>
        <pt x="326" y="680" on="1"/>
        <pt x="339" y="680" on="0"/>
        <pt x="355" y="708" on="0"/>
        <pt x="357" y="734" on="1"/>
        <pt x="415" y="728" on="1"/>
        <pt x="414" y="696" on="0"/>
        <pt x="397" y="654" on="0"/>
        <pt x="373" y="628" on="0"/>
        <pt x="343" y="617" on="0"/>
        <pt x="328" y="617" on="1"/>
        <pt x="304" y="617" on="0"/>
        <pt x="272" y="634" on="0"/>
        <pt x="246" y="655" on="0"/>
        <pt x="224" y="672" on="0"/>
        <pt x="211" y="672" on="1"/>
        <pt x="199" y="672" on="0"/>
        <pt x="178" y="648" on="0"/>
      </contour>
      <contour>
        <pt x="459" y="313" on="1"/>
        <pt x="459" y="171" on="1"/>
        <pt x="459" y="116" on="0"/>
        <pt x="466" y="33" on="0"/>
        <pt x="475" y="0" on="1"/>
        <pt x="396" y="0" on="1"/>
        <pt x="379" y="10" on="0"/>
        <pt x="360" y="47" on="0"/>
        <pt x="358" y="67" on="1"/>
        <pt x="339" y="42" on="0"/>
        <pt x="300" y="12" on="0"/>
        <pt x="262" y="-5" on="0"/>
        <pt x="224" y="-11" on="0"/>
        <pt x="205" y="-11" on="1"/>
        <pt x="167" y="-11" on="0"/>
        <pt x="106" y="12" on="0"/>
        <pt x="63" y="51" on="0"/>
        <pt x="40" y="104" on="0"/>
        <pt x="40" y="134" on="1"/>
        <pt x="40" y="170" on="0"/>
        <pt x="68" y="227" on="0"/>
        <pt x="133" y="269" on="0"/>
        <pt x="239" y="297" on="0"/>
        <pt x="317" y="305" on="1"/>
        <pt x="315" y="294" on="0"/>
        <pt x="307" y="268" on="0"/>
        <pt x="290" y="245" on="0"/>
        <pt x="265" y="227" on="0"/>
        <pt x="246" y="224" on="1"/>
        <pt x="217" y="219" on="0"/>
        <pt x="180" y="202" on="0"/>
        <pt x="158" y="181" on="0"/>
        <pt x="150" y="155" on="0"/>
        <pt x="150" y="142" on="1"/>
        <pt x="150" y="113" on="0"/>
        <pt x="191" y="70" on="0"/>
        <pt x="226" y="70" on="1"/>
        <pt x="258" y="70" on="0"/>
        <pt x="324" y="105" on="0"/>
        <pt x="353" y="142" on="1"/>
        <pt x="353" y="318" on="1"/>
        <pt x="353" y="375" on="0"/>
        <pt x="295" y="446" on="0"/>
        <pt x="231" y="446" on="1"/>
        <pt x="205" y="446" on="0"/>
        <pt x="151" y="436" on="0"/>
        <pt x="115" y="423" on="1"/>
        <pt x="89" y="492" on="1"/>
        <pt x="137" y="513" on="0"/>
        <pt x="212" y="527" on="0"/>
        <pt x="246" y="527" on="1"/>
        <pt x="349" y="527" on="0"/>
        <pt x="459" y="416" on="0"/>
      </contour>
    </TTGlyph>
    <TTGlyph name="b" xMin="80" yMin="-11" xMax="540" yMax="758">
      <contour>
        <pt x="221" y="498" on="1"/>
        <pt x="248" y="510" on="0"/>
        <pt x="308" y="524" on="0"/>
        <pt x="331" y="524" on="1"/>
        <pt x="374" y="524" on="0"/>
        <pt x="450" y="488" on="0"/>
        <pt x="507" y="421" on="0"/>
        <pt x="540" y="325" on="0"/>
        <pt x="540" y="266" on="1"/>
        <pt x="540" y="206" on="0"/>
        <pt x="503" y="104" on="0"/>
        <pt x="435" y="30" on="0"/>
        <pt x="340" y="-11" on="0"/>
        <pt x="282" y="-11" on="1"/>
        <pt x="227" y="-11" on="0"/>
        <pt x="128" y="14" on="0"/>
        <pt x="80" y="41" on="1"/>
        <pt x="80" y="758" on="1"/>
        <pt x="186" y="758" on="1"/>
        <pt x="186" y="84" on="1"/>
        <pt x="210" y="76" on="0"/>
        <pt x="260" y="70" on="0"/>
        <pt x="282" y="70" on="1"/>
        <pt x="316" y="70" on="0"/>
        <pt x="370" y="99" on="0"/>
        <pt x="408" y="150" on="0"/>
        <pt x="428" y="222" on="0"/>
        <pt x="428" y="266" on="1"/>
        <pt x="428" y="350" on="0"/>
        <pt x="360" y="447" on="0"/>
        <pt x="299" y="443" on="1"/>
        <pt x="273" y="441" on="0"/>
        <pt x="237" y="472" on="0"/>
      </contour>
    </TTGlyph>
    <TTGlyph name="backslash" xMin="14" yMin="-62" xMax="355" yMax="727">
      <contour>
        <pt x="355" y="-62" on="1"/>
        <pt x="257" y="-62" on="1"/>
        <pt x="14" y="727" on="1"/>
        <pt x="112" y="727" on="1"/>
      </contour>
    </TTGlyph>
    <TTGlyph name="bar" xMin="115" yMin="-293" xMax="208" yMax="811">
      <contour>
        <pt x="208" y="-293" on="1"/>
        <pt x="115" y="-293" on="1"/>
        <pt x="115" y="811" on="1"/>
        <pt x="208" y="811" on="1"/>
      </contour>
    </TTGlyph>
    <TTGlyph name="braceleft" xMin="76" yMin="-176" xMax="401" yMax="767">
      <contour>
        <pt x="173" y="191" on="1"/>
        <pt x="171" y="226" on="0"/>
        <pt x="114" y="267" on="0"/>
        <pt x="76" y="274" on="1"/>
        <pt x="76" y="335" on="1"/>
        <pt x="114" y="342" on="0"/>
        <pt x="172" y="383" on="0"/>
        <pt x="175" y="418" on="1"/>
        <pt x="179" y="479" on="0"/>
        <pt x="202" y="581" on="0"/>
        <pt x="244" y="665" on="0"/>
        <pt x="308" y="736" on="0"/>
        <pt x="354" y="767" on="1"/>
        <pt x="401" y="713" on="1"/>
        <pt x="366" y="684" on="0"/>
        <pt x="318" y="625" on="0"/>
        <pt x="288" y="559" on="0"/>
        <pt x="271" y="484" on="0"/>
        <pt x="268" y="439" on="1"/>
        <pt x="265" y="397" on="0"/>
        <pt x="225" y="335" on="0"/>
        <pt x="193" y="314" on="1"/>
        <pt x="168" y="303" on="1"/>
        <pt x="193" y="292" on="1"/>
        <pt x="222" y="272" on="0"/>
        <pt x="259" y="218" on="0"/>
        <pt x="264" y="183" on="1"/>
        <pt x="266" y="170" on="0"/>
        <pt x="270" y="144" on="0"/>
        <pt x="271" y="130" on="1"/>
        <pt x="275" y="89" on="0"/>
        <pt x="293" y="20" on="0"/>
        <pt x="323" y="-40" on="0"/>
        <pt x="369" y="-95" on="0"/>
        <pt x="401" y="-121" on="1"/>
        <pt x="354" y="-176" on="1"/>
        <pt x="306" y="-144" on="0"/>
        <pt x="241" y="-71" on="0"/>
        <pt x="199" y="17" on="0"/>
        <pt x="177" y="124" on="0"/>
      </contour>
    </TTGlyph>
    <TTGlyph name="braceright" xMin="80" yMin="-176" xMax="405" yMax="767">
      <contour>
        <pt x="308" y="191" on="1"/>
        <pt x="304" y="124" on="0"/>
        <pt x="283" y="17" on="0"/>
        <pt x="241" y="-71" on="0"/>
        <pt x="176" y="-144" on="0"/>
        <pt x="128" y="-176" on="1"/>
        <pt x="80" y="-121" on="1"/>
        <pt x="112" y="-95" on="0"/>
        <pt x="158" y="-40" on="0"/>
        <pt x="189" y="20" on="0"/>
        <pt x="206" y="89" on="0"/>
        <pt x="210" y="130" on="1"/>
        <pt x="213" y="158" on="0"/>
        <pt x="221" y="205" on="0"/>
        <pt x="238" y="244" on="0"/>
        <pt x="266" y="278" on="0"/>
        <pt x="290" y="293" on="1"/>
        <pt x="314" y="303" on="1"/>
        <pt x="289" y="314" on="1"/>
        <pt x="257" y="335" on="0"/>
        <pt x="217" y="397" on="0"/>
        <pt x="214" y="439" on="1"/>
        <pt x="211" y="484" on="0"/>
        <pt x="194" y="559" on="0"/>
        <pt x="163" y="625" on="0"/>
        <pt x="115" y="684" on="0"/>
        <pt x="80" y="713" on="1"/>
        <pt x="128" y="767" on="1"/>
        <pt x="174" y="736" on="0"/>
        <pt x="237" y="665" on="0"/>
        <pt x="279" y="581" on="0"/>
        <pt x="301" y="479" on="0"/>
        <pt x="306" y="418" on="1"/>
        <pt x="309" y="383" on="0"/>
        <pt x="367" y="342" on="0"/>
        <pt x="405" y="335" on="1"/>
        <pt x="405" y="274" on="1"/>
        <pt x="367" y="267" on="0"/>
        <pt x="311" y="226" on="0"/>
      </contour>
    </TTGlyph>
    <TTGlyph name="bracketleft" xMin="138" yMin="-199" xMax="409" yMax="771">
      <contour>
        <pt x="138" y="-199" on="1"/>
        <pt x="138" y="771" on="1"/>
        <pt x="409" y="771" on="1"/>
        <pt x="409" y="690" on="1"/>
        <pt x="238" y="690" on="1"/>
        <pt x="238" y="-118" on="1"/>
        <pt x="409" y="-118" on="1"/>
        <pt x="409" y="-199" on="1"/>
      </contour>
    </TTGlyph>
    <TTGlyph name="bracketright" xMin="49" yMin="-199" xMax="320" yMax="771">
      <contour>
        <pt x="320" y="771" on="1"/>
        <pt x="320" y="-199" on="1"/>
        <pt x="50" y="-199" on="1"/>
        <pt x="50" y="-179" on="0"/>
        <pt x="49" y="-138" on="0"/>
        <pt x="49" y="-118" on="1"/>
        <pt x="221" y="-118" on="1"/>
        <pt x="221" y="690" on="1"/>
        <pt x="50" y="690" on="1"/>
        <pt x="50" y="771" on="1"/>
      </contour>
    </TTGlyph>
    <TTGlyph name="brokenbar" xMin="84" yMin="-293" xMax="178" yMax="811">
      <contour>
        <pt x="178" y="-293" on="1"/>
        <pt x="84" y="-293" on="1"/>
        <pt x="84" y="141" on="1"/>
        <pt x="178" y="141" on="1"/>
      </contour>
      <contour>
        <pt x="178" y="387" on="1"/>
        <pt x="84" y="387" on="1"/>
        <pt x="84" y="811" on="1"/>
        <pt x="178" y="811" on="1"/>
      </contour>
    </TTGlyph>
    <TTGlyph name="bullet" xMin="177" yMin="235" xMax="339" yMax="397">
      <contour>
        <pt x="177" y="315" on="1"/>
        <pt x="177" y="350" on="0"/>
        <pt x="222" y="397" on="0"/>
        <pt x="257" y="397" on="1"/>
        <pt x="292" y="397" on="0"/>
        <pt x="339" y="350" on="0"/>
        <pt x="339" y="315" on="1"/>
        <pt x="339" y="280" on="0"/>
        <pt x="292" y="235" on="0"/>
        <pt x="257" y="235" on="1"/>
        <pt x="222" y="235" on="0"/>
        <pt x="177" y="280" on="0"/>
      </contour>
    </TTGlyph>
    <TTGlyph name="c" xMin="38" yMin="-11" xMax="422" yMax="528">
      <contour>
        <pt x="287" y="-11" on="1"/>
        <pt x="236" y="-11" on="0"/>
        <pt x="145" y="23" on="0"/>
        <pt x="78" y="91" on="0"/>
        <pt x="38" y="192" on="0"/>
        <pt x="38" y="259" on="1"/>
        <pt x="38" y="325" on="0"/>
        <pt x="79" y="425" on="0"/>
        <pt x="147" y="493" on="0"/>
        <pt x="237" y="528" on="0"/>
        <pt x="287" y="528" on="1"/>
        <pt x="314" y="528" on="0"/>
        <pt x="378" y="518" on="0"/>
        <pt x="408" y="507" on="1"/>
        <pt x="382" y="433" on="1"/>
        <pt x="355" y="441" on="0"/>
        <pt x="307" y="447" on="0"/>
        <pt x="287" y="447" on="1"/>
        <pt x="259" y="447" on="0"/>
        <pt x="209" y="423" on="0"/>
        <pt x="172" y="376" on="0"/>
        <pt x="151" y="306" on="0"/>
        <pt x="151" y="259" on="1"/>
        <pt x="151" y="212" on="0"/>
        <pt x="172" y="141" on="0"/>
        <pt x="209" y="94" on="0"/>
        <pt x="258" y="70" on="0"/>
        <pt x="287" y="70" on="1"/>
        <pt x="308" y="70" on="0"/>
        <pt x="360" y="83" on="0"/>
        <pt x="394" y="98" on="1"/>
        <pt x="422" y="24" on="1"/>
        <pt x="381" y="4" on="0"/>
        <pt x="311" y="-11" on="0"/>
      </contour>
    </TTGlyph>
    <TTGlyph name="ccedilla" xMin="35" yMin="-208" xMax="419" yMax="528">
      <contour>
        <pt x="284" y="-11" on="1"/>
        <pt x="281" y="-11" on="1"/>
        <pt x="271" y="-48" on="1"/>
        <pt x="286" y="-50" on="0"/>
        <pt x="315" y="-62" on="0"/>
        <pt x="338" y="-81" on="0"/>
        <pt x="352" y="-107" on="0"/>
        <pt x="352" y="-123" on="1"/>
        <pt x="352" y="-146" on="0"/>
        <pt x="331" y="-178" on="0"/>
        <pt x="297" y="-198" on="0"/>
        <pt x="255" y="-208" on="0"/>
        <pt x="234" y="-208" on="1"/>
        <pt x="217" y="-208" on="0"/>
        <pt x="178" y="-200" on="0"/>
        <pt x="154" y="-189" on="1"/>
        <pt x="170" y="-142" on="1"/>
        <pt x="189" y="-150" on="0"/>
        <pt x="219" y="-155" on="0"/>
        <pt x="234" y="-155" on="1"/>
        <pt x="251" y="-155" on="0"/>
        <pt x="283" y="-142" on="0"/>
        <pt x="283" y="-126" on="1"/>
        <pt x="283" y="-108" on="0"/>
        <pt x="244" y="-90" on="0"/>
        <pt x="209" y="-86" on="1"/>
        <pt x="230" y="-6" on="1"/>
        <pt x="188" y="2" on="0"/>
        <pt x="117" y="43" on="0"/>
        <pt x="65" y="109" on="0"/>
        <pt x="35" y="201" on="0"/>
        <pt x="35" y="259" on="1"/>
        <pt x="35" y="325" on="0"/>
        <pt x="76" y="425" on="0"/>
        <pt x="144" y="493" on="0"/>
        <pt x="234" y="528" on="0"/>
        <pt x="284" y="528" on="1"/>
        <pt x="311" y="528" on="0"/>
        <pt x="375" y="518" on="0"/>
        <pt x="405" y="507" on="1"/>
        <pt x="378" y="433" on="1"/>
        <pt x="352" y="441" on="0"/>
        <pt x="304" y="447" on="0"/>
        <pt x="284" y="447" on="1"/>
        <pt x="256" y="447" on="0"/>
        <pt x="206" y="423" on="0"/>
        <pt x="169" y="376" on="0"/>
        <pt x="148" y="306" on="0"/>
        <pt x="148" y="259" on="1"/>
        <pt x="148" y="212" on="0"/>
        <pt x="169" y="141" on="0"/>
        <pt x="206" y="94" on="0"/>
        <pt x="255" y="70" on="0"/>
        <pt x="284" y="70" on="1"/>
        <pt x="305" y="70" on="0"/>
        <pt x="357" y="83" on="0"/>
        <pt x="391" y="98" on="1"/>
        <pt x="419" y="24" on="1"/>
        <pt x="378" y="4" on="0"/>
        <pt x="309" y="-11" on="0"/>
      </contour>
    </TTGlyph>
    <TTGlyph name="cedilla" xMin="154" yMin="-208" xMax="352" yMax="2">
      <contour>
        <pt x="231" y="-2" on="1"/>
        <pt x="284" y="2" on="1"/>
        <pt x="271" y="-48" on="1"/>
        <pt x="286" y="-50" on="0"/>
        <pt x="315" y="-62" on="0"/>
        <pt x="338" y="-81" on="0"/>
        <pt x="352" y="-107" on="0"/>
        <pt x="352" y="-123" on="1"/>
        <pt x="352" y="-146" on="0"/>
        <pt x="331" y="-178" on="0"/>
        <pt x="297" y="-198" on="0"/>
        <pt x="255" y="-208" on="0"/>
        <pt x="234" y="-208" on="1"/>
        <pt x="217" y="-208" on="0"/>
        <pt x="178" y="-200" on="0"/>
        <pt x="154" y="-189" on="1"/>
        <pt x="170" y="-142" on="1"/>
        <pt x="189" y="-150" on="0"/>
        <pt x="219" y="-155" on="0"/>
        <pt x="234" y="-155" on="1"/>
        <pt x="251" y="-155" on="0"/>
        <pt x="283" y="-142" on="0"/>
        <pt x="283" y="-126" on="1"/>
        <pt x="283" y="-108" on="0"/>
        <pt x="244" y="-90" on="0"/>
        <pt x="209" y="-86" on="1"/>
      </contour>
    </TTGlyph>
    <TTGlyph name="cent" xMin="38" yMin="-14" xMax="422" yMax="716">
      <contour>
        <pt x="422" y="119" on="1"/>
        <pt x="393" y="105" on="0"/>
        <pt x="340" y="90" on="0"/>
        <pt x="318" y="86" on="1"/>
        <pt x="318" y="-14" on="1"/>
        <pt x="238" y="-14" on="1"/>
        <pt x="238" y="88" on="1"/>
        <pt x="195" y="95" on="0"/>
        <pt x="122" y="136" on="0"/>
        <pt x="68" y="203" on="0"/>
        <pt x="38" y="295" on="0"/>
        <pt x="38" y="354" on="1"/>
        <pt x="38" y="411" on="0"/>
        <pt x="69" y="503" on="0"/>
        <pt x="123" y="569" on="0"/>
        <pt x="196" y="610" on="0"/>
        <pt x="238" y="618" on="1"/>
        <pt x="238" y="716" on="1"/>
        <pt x="318" y="716" on="1"/>
        <pt x="318" y="622" on="1"/>
        <pt x="340" y="620" on="0"/>
        <pt x="386" y="610" on="0"/>
        <pt x="408" y="602" on="1"/>
        <pt x="381" y="528" on="1"/>
        <pt x="355" y="536" on="0"/>
        <pt x="307" y="542" on="0"/>
        <pt x="287" y="542" on="1"/>
        <pt x="259" y="542" on="0"/>
        <pt x="209" y="519" on="0"/>
        <pt x="172" y="472" on="0"/>
        <pt x="151" y="401" on="0"/>
        <pt x="151" y="354" on="1"/>
        <pt x="151" y="307" on="0"/>
        <pt x="172" y="236" on="0"/>
        <pt x="209" y="189" on="0"/>
        <pt x="258" y="165" on="0"/>
        <pt x="287" y="165" on="1"/>
        <pt x="308" y="165" on="0"/>
        <pt x="360" y="178" on="0"/>
        <pt x="394" y="193" on="1"/>
      </contour>
    </TTGlyph>
    <TTGlyph name="circumflex" xMin="105" yMin="588" xMax="393" yMax="743">
      <contour>
        <pt x="213" y="743" on="1"/>
        <pt x="284" y="743" on="1"/>
        <pt x="393" y="599" on="1"/>
        <pt x="333" y="589" on="1"/>
        <pt x="248" y="669" on="1"/>
        <pt x="163" y="588" on="1"/>
        <pt x="105" y="599" on="1"/>
      </contour>
    </TTGlyph>
    <TTGlyph name="colon" xMin="86" yMin="-15" xMax="219" yMax="493">
      <contour>
        <pt x="86" y="425" on="1"/>
        <pt x="86" y="454" on="0"/>
        <pt x="123" y="493" on="0"/>
        <pt x="152" y="493" on="1"/>
        <pt x="181" y="493" on="0"/>
        <pt x="219" y="454" on="0"/>
        <pt x="219" y="425" on="1"/>
        <pt x="219" y="397" on="0"/>
        <pt x="181" y="360" on="0"/>
        <pt x="152" y="360" on="1"/>
        <pt x="123" y="360" on="0"/>
        <pt x="86" y="397" on="0"/>
      </contour>
      <contour>
        <pt x="86" y="51" on="1"/>
        <pt x="86" y="80" on="0"/>
        <pt x="123" y="118" on="0"/>
        <pt x="152" y="118" on="1"/>
        <pt x="181" y="118" on="0"/>
        <pt x="219" y="80" on="0"/>
        <pt x="219" y="51" on="1"/>
        <pt x="219" y="22" on="0"/>
        <pt x="181" y="-15" on="0"/>
        <pt x="152" y="-15" on="1"/>
        <pt x="123" y="-15" on="0"/>
        <pt x="86" y="22" on="0"/>
      </contour>
    </TTGlyph>
    <TTGlyph name="comma" xMin="56" yMin="-113" xMax="153" yMax="98">
      <contour>
        <pt x="56" y="-107" on="1"/>
        <pt x="56" y="98" on="1"/>
        <pt x="153" y="98" on="1"/>
        <pt x="153" y="20" on="1"/>
        <pt x="153" y="-4" on="0"/>
        <pt x="144" y="-54" on="0"/>
        <pt x="122" y="-93" on="0"/>
        <pt x="84" y="-113" on="0"/>
      </contour>
    </TTGlyph>
    <TTGlyph name="copyright" xMin="29" yMin="28" xMax="682" yMax="683">
      <contour>
        <pt x="377" y="176" on="1"/>
        <pt x="343" y="176" on="0"/>
        <pt x="283" y="200" on="0"/>
        <pt x="238" y="246" on="0"/>
        <pt x="212" y="313" on="0"/>
        <pt x="212" y="357" on="1"/>
        <pt x="212" y="400" on="0"/>
        <pt x="239" y="468" on="0"/>
        <pt x="284" y="513" on="0"/>
        <pt x="344" y="537" on="0"/>
        <pt x="377" y="537" on="1"/>
        <pt x="416" y="537" on="0"/>
        <pt x="460" y="523" on="1"/>
        <pt x="442" y="470" on="1"/>
        <pt x="424" y="476" on="0"/>
        <pt x="392" y="481" on="0"/>
        <pt x="377" y="481" on="1"/>
        <pt x="339" y="481" on="0"/>
        <pt x="285" y="417" on="0"/>
        <pt x="285" y="357" on="1"/>
        <pt x="285" y="296" on="0"/>
        <pt x="339" y="231" on="0"/>
        <pt x="377" y="231" on="1"/>
        <pt x="391" y="231" on="0"/>
        <pt x="428" y="239" on="0"/>
        <pt x="451" y="250" on="1"/>
        <pt x="469" y="199" on="1"/>
        <pt x="441" y="185" on="0"/>
        <pt x="393" y="176" on="0"/>
      </contour>
      <contour>
        <pt x="357" y="620" on="1"/>
        <pt x="302" y="620" on="0"/>
        <pt x="210" y="581" on="0"/>
        <pt x="144" y="511" on="0"/>
        <pt x="107" y="414" on="0"/>
        <pt x="107" y="354" on="1"/>
        <pt x="107" y="295" on="0"/>
        <pt x="144" y="198" on="0"/>
        <pt x="210" y="130" on="0"/>
        <pt x="302" y="92" on="0"/>
        <pt x="357" y="92" on="1"/>
        <pt x="411" y="91" on="0"/>
        <pt x="502" y="129" on="0"/>
        <pt x="567" y="198" on="0"/>
        <pt x="604" y="297" on="0"/>
        <pt x="604" y="357" on="1"/>
        <pt x="604" y="415" on="0"/>
        <pt x="567" y="512" on="0"/>
        <pt x="502" y="582" on="0"/>
        <pt x="411" y="620" on="0"/>
      </contour>
      <contour>
        <pt x="357" y="683" on="1"/>
        <pt x="429" y="683" on="0"/>
        <pt x="549" y="632" on="0"/>
        <pt x="635" y="544" on="0"/>
        <pt x="682" y="425" on="0"/>
        <pt x="682" y="357" on="1"/>
        <pt x="682" y="289" on="0"/>
        <pt x="634" y="169" on="0"/>
        <pt x="549" y="80" on="0"/>
        <pt x="429" y="28" on="0"/>
        <pt x="357" y="28" on="1"/>
        <pt x="284" y="28" on="0"/>
        <pt x="163" y="79" on="0"/>
        <pt x="77" y="167" on="0"/>
        <pt x="29" y="288" on="0"/>
        <pt x="29" y="357" on="1"/>
        <pt x="29" y="424" on="0"/>
        <pt x="77" y="542" on="0"/>
        <pt x="164" y="631" on="0"/>
        <pt x="284" y="683" on="0"/>
      </contour>
    </TTGlyph>
    <TTGlyph name="currency" xMin="27" yMin="105" xMax="489" yMax="576">
      <contour>
        <pt x="255" y="481" on="1"/>
        <pt x="229" y="481" on="0"/>
        <pt x="187" y="459" on="0"/>
        <pt x="157" y="421" on="0"/>
        <pt x="141" y="369" on="0"/>
        <pt x="141" y="340" on="1"/>
        <pt x="141" y="306" on="0"/>
        <pt x="162" y="254" on="0"/>
        <pt x="194" y="219" on="0"/>
        <pt x="234" y="201" on="0"/>
        <pt x="254" y="201" on="1"/>
        <pt x="275" y="201" on="0"/>
        <pt x="317" y="219" on="0"/>
        <pt x="349" y="255" on="0"/>
        <pt x="369" y="308" on="0"/>
        <pt x="369" y="343" on="1"/>
        <pt x="369" y="369" on="0"/>
        <pt x="353" y="418" on="0"/>
        <pt x="324" y="457" on="0"/>
        <pt x="282" y="481" on="0"/>
      </contour>
      <contour>
        <pt x="256" y="544" on="1"/>
        <pt x="291" y="544" on="0"/>
        <pt x="350" y="522" on="0"/>
        <pt x="370" y="505" on="1"/>
        <pt x="447" y="576" on="1"/>
        <pt x="489" y="531" on="1"/>
        <pt x="410" y="460" on="1"/>
        <pt x="424" y="440" on="0"/>
        <pt x="444" y="380" on="0"/>
        <pt x="444" y="344" on="1"/>
        <pt x="444" y="304" on="0"/>
        <pt x="424" y="242" on="0"/>
        <pt x="410" y="223" on="1"/>
        <pt x="487" y="149" on="1"/>
        <pt x="444" y="106" on="1"/>
        <pt x="370" y="178" on="1"/>
        <pt x="349" y="158" on="0"/>
        <pt x="287" y="137" on="0"/>
        <pt x="255" y="137" on="1"/>
        <pt x="223" y="137" on="0"/>
        <pt x="163" y="158" on="0"/>
        <pt x="143" y="176" on="1"/>
        <pt x="71" y="105" on="1"/>
        <pt x="27" y="150" on="1"/>
        <pt x="101" y="221" on="1"/>
        <pt x="87" y="240" on="0"/>
        <pt x="65" y="302" on="0"/>
        <pt x="65" y="340" on="1"/>
        <pt x="65" y="378" on="0"/>
        <pt x="88" y="440" on="0"/>
        <pt x="103" y="460" on="1"/>
        <pt x="27" y="531" on="1"/>
        <pt x="70" y="576" on="1"/>
        <pt x="144" y="505" on="1"/>
        <pt x="164" y="522" on="0"/>
        <pt x="223" y="544" on="0"/>
      </contour>
    </TTGlyph>
    <TTGlyph name="d" xMin="45" yMin="-11" xMax="534" yMax="758">
      <contour>
        <pt x="45" y="261" on="1"/>
        <pt x="45" y="319" on="0"/>
        <pt x="83" y="416" on="0"/>
        <pt x="147" y="485" on="0"/>
        <pt x="230" y="524" on="0"/>
        <pt x="274" y="524" on="1"/>
        <pt x="297" y="524" on="0"/>
        <pt x="347" y="517" on="0"/>
        <pt x="378" y="507" on="1"/>
        <pt x="364" y="479" on="0"/>
        <pt x="322" y="444" on="0"/>
        <pt x="290" y="444" on="1"/>
        <pt x="263" y="444" on="0"/>
        <pt x="215" y="422" on="0"/>
        <pt x="179" y="376" on="0"/>
        <pt x="159" y="307" on="0"/>
        <pt x="159" y="261" on="1"/>
        <pt x="159" y="220" on="0"/>
        <pt x="176" y="150" on="0"/>
        <pt x="208" y="99" on="0"/>
        <pt x="255" y="70" on="0"/>
        <pt x="286" y="70" on="1"/>
        <pt x="351" y="70" on="0"/>
        <pt x="413" y="142" on="1"/>
        <pt x="413" y="758" on="1"/>
        <pt x="519" y="758" on="1"/>
        <pt x="519" y="176" on="1"/>
        <pt x="519" y="119" on="0"/>
        <pt x="526" y="35" on="0"/>
        <pt x="534" y="0" on="1"/>
        <pt x="455" y="0" on="1"/>
        <pt x="443" y="10" on="0"/>
        <pt x="428" y="33" on="0"/>
        <pt x="420" y="52" on="1"/>
        <pt x="418" y="70" on="1"/>
        <pt x="407" y="52" on="1"/>
        <pt x="374" y="17" on="0"/>
        <pt x="299" y="-11" on="0"/>
        <pt x="268" y="-11" on="1"/>
        <pt x="215" y="-11" on="0"/>
        <pt x="132" y="31" on="0"/>
        <pt x="75" y="104" on="0"/>
        <pt x="45" y="203" on="0"/>
      </contour>
    </TTGlyph>
    <TTGlyph name="dagger" xMin="15" yMin="-30" xMax="533" yMax="697">
      <contour>
        <pt x="102" y="402" on="1"/>
        <pt x="15" y="402" on="1"/>
        <pt x="15" y="481" on="1"/>
        <pt x="195" y="481" on="1"/>
        <pt x="184" y="449" on="0"/>
        <pt x="142" y="402" on="0"/>
      </contour>
      <contour>
        <pt x="533" y="402" on="1"/>
        <pt x="479" y="402" on="1"/>
        <pt x="449" y="402" on="0"/>
        <pt x="408" y="411" on="0"/>
        <pt x="379" y="430" on="0"/>
        <pt x="360" y="460" on="0"/>
        <pt x="353" y="481" on="1"/>
        <pt x="533" y="481" on="1"/>
      </contour>
      <contour>
        <pt x="318" y="697" on="1"/>
        <pt x="318" y="-30" on="1"/>
        <pt x="230" y="-30" on="1"/>
        <pt x="230" y="697" on="1"/>
      </contour>
    </TTGlyph>
    <TTGlyph name="daggerdbl" xMin="39" yMin="-30" xMax="557" yMax="697">
      <contour>
        <pt x="126" y="422" on="1"/>
        <pt x="39" y="422" on="1"/>
        <pt x="39" y="501" on="1"/>
        <pt x="219" y="501" on="1"/>
        <pt x="208" y="469" on="0"/>
        <pt x="166" y="422" on="0"/>
      </contour>
      <contour>
        <pt x="557" y="422" on="1"/>
        <pt x="503" y="422" on="1"/>
        <pt x="473" y="422" on="0"/>
        <pt x="432" y="431" on="0"/>
        <pt x="403" y="450" on="0"/>
        <pt x="384" y="480" on="0"/>
        <pt x="377" y="501" on="1"/>
        <pt x="557" y="501" on="1"/>
      </contour>
      <contour>
        <pt x="126" y="166" on="1"/>
        <pt x="39" y="166" on="1"/>
        <pt x="39" y="245" on="1"/>
        <pt x="219" y="245" on="1"/>
        <pt x="208" y="213" on="0"/>
        <pt x="166" y="166" on="0"/>
      </contour>
      <contour>
        <pt x="557" y="166" on="1"/>
        <pt x="470" y="166" on="1"/>
        <pt x="430" y="166" on="0"/>
        <pt x="388" y="213" on="0"/>
        <pt x="377" y="245" on="1"/>
        <pt x="557" y="245" on="1"/>
      </contour>
      <contour>
        <pt x="342" y="697" on="1"/>
        <pt x="342" y="-30" on="1"/>
        <pt x="254" y="-30" on="1"/>
        <pt x="254" y="697" on="1"/>
      </contour>
    </TTGlyph>
    <TTGlyph name="degree" xMin="26" yMin="480" xMax="324" yMax="766">
      <contour>
        <pt x="26" y="623" on="1"/>
        <pt x="26" y="652" on="0"/>
        <pt x="49" y="704" on="0"/>
        <pt x="90" y="743" on="0"/>
        <pt x="144" y="766" on="0"/>
        <pt x="175" y="766" on="1"/>
        <pt x="202" y="766" on="0"/>
        <pt x="255" y="747" on="0"/>
        <pt x="298" y="710" on="0"/>
        <pt x="324" y="657" on="0"/>
        <pt x="324" y="623" on="1"/>
        <pt x="324" y="590" on="0"/>
        <pt x="298" y="537" on="0"/>
        <pt x="255" y="500" on="0"/>
        <pt x="202" y="480" on="0"/>
        <pt x="175" y="480" on="1"/>
        <pt x="145" y="480" on="0"/>
        <pt x="91" y="501" on="0"/>
        <pt x="50" y="539" on="0"/>
        <pt x="26" y="591" on="0"/>
      </contour>
      <contour>
        <pt x="175" y="710" on="1"/>
        <pt x="137" y="710" on="0"/>
        <pt x="95" y="656" on="0"/>
        <pt x="95" y="623" on="1"/>
        <pt x="95" y="588" on="0"/>
        <pt x="137" y="537" on="0"/>
        <pt x="175" y="537" on="1"/>
        <pt x="195" y="537" on="0"/>
        <pt x="225" y="553" on="0"/>
        <pt x="246" y="577" on="0"/>
        <pt x="256" y="608" on="0"/>
        <pt x="256" y="623" on="1"/>
        <pt x="256" y="664" on="0"/>
        <pt x="207" y="710" on="0"/>
      </contour>
    </TTGlyph>
    <TTGlyph name="dieresis" xMin="58" yMin="615" xMax="364" yMax="725">
      <contour>
        <pt x="252" y="670" on="1"/>
        <pt x="252" y="693" on="0"/>
        <pt x="285" y="725" on="0"/>
        <pt x="308" y="725" on="1"/>
        <pt x="331" y="725" on="0"/>
        <pt x="364" y="693" on="0"/>
        <pt x="364" y="670" on="1"/>
        <pt x="364" y="647" on="0"/>
        <pt x="331" y="615" on="0"/>
        <pt x="308" y="615" on="1"/>
        <pt x="285" y="615" on="0"/>
        <pt x="252" y="647" on="0"/>
      </contour>
      <contour>
        <pt x="58" y="670" on="1"/>
        <pt x="58" y="693" on="0"/>
        <pt x="90" y="725" on="0"/>
        <pt x="113" y="725" on="1"/>
        <pt x="136" y="725" on="0"/>
        <pt x="169" y="693" on="0"/>
        <pt x="169" y="670" on="1"/>
        <pt x="169" y="647" on="0"/>
        <pt x="136" y="615" on="0"/>
        <pt x="113" y="615" on="1"/>
        <pt x="90" y="615" on="0"/>
        <pt x="58" y="647" on="0"/>
      </contour>
    </TTGlyph>
    <TTGlyph name="divide" xMin="47" yMin="59" xMax="515" yMax="549">
      <contour>
        <pt x="227" y="112" on="1"/>
        <pt x="227" y="136" on="0"/>
        <pt x="257" y="167" on="0"/>
        <pt x="280" y="167" on="1"/>
        <pt x="304" y="167" on="0"/>
        <pt x="335" y="136" on="0"/>
        <pt x="335" y="112" on="1"/>
        <pt x="335" y="89" on="0"/>
        <pt x="304" y="59" on="0"/>
        <pt x="280" y="59" on="1"/>
        <pt x="257" y="59" on="0"/>
        <pt x="227" y="89" on="0"/>
      </contour>
      <contour>
        <pt x="227" y="494" on="1"/>
        <pt x="227" y="518" on="0"/>
        <pt x="257" y="549" on="0"/>
        <pt x="280" y="549" on="1"/>
        <pt x="304" y="549" on="0"/>
        <pt x="335" y="518" on="0"/>
        <pt x="335" y="494" on="1"/>
        <pt x="335" y="471" on="0"/>
        <pt x="304" y="441" on="0"/>
        <pt x="280" y="441" on="1"/>
        <pt x="257" y="441" on="0"/>
        <pt x="227" y="471" on="0"/>
      </contour>
      <contour>
        <pt x="47" y="268" on="1"/>
        <pt x="47" y="342" on="1"/>
        <pt x="515" y="342" on="1"/>
        <pt x="515" y="268" on="1"/>
      </contour>
    </TTGlyph>
    <TTGlyph name="dollar" xMin="39" yMin="-107" xMax="483" yMax="810">
      <contour>
        <pt x="261" y="630" on="1"/>
        <pt x="212" y="630" on="0"/>
        <pt x="156" y="578" on="0"/>
        <pt x="156" y="542" on="1"/>
        <pt x="156" y="505" on="0"/>
        <pt x="204" y="454" on="0"/>
        <pt x="277" y="409" on="0"/>
        <pt x="362" y="366" on="0"/>
        <pt x="435" y="309" on="0"/>
        <pt x="483" y="232" on="0"/>
        <pt x="483" y="177" on="1"/>
        <pt x="483" y="144" on="0"/>
        <pt x="459" y="84" on="0"/>
        <pt x="413" y="35" on="0"/>
        <pt x="347" y="0" on="0"/>
        <pt x="304" y="-7" on="1"/>
        <pt x="304" y="-107" on="1"/>
        <pt x="222" y="-107" on="1"/>
        <pt x="222" y="-11" on="1"/>
        <pt x="181" y="-8" on="0"/>
        <pt x="88" y="14" on="0"/>
        <pt x="39" y="37" on="1"/>
        <pt x="69" y="111" on="1"/>
        <pt x="118" y="88" on="0"/>
        <pt x="203" y="70" on="0"/>
        <pt x="240" y="70" on="1"/>
        <pt x="270" y="70" on="0"/>
        <pt x="320" y="88" on="0"/>
        <pt x="356" y="118" on="0"/>
        <pt x="375" y="158" on="0"/>
        <pt x="375" y="179" on="1"/>
        <pt x="375" y="219" on="0"/>
        <pt x="327" y="273" on="0"/>
        <pt x="255" y="317" on="0"/>
        <pt x="171" y="359" on="0"/>
        <pt x="99" y="413" on="0"/>
        <pt x="51" y="486" on="0"/>
        <pt x="51" y="540" on="1"/>
        <pt x="51" y="574" on="0"/>
        <pt x="76" y="633" on="0"/>
        <pt x="122" y="678" on="0"/>
        <pt x="184" y="706" on="0"/>
        <pt x="222" y="710" on="1"/>
        <pt x="222" y="810" on="1"/>
        <pt x="304" y="810" on="1"/>
        <pt x="304" y="709" on="1"/>
        <pt x="333" y="706" on="0"/>
        <pt x="393" y="692" on="0"/>
        <pt x="432" y="681" on="1"/>
        <pt x="401" y="608" on="1"/>
        <pt x="357" y="621" on="0"/>
        <pt x="291" y="630" on="0"/>
      </contour>
    </TTGlyph>
    <TTGlyph name="e" xMin="53" yMin="-11" xMax="501" yMax="528">
      <contour>
        <pt x="278" y="317" on="1"/>
        <pt x="394" y="317" on="1"/>
        <pt x="397" y="344" on="0"/>
        <pt x="385" y="392" on="0"/>
        <pt x="357" y="428" on="0"/>
        <pt x="318" y="449" on="0"/>
        <pt x="294" y="449" on="1"/>
        <pt x="237" y="449" on="0"/>
        <pt x="159" y="356" on="0"/>
        <pt x="159" y="265" on="1"/>
        <pt x="159" y="221" on="0"/>
        <pt x="182" y="149" on="0"/>
        <pt x="223" y="98" on="0"/>
        <pt x="280" y="70" on="0"/>
        <pt x="313" y="70" on="1"/>
        <pt x="348" y="70" on="0"/>
        <pt x="410" y="85" on="0"/>
        <pt x="454" y="106" on="1"/>
        <pt x="482" y="33" on="1"/>
        <pt x="431" y="7" on="0"/>
        <pt x="340" y="-11" on="0"/>
        <pt x="301" y="-11" on="1"/>
        <pt x="242" y="-11" on="0"/>
        <pt x="150" y="33" on="0"/>
        <pt x="86" y="108" on="0"/>
        <pt x="53" y="208" on="0"/>
        <pt x="53" y="264" on="1"/>
        <pt x="53" y="325" on="0"/>
        <pt x="89" y="423" on="0"/>
        <pt x="155" y="491" on="0"/>
        <pt x="247" y="528" on="0"/>
        <pt x="303" y="528" on="1"/>
        <pt x="355" y="528" on="0"/>
        <pt x="438" y="482" on="0"/>
        <pt x="489" y="405" on="0"/>
        <pt x="501" y="303" on="0"/>
        <pt x="483" y="246" on="1"/>
        <pt x="195" y="246" on="1"/>
        <pt x="206" y="276" on="0"/>
        <pt x="245" y="317" on="0"/>
      </contour>
    </TTGlyph>
    <TTGlyph name="eacute" xMin="49" yMin="-11" xMax="497" yMax="740">
      <contour>
        <pt x="436" y="740" on="1"/>
        <pt x="351" y="635" on="1"/>
        <pt x="328" y="607" on="0"/>
        <pt x="264" y="595" on="0"/>
        <pt x="239" y="602" on="1"/>
        <pt x="327" y="740" on="1"/>
      </contour>
      <contour>
        <pt x="275" y="317" on="1"/>
        <pt x="391" y="317" on="1"/>
        <pt x="394" y="344" on="0"/>
        <pt x="382" y="392" on="0"/>
        <pt x="354" y="428" on="0"/>
        <pt x="314" y="449" on="0"/>
        <pt x="290" y="449" on="1"/>
        <pt x="262" y="449" on="0"/>
        <pt x="213" y="425" on="0"/>
        <pt x="176" y="379" on="0"/>
        <pt x="155" y="310" on="0"/>
        <pt x="155" y="265" on="1"/>
        <pt x="155" y="221" on="0"/>
        <pt x="178" y="149" on="0"/>
        <pt x="219" y="98" on="0"/>
        <pt x="276" y="70" on="0"/>
        <pt x="309" y="70" on="1"/>
        <pt x="344" y="70" on="0"/>
        <pt x="407" y="85" on="0"/>
        <pt x="450" y="106" on="1"/>
        <pt x="478" y="33" on="1"/>
        <pt x="428" y="7" on="0"/>
        <pt x="337" y="-11" on="0"/>
        <pt x="298" y="-11" on="1"/>
        <pt x="239" y="-11" on="0"/>
        <pt x="146" y="33" on="0"/>
        <pt x="82" y="108" on="0"/>
        <pt x="49" y="208" on="0"/>
        <pt x="49" y="264" on="1"/>
        <pt x="49" y="325" on="0"/>
        <pt x="85" y="423" on="0"/>
        <pt x="151" y="491" on="0"/>
        <pt x="243" y="528" on="0"/>
        <pt x="299" y="528" on="1"/>
        <pt x="351" y="528" on="0"/>
        <pt x="434" y="482" on="0"/>
        <pt x="485" y="405" on="0"/>
        <pt x="497" y="303" on="0"/>
        <pt x="479" y="246" on="1"/>
        <pt x="192" y="246" on="1"/>
        <pt x="203" y="276" on="0"/>
        <pt x="242" y="317" on="0"/>
      </contour>
    </TTGlyph>
    <TTGlyph name="ecircumflex" xMin="49" yMin="-11" xMax="497" yMax="743">
      <contour>
        <pt x="256" y="743" on="1"/>
        <pt x="327" y="743" on="1"/>
        <pt x="437" y="599" on="1"/>
        <pt x="376" y="589" on="1"/>
        <pt x="291" y="669" on="1"/>
        <pt x="206" y="588" on="1"/>
        <pt x="148" y="599" on="1"/>
      </contour>
      <contour>
        <pt x="275" y="317" on="1"/>
        <pt x="391" y="317" on="1"/>
        <pt x="394" y="344" on="0"/>
        <pt x="381" y="392" on="0"/>
        <pt x="354" y="428" on="0"/>
        <pt x="314" y="449" on="0"/>
        <pt x="290" y="449" on="1"/>
        <pt x="233" y="449" on="0"/>
        <pt x="155" y="356" on="0"/>
        <pt x="155" y="265" on="1"/>
        <pt x="155" y="221" on="0"/>
        <pt x="178" y="149" on="0"/>
        <pt x="219" y="98" on="0"/>
        <pt x="276" y="70" on="0"/>
        <pt x="309" y="70" on="1"/>
        <pt x="344" y="70" on="0"/>
        <pt x="407" y="85" on="0"/>
        <pt x="450" y="106" on="1"/>
        <pt x="478" y="33" on="1"/>
        <pt x="427" y="7" on="0"/>
        <pt x="336" y="-11" on="0"/>
        <pt x="297" y="-11" on="1"/>
        <pt x="238" y="-11" on="0"/>
        <pt x="146" y="33" on="0"/>
        <pt x="82" y="108" on="0"/>
        <pt x="49" y="208" on="0"/>
        <pt x="49" y="264" on="1"/>
        <pt x="49" y="325" on="0"/>
        <pt x="85" y="423" on="0"/>
        <pt x="151" y="491" on="0"/>
        <pt x="243" y="528" on="0"/>
        <pt x="299" y="528" on="1"/>
        <pt x="351" y="528" on="0"/>
        <pt x="434" y="482" on="0"/>
        <pt x="485" y="405" on="0"/>
        <pt x="497" y="303" on="0"/>
        <pt x="479" y="246" on="1"/>
        <pt x="192" y="246" on="1"/>
        <pt x="203" y="276" on="0"/>
        <pt x="242" y="317" on="0"/>
      </contour>
    </TTGlyph>
    <TTGlyph name="edieresis" xMin="50" yMin="-11" xMax="497" yMax="725">
      <contour>
        <pt x="327" y="670" on="1"/>
        <pt x="327" y="693" on="0"/>
        <pt x="360" y="725" on="0"/>
        <pt x="383" y="725" on="1"/>
        <pt x="406" y="725" on="0"/>
        <pt x="438" y="693" on="0"/>
        <pt x="438" y="670" on="1"/>
        <pt x="438" y="647" on="0"/>
        <pt x="406" y="615" on="0"/>
        <pt x="383" y="615" on="1"/>
        <pt x="360" y="615" on="0"/>
        <pt x="327" y="647" on="0"/>
      </contour>
      <contour>
        <pt x="133" y="670" on="1"/>
        <pt x="133" y="693" on="0"/>
        <pt x="165" y="725" on="0"/>
        <pt x="188" y="725" on="1"/>
        <pt x="211" y="725" on="0"/>
        <pt x="244" y="693" on="0"/>
        <pt x="244" y="670" on="1"/>
        <pt x="244" y="647" on="0"/>
        <pt x="211" y="615" on="0"/>
        <pt x="188" y="615" on="1"/>
        <pt x="165" y="615" on="0"/>
        <pt x="133" y="647" on="0"/>
      </contour>
      <contour>
        <pt x="275" y="317" on="1"/>
        <pt x="391" y="317" on="1"/>
        <pt x="394" y="344" on="0"/>
        <pt x="382" y="392" on="0"/>
        <pt x="354" y="428" on="0"/>
        <pt x="314" y="449" on="0"/>
        <pt x="290" y="449" on="1"/>
        <pt x="262" y="449" on="0"/>
        <pt x="213" y="425" on="0"/>
        <pt x="177" y="379" on="0"/>
        <pt x="156" y="310" on="0"/>
        <pt x="156" y="265" on="1"/>
        <pt x="156" y="221" on="0"/>
        <pt x="179" y="149" on="0"/>
        <pt x="219" y="98" on="0"/>
        <pt x="276" y="70" on="0"/>
        <pt x="309" y="70" on="1"/>
        <pt x="344" y="70" on="0"/>
        <pt x="407" y="85" on="0"/>
        <pt x="450" y="106" on="1"/>
        <pt x="478" y="33" on="1"/>
        <pt x="428" y="7" on="0"/>
        <pt x="337" y="-11" on="0"/>
        <pt x="298" y="-11" on="1"/>
        <pt x="239" y="-11" on="0"/>
        <pt x="147" y="33" on="0"/>
        <pt x="83" y="108" on="0"/>
        <pt x="50" y="208" on="0"/>
        <pt x="50" y="264" on="1"/>
        <pt x="50" y="325" on="0"/>
        <pt x="86" y="423" on="0"/>
        <pt x="152" y="491" on="0"/>
        <pt x="244" y="528" on="0"/>
        <pt x="300" y="528" on="1"/>
        <pt x="352" y="528" on="0"/>
        <pt x="435" y="482" on="0"/>
        <pt x="485" y="405" on="0"/>
        <pt x="497" y="303" on="0"/>
        <pt x="479" y="246" on="1"/>
        <pt x="192" y="246" on="1"/>
        <pt x="203" y="276" on="0"/>
        <pt x="242" y="317" on="0"/>
      </contour>
    </TTGlyph>
    <TTGlyph name="egrave" xMin="50" yMin="-11" xMax="497" yMax="740">
      <contour>
        <pt x="219" y="636" on="1"/>
        <pt x="149" y="740" on="1"/>
        <pt x="256" y="740" on="1"/>
        <pt x="329" y="602" on="1"/>
        <pt x="303" y="596" on="0"/>
        <pt x="241" y="609" on="0"/>
      </contour>
      <contour>
        <pt x="275" y="317" on="1"/>
        <pt x="391" y="317" on="1"/>
        <pt x="394" y="344" on="0"/>
        <pt x="382" y="392" on="0"/>
        <pt x="354" y="428" on="0"/>
        <pt x="314" y="449" on="0"/>
        <pt x="290" y="449" on="1"/>
        <pt x="262" y="449" on="0"/>
        <pt x="213" y="425" on="0"/>
        <pt x="177" y="379" on="0"/>
        <pt x="156" y="310" on="0"/>
        <pt x="156" y="265" on="1"/>
        <pt x="156" y="221" on="0"/>
        <pt x="179" y="149" on="0"/>
        <pt x="219" y="98" on="0"/>
        <pt x="276" y="70" on="0"/>
        <pt x="309" y="70" on="1"/>
        <pt x="344" y="70" on="0"/>
        <pt x="407" y="85" on="0"/>
        <pt x="450" y="106" on="1"/>
        <pt x="478" y="33" on="1"/>
        <pt x="428" y="7" on="0"/>
        <pt x="337" y="-11" on="0"/>
        <pt x="298" y="-11" on="1"/>
        <pt x="239" y="-11" on="0"/>
        <pt x="147" y="33" on="0"/>
        <pt x="83" y="108" on="0"/>
        <pt x="50" y="208" on="0"/>
        <pt x="50" y="264" on="1"/>
        <pt x="50" y="325" on="0"/>
        <pt x="86" y="423" on="0"/>
        <pt x="152" y="491" on="0"/>
        <pt x="244" y="528" on="0"/>
        <pt x="300" y="528" on="1"/>
        <pt x="352" y="528" on="0"/>
        <pt x="435" y="482" on="0"/>
        <pt x="485" y="405" on="0"/>
        <pt x="497" y="303" on="0"/>
        <pt x="479" y="246" on="1"/>
        <pt x="192" y="246" on="1"/>
        <pt x="203" y="276" on="0"/>
        <pt x="242" y="317" on="0"/>
      </contour>
    </TTGlyph>
    <TTGlyph name="eight" xMin="81" yMin="-14" xMax="561" yMax="713">
      <contour>
        <pt x="320" y="67" on="1"/>
        <pt x="382" y="67" on="0"/>
        <pt x="457" y="130" on="0"/>
        <pt x="457" y="178" on="1"/>
        <pt x="457" y="220" on="0"/>
        <pt x="405" y="272" on="0"/>
        <pt x="327" y="311" on="0"/>
        <pt x="235" y="347" on="0"/>
        <pt x="157" y="397" on="0"/>
        <pt x="105" y="472" on="0"/>
        <pt x="105" y="531" on="1"/>
        <pt x="105" y="574" on="0"/>
        <pt x="141" y="641" on="0"/>
        <pt x="201" y="688" on="0"/>
        <pt x="280" y="713" on="0"/>
        <pt x="323" y="713" on="1"/>
        <pt x="367" y="713" on="0"/>
        <pt x="445" y="688" on="0"/>
        <pt x="504" y="641" on="0"/>
        <pt x="538" y="574" on="0"/>
        <pt x="538" y="531" on="1"/>
        <pt x="538" y="486" on="0"/>
        <pt x="487" y="397" on="0"/>
        <pt x="448" y="359" on="1"/>
        <pt x="496" y="333" on="0"/>
        <pt x="561" y="248" on="0"/>
        <pt x="561" y="178" on="1"/>
        <pt x="561" y="132" on="0"/>
        <pt x="523" y="60" on="0"/>
        <pt x="457" y="11" on="0"/>
        <pt x="369" y="-14" on="0"/>
        <pt x="320" y="-14" on="1"/>
        <pt x="269" y="-14" on="0"/>
        <pt x="182" y="11" on="0"/>
        <pt x="118" y="60" on="0"/>
        <pt x="81" y="132" on="0"/>
        <pt x="81" y="178" on="1"/>
        <pt x="81" y="212" on="0"/>
        <pt x="114" y="291" on="0"/>
        <pt x="165" y="345" on="1"/>
        <pt x="185" y="321" on="0"/>
        <pt x="206" y="263" on="0"/>
        <pt x="194" y="234" on="1"/>
        <pt x="181" y="208" on="0"/>
        <pt x="181" y="187" on="1"/>
        <pt x="181" y="130" on="0"/>
        <pt x="260" y="67" on="0"/>
      </contour>
      <contour>
        <pt x="209" y="531" on="1"/>
        <pt x="209" y="504" on="0"/>
        <pt x="237" y="465" on="0"/>
        <pt x="282" y="435" on="0"/>
        <pt x="341" y="409" on="0"/>
        <pt x="372" y="396" on="1"/>
        <pt x="402" y="426" on="0"/>
        <pt x="436" y="485" on="0"/>
        <pt x="437" y="519" on="1"/>
        <pt x="437" y="548" on="0"/>
        <pt x="417" y="590" on="0"/>
        <pt x="385" y="618" on="0"/>
        <pt x="344" y="631" on="0"/>
        <pt x="323" y="631" on="1"/>
        <pt x="301" y="631" on="0"/>
        <pt x="260" y="618" on="0"/>
        <pt x="228" y="592" on="0"/>
        <pt x="209" y="555" on="0"/>
      </contour>
    </TTGlyph>
    <TTGlyph name="ellipsis" xMin="86" yMin="-15" xMax="759" yMax="118">
      <contour>
        <pt x="626" y="51" on="1"/>
        <pt x="626" y="80" on="0"/>
        <pt x="663" y="118" on="0"/>
        <pt x="692" y="118" on="1"/>
        <pt x="721" y="118" on="0"/>
        <pt x="759" y="80" on="0"/>
        <pt x="759" y="51" on="1"/>
        <pt x="759" y="22" on="0"/>
        <pt x="721" y="-15" on="0"/>
        <pt x="692" y="-15" on="1"/>
        <pt x="663" y="-15" on="0"/>
        <pt x="626" y="22" on="0"/>
      </contour>
      <contour>
        <pt x="356" y="51" on="1"/>
        <pt x="356" y="80" on="0"/>
        <pt x="393" y="118" on="0"/>
        <pt x="422" y="118" on="1"/>
        <pt x="451" y="118" on="0"/>
        <pt x="489" y="80" on="0"/>
        <pt x="489" y="51" on="1"/>
        <pt x="489" y="22" on="0"/>
        <pt x="451" y="-15" on="0"/>
        <pt x="422" y="-15" on="1"/>
        <pt x="393" y="-15" on="0"/>
        <pt x="356" y="22" on="0"/>
      </contour>
      <contour>
        <pt x="86" y="51" on="1"/>
        <pt x="86" y="80" on="0"/>
        <pt x="123" y="118" on="0"/>
        <pt x="152" y="118" on="1"/>
        <pt x="181" y="118" on="0"/>
        <pt x="219" y="80" on="0"/>
        <pt x="219" y="51" on="1"/>
        <pt x="219" y="22" on="0"/>
        <pt x="181" y="-15" on="0"/>
        <pt x="152" y="-15" on="1"/>
        <pt x="123" y="-15" on="0"/>
        <pt x="86" y="22" on="0"/>
      </contour>
    </TTGlyph>
    <TTGlyph name="emdash" xMin="45" yMin="238" xMax="784" yMax="312">
      <contour>
        <pt x="784" y="238" on="1"/>
        <pt x="45" y="238" on="1"/>
        <pt x="45" y="312" on="1"/>
        <pt x="784" y="312" on="1"/>
      </contour>
    </TTGlyph>
    <TTGlyph name="endash" xMin="45" yMin="238" xMax="469" yMax="312">
      <contour>
        <pt x="469" y="238" on="1"/>
        <pt x="45" y="238" on="1"/>
        <pt x="45" y="312" on="1"/>
        <pt x="469" y="312" on="1"/>
      </contour>
    </TTGlyph>
    <TTGlyph name="equal" xMin="67" yMin="172" xMax="539" yMax="469">
      <contour>
        <pt x="67" y="393" on="1"/>
        <pt x="67" y="469" on="1"/>
        <pt x="539" y="469" on="1"/>
        <pt x="539" y="393" on="1"/>
      </contour>
      <contour>
        <pt x="67" y="172" on="1"/>
        <pt x="67" y="248" on="1"/>
        <pt x="539" y="248" on="1"/>
        <pt x="539" y="172" on="1"/>
      </contour>
    </TTGlyph>
    <TTGlyph name="eth" xMin="32" yMin="-11" xMax="530" yMax="761">
      <contour>
        <pt x="417" y="259" on="1"/>
        <pt x="417" y="351" on="0"/>
        <pt x="339" y="447" on="0"/>
        <pt x="281" y="447" on="1"/>
        <pt x="224" y="447" on="0"/>
        <pt x="146" y="351" on="0"/>
        <pt x="146" y="259" on="1"/>
        <pt x="146" y="166" on="0"/>
        <pt x="223" y="70" on="0"/>
        <pt x="281" y="70" on="1"/>
        <pt x="339" y="70" on="0"/>
        <pt x="417" y="166" on="0"/>
      </contour>
      <contour>
        <pt x="530" y="259" on="1"/>
        <pt x="530" y="196" on="0"/>
        <pt x="490" y="96" on="0"/>
        <pt x="422" y="26" on="0"/>
        <pt x="332" y="-11" on="0"/>
        <pt x="281" y="-11" on="1"/>
        <pt x="229" y="-11" on="0"/>
        <pt x="138" y="25" on="0"/>
        <pt x="71" y="94" on="0"/>
        <pt x="32" y="194" on="0"/>
        <pt x="32" y="259" on="1"/>
        <pt x="32" y="322" on="0"/>
        <pt x="72" y="421" on="0"/>
        <pt x="140" y="491" on="0"/>
        <pt x="230" y="528" on="0"/>
        <pt x="281" y="528" on="1"/>
        <pt x="306" y="528" on="0"/>
        <pt x="352" y="513" on="0"/>
        <pt x="381" y="497" on="1"/>
        <pt x="353" y="531" on="0"/>
        <pt x="293" y="592" on="0"/>
        <pt x="271" y="609" on="1"/>
        <pt x="149" y="551" on="1"/>
        <pt x="128" y="598" on="1"/>
        <pt x="221" y="644" on="1"/>
        <pt x="199" y="659" on="0"/>
        <pt x="153" y="685" on="0"/>
        <pt x="127" y="697" on="1"/>
        <pt x="162" y="761" on="1"/>
        <pt x="198" y="744" on="0"/>
        <pt x="270" y="705" on="0"/>
        <pt x="302" y="682" on="1"/>
        <pt x="414" y="735" on="1"/>
        <pt x="437" y="687" on="1"/>
        <pt x="350" y="645" on="1"/>
        <pt x="375" y="624" on="0"/>
        <pt x="438" y="549" on="0"/>
        <pt x="493" y="449" on="0"/>
        <pt x="530" y="327" on="0"/>
      </contour>
    </TTGlyph>
    <TTGlyph name="exclam" xMin="48" yMin="-15" xMax="182" yMax="727">
      <contour>
        <pt x="49" y="51" on="1"/>
        <pt x="49" y="80" on="0"/>
        <pt x="86" y="119" on="0"/>
        <pt x="115" y="119" on="1"/>
        <pt x="144" y="119" on="0"/>
        <pt x="182" y="80" on="0"/>
        <pt x="182" y="51" on="1"/>
        <pt x="182" y="22" on="0"/>
        <pt x="144" y="-15" on="0"/>
        <pt x="115" y="-15" on="1"/>
        <pt x="86" y="-15" on="0"/>
        <pt x="48" y="22" on="0"/>
      </contour>
      <contour>
        <pt x="63" y="727" on="1"/>
        <pt x="171" y="727" on="1"/>
        <pt x="155" y="198" on="1"/>
        <pt x="77" y="198" on="1"/>
      </contour>
    </TTGlyph>
    <TTGlyph name="exclamdown" xMin="49" yMin="-210" xMax="182" yMax="532">
      <contour>
        <pt x="49" y="466" on="1"/>
        <pt x="49" y="495" on="0"/>
        <pt x="86" y="532" on="0"/>
        <pt x="115" y="532" on="1"/>
        <pt x="144" y="532" on="0"/>
        <pt x="182" y="495" on="0"/>
        <pt x="182" y="466" on="1"/>
        <pt x="182" y="437" on="0"/>
        <pt x="144" y="398" on="0"/>
        <pt x="115" y="398" on="1"/>
        <pt x="86" y="398" on="0"/>
        <pt x="49" y="437" on="0"/>
      </contour>
      <contour>
        <pt x="171" y="-210" on="1"/>
        <pt x="63" y="-210" on="1"/>
        <pt x="77" y="319" on="1"/>
        <pt x="155" y="319" on="1"/>
      </contour>
    </TTGlyph>
    <TTGlyph name="f" xMin="10" yMin="0" xMax="419" yMax="763">
      <contour>
        <pt x="320" y="517" on="1"/>
        <pt x="375" y="517" on="1"/>
        <pt x="375" y="439" on="1"/>
        <pt x="231" y="439" on="1"/>
        <pt x="241" y="469" on="0"/>
        <pt x="282" y="517" on="0"/>
      </contour>
      <contour>
        <pt x="95" y="439" on="1"/>
        <pt x="10" y="439" on="1"/>
        <pt x="10" y="496" on="1"/>
        <pt x="95" y="517" on="1"/>
        <pt x="95" y="545" on="1"/>
        <pt x="95" y="594" on="0"/>
        <pt x="122" y="675" on="0"/>
        <pt x="173" y="732" on="0"/>
        <pt x="248" y="763" on="0"/>
        <pt x="295" y="763" on="1"/>
        <pt x="320" y="763" on="0"/>
        <pt x="384" y="752" on="0"/>
        <pt x="419" y="736" on="1"/>
        <pt x="395" y="667" on="1"/>
        <pt x="364" y="678" on="0"/>
        <pt x="324" y="685" on="0"/>
        <pt x="307" y="685" on="1"/>
        <pt x="285" y="685" on="0"/>
        <pt x="244" y="669" on="0"/>
        <pt x="213" y="636" on="0"/>
        <pt x="195" y="586" on="0"/>
        <pt x="195" y="552" on="1"/>
        <pt x="195" y="0" on="1"/>
        <pt x="95" y="0" on="1"/>
      </contour>
    </TTGlyph>
    <TTGlyph name="five" xMin="38" yMin="-11" xMax="472" yMax="701">
      <contour>
        <pt x="176" y="613" on="1"/>
        <pt x="174" y="577" on="0"/>
        <pt x="167" y="506" on="0"/>
        <pt x="165" y="471" on="1"/>
        <pt x="161" y="417" on="1"/>
        <pt x="178" y="419" on="0"/>
        <pt x="209" y="423" on="0"/>
        <pt x="226" y="423" on="1"/>
        <pt x="287" y="423" on="0"/>
        <pt x="380" y="387" on="0"/>
        <pt x="441" y="328" on="0"/>
        <pt x="472" y="251" on="0"/>
        <pt x="472" y="209" on="1"/>
        <pt x="472" y="164" on="0"/>
        <pt x="436" y="84" on="0"/>
        <pt x="370" y="24" on="0"/>
        <pt x="274" y="-11" on="0"/>
        <pt x="214" y="-11" on="1"/>
        <pt x="195" y="-11" on="0"/>
        <pt x="150" y="-5" on="0"/>
        <pt x="103" y="7" on="0"/>
        <pt x="58" y="25" on="0"/>
        <pt x="38" y="37" on="1"/>
        <pt x="64" y="110" on="1"/>
        <pt x="107" y="87" on="0"/>
        <pt x="184" y="70" on="0"/>
        <pt x="213" y="70" on="1"/>
        <pt x="253" y="70" on="0"/>
        <pt x="309" y="96" on="0"/>
        <pt x="344" y="137" on="0"/>
        <pt x="360" y="187" on="0"/>
        <pt x="360" y="211" on="1"/>
        <pt x="360" y="279" on="0"/>
        <pt x="271" y="343" on="0"/>
        <pt x="201" y="343" on="1"/>
        <pt x="175" y="343" on="0"/>
        <pt x="104" y="334" on="0"/>
        <pt x="70" y="325" on="1"/>
        <pt x="95" y="701" on="1"/>
        <pt x="442" y="701" on="1"/>
        <pt x="442" y="613" on="1"/>
      </contour>
    </TTGlyph>
    <TTGlyph name="florin" xMin="-1" yMin="-141" xMax="509" yMax="711">
      <contour>
        <pt x="16" y="-141" on="1"/>
        <pt x="-1" y="-75" on="1"/>
        <pt x="23" y="-67" on="0"/>
        <pt x="65" y="-46" on="0"/>
        <pt x="98" y="-13" on="0"/>
        <pt x="120" y="35" on="0"/>
        <pt x="123" y="70" on="1"/>
        <pt x="155" y="388" on="1"/>
        <pt x="75" y="388" on="1"/>
        <pt x="75" y="445" on="1"/>
        <pt x="163" y="465" on="1"/>
        <pt x="166" y="493" on="1"/>
        <pt x="171" y="542" on="0"/>
        <pt x="206" y="623" on="0"/>
        <pt x="263" y="680" on="0"/>
        <pt x="340" y="711" on="0"/>
        <pt x="387" y="711" on="1"/>
        <pt x="412" y="711" on="0"/>
        <pt x="474" y="700" on="0"/>
        <pt x="509" y="684" on="1"/>
        <pt x="478" y="615" on="1"/>
        <pt x="449" y="626" on="0"/>
        <pt x="408" y="633" on="0"/>
        <pt x="392" y="633" on="1"/>
        <pt x="370" y="633" on="0"/>
        <pt x="328" y="617" on="0"/>
        <pt x="293" y="584" on="0"/>
        <pt x="270" y="534" on="0"/>
        <pt x="266" y="500" on="1"/>
        <pt x="224" y="75" on="1"/>
        <pt x="219" y="25" on="0"/>
        <pt x="185" y="-47" on="0"/>
        <pt x="131" y="-98" on="0"/>
        <pt x="59" y="-131" on="0"/>
      </contour>
      <contour>
        <pt x="387" y="465" on="1"/>
        <pt x="443" y="465" on="1"/>
        <pt x="443" y="388" on="1"/>
        <pt x="291" y="388" on="1"/>
        <pt x="304" y="417" on="0"/>
        <pt x="349" y="465" on="0"/>
      </contour>
    </TTGlyph>
    <TTGlyph name="four" xMin="39" yMin="0" xMax="546" yMax="701">
      <contour>
        <pt x="39" y="223" on="1"/>
        <pt x="355" y="701" on="1"/>
        <pt x="466" y="701" on="1"/>
        <pt x="466" y="231" on="1"/>
        <pt x="546" y="231" on="1"/>
        <pt x="546" y="152" on="1"/>
        <pt x="466" y="152" on="1"/>
        <pt x="466" y="0" on="1"/>
        <pt x="366" y="0" on="1"/>
        <pt x="366" y="538" on="1"/>
        <pt x="368" y="567" on="1"/>
        <pt x="353" y="541" on="1"/>
        <pt x="174" y="276" on="1"/>
        <pt x="169" y="268" on="0"/>
        <pt x="158" y="252" on="0"/>
        <pt x="152" y="244" on="1"/>
        <pt x="140" y="230" on="1"/>
        <pt x="145" y="231" on="0"/>
        <pt x="153" y="231" on="0"/>
        <pt x="157" y="232" on="1"/>
        <pt x="233" y="232" on="1"/>
        <pt x="254" y="232" on="0"/>
        <pt x="286" y="215" on="0"/>
        <pt x="310" y="190" on="0"/>
        <pt x="326" y="162" on="0"/>
        <pt x="330" y="152" on="1"/>
        <pt x="39" y="152" on="1"/>
      </contour>
    </TTGlyph>
    <TTGlyph name="g" xMin="50" yMin="-250" xMax="506" yMax="528">
      <contour>
        <pt x="50" y="251" on="1"/>
        <pt x="50" y="312" on="0"/>
        <pt x="89" y="413" on="0"/>
        <pt x="160" y="487" on="0"/>
        <pt x="259" y="528" on="0"/>
        <pt x="320" y="528" on="1"/>
        <pt x="362" y="528" on="0"/>
        <pt x="447" y="514" on="0"/>
        <pt x="506" y="496" on="1"/>
        <pt x="506" y="0" on="1"/>
        <pt x="506" y="-60" on="0"/>
        <pt x="470" y="-153" on="0"/>
        <pt x="405" y="-217" on="0"/>
        <pt x="315" y="-250" on="0"/>
        <pt x="260" y="-250" on="1"/>
        <pt x="221" y="-250" on="0"/>
        <pt x="127" y="-234" on="0"/>
        <pt x="75" y="-208" on="1"/>
        <pt x="103" y="-133" on="1"/>
        <pt x="148" y="-153" on="0"/>
        <pt x="220" y="-170" on="0"/>
        <pt x="252" y="-170" on="1"/>
        <pt x="283" y="-170" on="0"/>
        <pt x="337" y="-151" on="0"/>
        <pt x="378" y="-111" on="0"/>
        <pt x="402" y="-52" on="0"/>
        <pt x="402" y="-11" on="1"/>
        <pt x="402" y="436" on="1"/>
        <pt x="379" y="442" on="0"/>
        <pt x="341" y="447" on="0"/>
        <pt x="322" y="447" on="1"/>
        <pt x="249" y="447" on="0"/>
        <pt x="163" y="344" on="0"/>
        <pt x="163" y="251" on="1"/>
        <pt x="163" y="214" on="0"/>
        <pt x="178" y="148" on="0"/>
        <pt x="208" y="99" on="0"/>
        <pt x="254" y="73" on="0"/>
        <pt x="286" y="76" on="1"/>
        <pt x="332" y="79" on="0"/>
        <pt x="367" y="30" on="1"/>
        <pt x="341" y="13" on="0"/>
        <pt x="286" y="-5" on="0"/>
        <pt x="263" y="-7" on="1"/>
        <pt x="218" y="-10" on="0"/>
        <pt x="140" y="28" on="0"/>
        <pt x="83" y="98" on="0"/>
        <pt x="50" y="195" on="0"/>
      </contour>
    </TTGlyph>
    <TTGlyph name="germandbls" xMin="84" yMin="-12" xMax="552" yMax="763">
      <contour>
        <pt x="249" y="25" on="1"/>
        <pt x="276" y="95" on="1"/>
        <pt x="309" y="81" on="0"/>
        <pt x="363" y="69" on="0"/>
        <pt x="383" y="69" on="1"/>
        <pt x="412" y="69" on="0"/>
        <pt x="452" y="107" on="0"/>
        <pt x="452" y="138" on="1"/>
        <pt x="452" y="163" on="0"/>
        <pt x="426" y="201" on="0"/>
        <pt x="388" y="234" on="0"/>
        <pt x="342" y="266" on="0"/>
        <pt x="304" y="308" on="0"/>
        <pt x="278" y="362" on="0"/>
        <pt x="278" y="401" on="1"/>
        <pt x="278" y="445" on="0"/>
        <pt x="337" y="520" on="0"/>
        <pt x="391" y="542" on="1"/>
        <pt x="397" y="564" on="0"/>
        <pt x="397" y="588" on="1"/>
        <pt x="397" y="609" on="0"/>
        <pt x="381" y="645" on="0"/>
        <pt x="354" y="671" on="0"/>
        <pt x="319" y="686" on="0"/>
        <pt x="300" y="686" on="1"/>
        <pt x="279" y="686" on="0"/>
        <pt x="237" y="671" on="0"/>
        <pt x="205" y="639" on="0"/>
        <pt x="185" y="589" on="0"/>
        <pt x="185" y="555" on="1"/>
        <pt x="185" y="0" on="1"/>
        <pt x="84" y="0" on="1"/>
        <pt x="84" y="545" on="1"/>
        <pt x="84" y="596" on="0"/>
        <pt x="114" y="677" on="0"/>
        <pt x="168" y="733" on="0"/>
        <pt x="244" y="763" on="0"/>
        <pt x="290" y="763" on="1"/>
        <pt x="336" y="763" on="0"/>
        <pt x="409" y="735" on="0"/>
        <pt x="458" y="688" on="0"/>
        <pt x="484" y="624" on="0"/>
        <pt x="484" y="588" on="1"/>
        <pt x="484" y="562" on="0"/>
        <pt x="467" y="512" on="0"/>
        <pt x="448" y="482" on="1"/>
        <pt x="414" y="466" on="0"/>
        <pt x="378" y="430" on="0"/>
        <pt x="378" y="401" on="1"/>
        <pt x="378" y="376" on="0"/>
        <pt x="404" y="339" on="0"/>
        <pt x="442" y="306" on="0"/>
        <pt x="488" y="273" on="0"/>
        <pt x="526" y="231" on="0"/>
        <pt x="552" y="174" on="0"/>
        <pt x="552" y="134" on="1"/>
        <pt x="552" y="103" on="0"/>
        <pt x="527" y="49" on="0"/>
        <pt x="483" y="10" on="0"/>
        <pt x="426" y="-12" on="0"/>
        <pt x="394" y="-12" on="1"/>
        <pt x="364" y="-12" on="0"/>
        <pt x="297" y="1" on="0"/>
      </contour>
    </TTGlyph>
    <TTGlyph name="grave" xMin="20" yMin="594" xMax="193" yMax="727">
      <contour>
        <pt x="92" y="631" on="1"/>
        <pt x="20" y="727" on="1"/>
        <pt x="127" y="727" on="1"/>
        <pt x="193" y="602" on="1"/>
        <pt x="163" y="594" on="0"/>
        <pt x="111" y="607" on="0"/>
      </contour>
    </TTGlyph>
    <TTGlyph name="greater" xMin="42" yMin="0" xMax="559" yMax="552">
      <contour>
        <pt x="42" y="95" on="1"/>
        <pt x="140" y="139" on="0"/>
        <pt x="334" y="225" on="0"/>
        <pt x="432" y="270" on="1"/>
        <pt x="458" y="276" on="1"/>
        <pt x="432" y="283" on="1"/>
        <pt x="42" y="457" on="1"/>
        <pt x="42" y="552" on="1"/>
        <pt x="559" y="307" on="1"/>
        <pt x="559" y="245" on="1"/>
        <pt x="42" y="0" on="1"/>
      </contour>
    </TTGlyph>
    <TTGlyph name="guillemotleft" xMin="65" yMin="49" xMax="590" yMax="468">
      <contour>
        <pt x="543" y="49" on="1"/>
        <pt x="322" y="258" on="1"/>
        <pt x="543" y="468" on="1"/>
        <pt x="590" y="422" on="1"/>
        <pt x="451" y="258" on="1"/>
        <pt x="590" y="94" on="1"/>
      </contour>
      <contour>
        <pt x="286" y="49" on="1"/>
        <pt x="65" y="258" on="1"/>
        <pt x="286" y="468" on="1"/>
        <pt x="333" y="422" on="1"/>
        <pt x="194" y="258" on="1"/>
        <pt x="333" y="94" on="1"/>
      </contour>
    </TTGlyph>
    <TTGlyph name="guillemotright" xMin="62" yMin="49" xMax="587" yMax="468">
      <contour>
        <pt x="587" y="258" on="1"/>
        <pt x="366" y="49" on="1"/>
        <pt x="319" y="94" on="1"/>
        <pt x="457" y="258" on="1"/>
        <pt x="319" y="422" on="1"/>
        <pt x="366" y="468" on="1"/>
      </contour>
      <contour>
        <pt x="330" y="258" on="1"/>
        <pt x="109" y="49" on="1"/>
        <pt x="62" y="94" on="1"/>
        <pt x="201" y="258" on="1"/>
        <pt x="62" y="422" on="1"/>
        <pt x="109" y="468" on="1"/>
      </contour>
    </TTGlyph>
    <TTGlyph name="guilsinglleft" xMin="190" yMin="49" xMax="458" yMax="468">
      <contour>
        <pt x="411" y="49" on="1"/>
        <pt x="190" y="258" on="1"/>
        <pt x="411" y="468" on="1"/>
        <pt x="458" y="422" on="1"/>
        <pt x="320" y="258" on="1"/>
        <pt x="458" y="94" on="1"/>
      </contour>
    </TTGlyph>
    <TTGlyph name="guilsinglright" xMin="195" yMin="49" xMax="463" yMax="468">
      <contour>
        <pt x="463" y="258" on="1"/>
        <pt x="242" y="49" on="1"/>
        <pt x="195" y="94" on="1"/>
        <pt x="333" y="258" on="1"/>
        <pt x="195" y="422" on="1"/>
        <pt x="242" y="468" on="1"/>
      </contour>
    </TTGlyph>
    <TTGlyph name="h" xMin="80" yMin="0" xMax="512" yMax="758">
      <contour>
        <pt x="403" y="0" on="1"/>
        <pt x="403" y="373" on="1"/>
        <pt x="403" y="405" on="0"/>
        <pt x="378" y="446" on="0"/>
        <pt x="351" y="446" on="1"/>
        <pt x="342" y="446" on="0"/>
        <pt x="323" y="442" on="0"/>
        <pt x="304" y="438" on="0"/>
        <pt x="284" y="436" on="0"/>
        <pt x="274" y="438" on="1"/>
        <pt x="259" y="440" on="0"/>
        <pt x="233" y="461" on="0"/>
        <pt x="222" y="477" on="1"/>
        <pt x="274" y="508" on="0"/>
        <pt x="344" y="528" on="0"/>
        <pt x="372" y="528" on="1"/>
        <pt x="400" y="528" on="0"/>
        <pt x="451" y="511" on="0"/>
        <pt x="489" y="474" on="0"/>
        <pt x="512" y="412" on="0"/>
        <pt x="512" y="367" on="1"/>
        <pt x="512" y="0" on="1"/>
      </contour>
      <contour>
        <pt x="186" y="0" on="1"/>
        <pt x="80" y="0" on="1"/>
        <pt x="80" y="758" on="1"/>
        <pt x="186" y="758" on="1"/>
      </contour>
    </TTGlyph>
    <TTGlyph name="hyphen" xMin="45" yMin="268" xMax="347" yMax="342">
      <contour>
        <pt x="347" y="268" on="1"/>
        <pt x="45" y="268" on="1"/>
        <pt x="45" y="342" on="1"/>
        <pt x="347" y="342" on="1"/>
      </contour>
    </TTGlyph>
    <TTGlyph name="i" xMin="65" yMin="0" xMax="198" yMax="735">
      <contour>
        <pt x="65" y="667" on="1"/>
        <pt x="65" y="696" on="0"/>
        <pt x="103" y="735" on="0"/>
        <pt x="131" y="735" on="1"/>
        <pt x="160" y="735" on="0"/>
        <pt x="198" y="696" on="0"/>
        <pt x="198" y="667" on="1"/>
        <pt x="198" y="639" on="0"/>
        <pt x="160" y="601" on="0"/>
        <pt x="131" y="601" on="1"/>
        <pt x="103" y="601" on="0"/>
        <pt x="65" y="639" on="0"/>
      </contour>
      <contour>
        <pt x="186" y="0" on="1"/>
        <pt x="77" y="0" on="1"/>
        <pt x="77" y="517" on="1"/>
        <pt x="186" y="517" on="1"/>
      </contour>
    </TTGlyph>
    <TTGlyph name="iacute" xMin="64" yMin="0" xMax="264" yMax="740">
      <contour>
        <pt x="264" y="740" on="1"/>
        <pt x="179" y="635" on="1"/>
        <pt x="156" y="607" on="0"/>
        <pt x="92" y="595" on="0"/>
        <pt x="67" y="602" on="1"/>
        <pt x="155" y="740" on="1"/>
      </contour>
      <contour>
        <pt x="172" y="0" on="1"/>
        <pt x="64" y="0" on="1"/>
        <pt x="64" y="517" on="1"/>
        <pt x="172" y="517" on="1"/>
      </contour>
    </TTGlyph>
    <TTGlyph name="icircumflex" xMin="24" yMin="0" xMax="313" yMax="743">
      <contour>
        <pt x="132" y="743" on="1"/>
        <pt x="203" y="743" on="1"/>
        <pt x="313" y="599" on="1"/>
        <pt x="252" y="589" on="1"/>
        <pt x="167" y="669" on="1"/>
        <pt x="82" y="588" on="1"/>
        <pt x="24" y="599" on="1"/>
      </contour>
      <contour>
        <pt x="221" y="0" on="1"/>
        <pt x="113" y="0" on="1"/>
        <pt x="113" y="517" on="1"/>
        <pt x="221" y="517" on="1"/>
      </contour>
    </TTGlyph>
    <TTGlyph name="idieresis" xMin="23" yMin="0" xMax="328" yMax="725">
      <contour>
        <pt x="217" y="670" on="1"/>
        <pt x="217" y="693" on="0"/>
        <pt x="249" y="725" on="0"/>
        <pt x="272" y="725" on="1"/>
        <pt x="295" y="725" on="0"/>
        <pt x="328" y="693" on="0"/>
        <pt x="328" y="670" on="1"/>
        <pt x="328" y="647" on="0"/>
        <pt x="295" y="615" on="0"/>
        <pt x="272" y="615" on="1"/>
        <pt x="249" y="615" on="0"/>
        <pt x="217" y="647" on="0"/>
      </contour>
      <contour>
        <pt x="23" y="670" on="1"/>
        <pt x="23" y="693" on="0"/>
        <pt x="56" y="725" on="0"/>
        <pt x="78" y="725" on="1"/>
        <pt x="101" y="725" on="0"/>
        <pt x="135" y="693" on="0"/>
        <pt x="135" y="670" on="1"/>
        <pt x="135" y="647" on="0"/>
        <pt x="101" y="615" on="0"/>
        <pt x="78" y="615" on="1"/>
        <pt x="56" y="615" on="0"/>
        <pt x="23" y="647" on="0"/>
      </contour>
      <contour>
        <pt x="231" y="0" on="1"/>
        <pt x="122" y="0" on="1"/>
        <pt x="122" y="517" on="1"/>
        <pt x="231" y="517" on="1"/>
      </contour>
    </TTGlyph>
    <TTGlyph name="igrave" xMin="13" yMin="0" xMax="213" yMax="740">
      <contour>
        <pt x="83" y="636" on="1"/>
        <pt x="13" y="740" on="1"/>
        <pt x="120" y="740" on="1"/>
        <pt x="193" y="602" on="1"/>
        <pt x="167" y="596" on="0"/>
        <pt x="105" y="609" on="0"/>
      </contour>
      <contour>
        <pt x="213" y="0" on="1"/>
        <pt x="104" y="0" on="1"/>
        <pt x="104" y="517" on="1"/>
        <pt x="213" y="517" on="1"/>
      </contour>
    </TTGlyph>
    <TTGlyph name="j" xMin="-28" yMin="-248" xMax="218" yMax="735">
      <contour>
        <pt x="204" y="517" on="1"/>
        <pt x="204" y="42" on="1"/>
        <pt x="204" y="0" on="0"/>
        <pt x="189" y="-72" on="0"/>
        <pt x="148" y="-140" on="0"/>
        <pt x="76" y="-209" on="0"/>
        <pt x="20" y="-248" on="1"/>
        <pt x="-28" y="-189" on="1"/>
        <pt x="12" y="-155" on="0"/>
        <pt x="60" y="-101" on="0"/>
        <pt x="87" y="-50" on="0"/>
        <pt x="96" y="6" on="0"/>
        <pt x="96" y="42" on="1"/>
        <pt x="96" y="517" on="1"/>
      </contour>
      <contour>
        <pt x="84" y="667" on="1"/>
        <pt x="84" y="696" on="0"/>
        <pt x="120" y="735" on="0"/>
        <pt x="149" y="735" on="1"/>
        <pt x="179" y="735" on="0"/>
        <pt x="218" y="696" on="0"/>
        <pt x="218" y="667" on="1"/>
        <pt x="218" y="638" on="0"/>
        <pt x="179" y="601" on="0"/>
        <pt x="149" y="601" on="1"/>
        <pt x="120" y="601" on="0"/>
        <pt x="84" y="638" on="0"/>
      </contour>
    </TTGlyph>
    <TTGlyph name="k" xMin="80" yMin="0" xMax="571" yMax="758">
      <contour>
        <pt x="541" y="517" on="1"/>
        <pt x="375" y="336" on="1"/>
        <pt x="571" y="0" on="1"/>
        <pt x="451" y="0" on="1"/>
        <pt x="333" y="221" on="1"/>
        <pt x="310" y="266" on="1"/>
        <pt x="236" y="182" on="1"/>
        <pt x="225" y="218" on="0"/>
        <pt x="239" y="302" on="0"/>
        <pt x="265" y="337" on="1"/>
        <pt x="274" y="350" on="0"/>
        <pt x="293" y="373" on="0"/>
        <pt x="303" y="385" on="1"/>
        <pt x="416" y="517" on="1"/>
      </contour>
      <contour>
        <pt x="186" y="758" on="1"/>
        <pt x="186" y="0" on="1"/>
        <pt x="80" y="0" on="1"/>
        <pt x="80" y="758" on="1"/>
      </contour>
    </TTGlyph>
    <TTGlyph name="l" xMin="82" yMin="0" xMax="187" yMax="758">
      <contour>
        <pt x="187" y="758" on="1"/>
        <pt x="187" y="0" on="1"/>
        <pt x="82" y="0" on="1"/>
        <pt x="82" y="758" on="1"/>
      </contour>
    </TTGlyph>
    <TTGlyph name="less" xMin="37" yMin="0" xMax="554" yMax="552">
      <contour>
        <pt x="164" y="270" on="1"/>
        <pt x="554" y="95" on="1"/>
        <pt x="554" y="0" on="1"/>
        <pt x="37" y="245" on="1"/>
        <pt x="37" y="307" on="1"/>
        <pt x="554" y="552" on="1"/>
        <pt x="554" y="457" on="1"/>
        <pt x="456" y="413" on="0"/>
        <pt x="263" y="325" on="0"/>
        <pt x="164" y="283" on="1"/>
        <pt x="138" y="276" on="1"/>
      </contour>
    </TTGlyph>
    <TTGlyph name="logicalnot" xMin="43" yMin="156" xMax="534" yMax="443">
      <contour>
        <pt x="43" y="443" on="1"/>
        <pt x="534" y="443" on="1"/>
        <pt x="534" y="156" on="1"/>
        <pt x="451" y="156" on="1"/>
        <pt x="451" y="369" on="1"/>
        <pt x="43" y="369" on="1"/>
      </contour>
    </TTGlyph>
    <TTGlyph name="m" xMin="67" yMin="0" xMax="832" yMax="528">
      <contour>
        <pt x="724" y="0" on="1"/>
        <pt x="724" y="373" on="1"/>
        <pt x="724" y="405" on="0"/>
        <pt x="696" y="446" on="0"/>
        <pt x="665" y="446" on="1"/>
        <pt x="656" y="446" on="0"/>
        <pt x="635" y="442" on="0"/>
        <pt x="614" y="438" on="0"/>
        <pt x="592" y="436" on="0"/>
        <pt x="582" y="438" on="1"/>
        <pt x="565" y="440" on="0"/>
        <pt x="538" y="462" on="0"/>
        <pt x="527" y="478" on="1"/>
        <pt x="581" y="507" on="0"/>
        <pt x="657" y="528" on="0"/>
        <pt x="686" y="528" on="1"/>
        <pt x="714" y="528" on="0"/>
        <pt x="767" y="511" on="0"/>
        <pt x="808" y="474" on="0"/>
        <pt x="832" y="412" on="0"/>
        <pt x="832" y="367" on="1"/>
        <pt x="832" y="0" on="1"/>
      </contour>
      <contour>
        <pt x="403" y="0" on="1"/>
        <pt x="403" y="373" on="1"/>
        <pt x="403" y="405" on="0"/>
        <pt x="378" y="446" on="0"/>
        <pt x="349" y="446" on="1"/>
        <pt x="329" y="446" on="0"/>
        <pt x="289" y="434" on="0"/>
        <pt x="270" y="439" on="1"/>
        <pt x="254" y="441" on="0"/>
        <pt x="228" y="463" on="0"/>
        <pt x="216" y="479" on="1"/>
        <pt x="270" y="508" on="0"/>
        <pt x="342" y="528" on="0"/>
        <pt x="371" y="528" on="1"/>
        <pt x="399" y="528" on="0"/>
        <pt x="451" y="511" on="0"/>
        <pt x="489" y="474" on="0"/>
        <pt x="512" y="412" on="0"/>
        <pt x="512" y="367" on="1"/>
        <pt x="512" y="0" on="1"/>
      </contour>
      <contour>
        <pt x="67" y="517" on="1"/>
        <pt x="152" y="517" on="1"/>
        <pt x="176" y="490" on="0"/>
        <pt x="191" y="437" on="0"/>
        <pt x="191" y="407" on="1"/>
        <pt x="191" y="0" on="1"/>
        <pt x="82" y="0" on="1"/>
        <pt x="82" y="391" on="1"/>
        <pt x="82" y="419" on="0"/>
        <pt x="75" y="482" on="0"/>
      </contour>
    </TTGlyph>
    <TTGlyph name="macron" xMin="114" yMin="610" xMax="408" yMax="680">
      <contour>
        <pt x="408" y="610" on="1"/>
        <pt x="114" y="610" on="1"/>
        <pt x="114" y="680" on="1"/>
        <pt x="408" y="680" on="1"/>
      </contour>
    </TTGlyph>
    <TTGlyph name="mu" xMin="69" yMin="-211" xMax="560" yMax="517">
      <contour>
        <pt x="405" y="81" on="1"/>
        <pt x="394" y="58" on="1"/>
        <pt x="374" y="31" on="0"/>
        <pt x="313" y="-10" on="0"/>
        <pt x="265" y="-10" on="1"/>
        <pt x="240" y="-10" on="0"/>
        <pt x="194" y="7" on="0"/>
        <pt x="178" y="22" on="1"/>
        <pt x="164" y="42" on="1"/>
        <pt x="164" y="34" on="0"/>
        <pt x="165" y="21" on="0"/>
        <pt x="165" y="13" on="1"/>
        <pt x="165" y="-211" on="1"/>
        <pt x="69" y="-211" on="1"/>
        <pt x="69" y="517" on="1"/>
        <pt x="171" y="517" on="1"/>
        <pt x="171" y="210" on="1"/>
        <pt x="171" y="150" on="0"/>
        <pt x="223" y="72" on="0"/>
        <pt x="274" y="72" on="1"/>
        <pt x="297" y="72" on="0"/>
        <pt x="340" y="92" on="0"/>
        <pt x="373" y="126" on="0"/>
        <pt x="392" y="173" on="0"/>
        <pt x="392" y="199" on="1"/>
        <pt x="392" y="517" on="1"/>
        <pt x="495" y="517" on="1"/>
        <pt x="495" y="148" on="1"/>
        <pt x="495" y="106" on="0"/>
        <pt x="519" y="72" on="0"/>
        <pt x="550" y="74" on="1"/>
        <pt x="560" y="4" on="1"/>
        <pt x="543" y="-3" on="0"/>
        <pt x="512" y="-8" on="0"/>
        <pt x="501" y="-8" on="1"/>
        <pt x="472" y="-8" on="0"/>
        <pt x="421" y="22" on="0"/>
        <pt x="410" y="59" on="1"/>
      </contour>
    </TTGlyph>
    <TTGlyph name="multiply" xMin="50" yMin="75" xMax="511" yMax="535">
      <contour>
        <pt x="103" y="75" on="1"/>
        <pt x="50" y="128" on="1"/>
        <pt x="226" y="306" on="1"/>
        <pt x="50" y="482" on="1"/>
        <pt x="104" y="535" on="1"/>
        <pt x="281" y="360" on="1"/>
        <pt x="456" y="535" on="1"/>
        <pt x="509" y="482" on="1"/>
        <pt x="335" y="306" on="1"/>
        <pt x="511" y="128" on="1"/>
        <pt x="458" y="75" on="1"/>
        <pt x="281" y="251" on="1"/>
      </contour>
    </TTGlyph>
    <TTGlyph name="n" xMin="60" yMin="0" xMax="511" yMax="528">
      <contour>
        <pt x="402" y="0" on="1"/>
        <pt x="402" y="373" on="1"/>
        <pt x="402" y="405" on="0"/>
        <pt x="374" y="446" on="0"/>
        <pt x="345" y="446" on="1"/>
        <pt x="335" y="446" on="0"/>
        <pt x="315" y="442" on="0"/>
        <pt x="295" y="438" on="0"/>
        <pt x="274" y="436" on="0"/>
        <pt x="264" y="438" on="1"/>
        <pt x="248" y="440" on="0"/>
        <pt x="222" y="462" on="0"/>
        <pt x="211" y="477" on="1"/>
        <pt x="263" y="507" on="0"/>
        <pt x="336" y="528" on="0"/>
        <pt x="365" y="528" on="1"/>
        <pt x="393" y="528" on="0"/>
        <pt x="446" y="511" on="0"/>
        <pt x="487" y="474" on="0"/>
        <pt x="511" y="412" on="0"/>
        <pt x="511" y="367" on="1"/>
        <pt x="511" y="0" on="1"/>
      </contour>
      <contour>
        <pt x="60" y="517" on="1"/>
        <pt x="145" y="517" on="1"/>
        <pt x="169" y="490" on="0"/>
        <pt x="184" y="437" on="0"/>
        <pt x="184" y="407" on="1"/>
        <pt x="184" y="0" on="1"/>
        <pt x="76" y="0" on="1"/>
        <pt x="76" y="391" on="1"/>
        <pt x="76" y="449" on="0"/>
      </contour>
    </TTGlyph>
    <TTGlyph name="nine" xMin="69" yMin="-10" xMax="574" yMax="712">
      <contour>
        <pt x="230" y="71" on="1"/>
        <pt x="283" y="71" on="0"/>
        <pt x="369" y="116" on="0"/>
        <pt x="429" y="196" on="0"/>
        <pt x="461" y="305" on="0"/>
        <pt x="461" y="370" on="1"/>
        <pt x="461" y="411" on="0"/>
        <pt x="448" y="503" on="0"/>
        <pt x="414" y="580" on="0"/>
        <pt x="354" y="631" on="0"/>
        <pt x="307" y="631" on="1"/>
        <pt x="279" y="631" on="0"/>
        <pt x="234" y="608" on="0"/>
        <pt x="201" y="567" on="0"/>
        <pt x="183" y="512" on="0"/>
        <pt x="183" y="480" on="1"/>
        <pt x="183" y="414" on="0"/>
        <pt x="240" y="347" on="0"/>
        <pt x="282" y="347" on="1"/>
        <pt x="288" y="347" on="0"/>
        <pt x="305" y="349" on="0"/>
        <pt x="316" y="351" on="1"/>
        <pt x="334" y="355" on="0"/>
        <pt x="367" y="350" on="0"/>
        <pt x="394" y="337" on="0"/>
        <pt x="414" y="319" on="0"/>
        <pt x="421" y="310" on="1"/>
        <pt x="397" y="297" on="0"/>
        <pt x="357" y="281" on="0"/>
        <pt x="324" y="271" on="0"/>
        <pt x="293" y="267" on="0"/>
        <pt x="278" y="267" on="1"/>
        <pt x="234" y="267" on="0"/>
        <pt x="157" y="294" on="0"/>
        <pt x="101" y="348" on="0"/>
        <pt x="69" y="428" on="0"/>
        <pt x="69" y="480" on="1"/>
        <pt x="69" y="523" on="0"/>
        <pt x="102" y="607" on="0"/>
        <pt x="164" y="672" on="0"/>
        <pt x="250" y="712" on="0"/>
        <pt x="304" y="712" on="1"/>
        <pt x="379" y="712" on="0"/>
        <pt x="483" y="653" on="0"/>
        <pt x="546" y="557" on="0"/>
        <pt x="574" y="435" on="0"/>
        <pt x="574" y="372" on="1"/>
        <pt x="574" y="301" on="0"/>
        <pt x="528" y="164" on="0"/>
        <pt x="439" y="56" on="0"/>
        <pt x="311" y="-10" on="0"/>
        <pt x="230" y="-10" on="1"/>
        <pt x="205" y="-10" on="0"/>
        <pt x="147" y="2" on="0"/>
        <pt x="117" y="15" on="1"/>
        <pt x="143" y="88" on="1"/>
        <pt x="167" y="79" on="0"/>
        <pt x="211" y="71" on="0"/>
      </contour>
    </TTGlyph>
    <TTGlyph name="ntilde" xMin="63" yMin="0" xMax="514" yMax="735">
      <contour>
        <pt x="207" y="618" on="1"/>
        <pt x="146" y="624" on="1"/>
        <pt x="148" y="680" on="0"/>
        <pt x="202" y="735" on="0"/>
        <pt x="238" y="735" on="1"/>
        <pt x="260" y="735" on="0"/>
        <pt x="291" y="718" on="0"/>
        <pt x="317" y="697" on="0"/>
        <pt x="341" y="680" on="0"/>
        <pt x="356" y="680" on="1"/>
        <pt x="370" y="680" on="0"/>
        <pt x="385" y="708" on="0"/>
        <pt x="387" y="734" on="1"/>
        <pt x="446" y="728" on="1"/>
        <pt x="444" y="696" on="0"/>
        <pt x="428" y="654" on="0"/>
        <pt x="403" y="628" on="0"/>
        <pt x="373" y="617" on="0"/>
        <pt x="359" y="617" on="1"/>
        <pt x="335" y="617" on="0"/>
        <pt x="302" y="634" on="0"/>
        <pt x="277" y="655" on="0"/>
        <pt x="255" y="672" on="0"/>
        <pt x="242" y="672" on="1"/>
        <pt x="230" y="672" on="0"/>
        <pt x="209" y="648" on="0"/>
      </contour>
      <contour>
        <pt x="405" y="0" on="1"/>
        <pt x="405" y="373" on="1"/>
        <pt x="405" y="405" on="0"/>
        <pt x="377" y="446" on="0"/>
        <pt x="348" y="446" on="1"/>
        <pt x="338" y="446" on="0"/>
        <pt x="318" y="442" on="0"/>
        <pt x="298" y="438" on="0"/>
        <pt x="277" y="436" on="0"/>
        <pt x="267" y="438" on="1"/>
        <pt x="250" y="440" on="0"/>
        <pt x="225" y="462" on="0"/>
        <pt x="214" y="477" on="1"/>
        <pt x="266" y="507" on="0"/>
        <pt x="339" y="528" on="0"/>
        <pt x="368" y="528" on="1"/>
        <pt x="396" y="528" on="0"/>
        <pt x="449" y="511" on="0"/>
        <pt x="490" y="474" on="0"/>
        <pt x="514" y="412" on="0"/>
        <pt x="514" y="367" on="1"/>
        <pt x="514" y="0" on="1"/>
      </contour>
      <contour>
        <pt x="63" y="517" on="1"/>
        <pt x="148" y="517" on="1"/>
        <pt x="172" y="490" on="0"/>
        <pt x="187" y="437" on="0"/>
        <pt x="187" y="407" on="1"/>
        <pt x="187" y="0" on="1"/>
        <pt x="79" y="0" on="1"/>
        <pt x="79" y="391" on="1"/>
        <pt x="79" y="449" on="0"/>
      </contour>
    </TTGlyph>
    <TTGlyph name="numbersign" xMin="77" yMin="0" xMax="764" yMax="702">
      <contour>
        <pt x="465" y="0" on="1"/>
        <pt x="470" y="32" on="0"/>
        <pt x="483" y="97" on="0"/>
        <pt x="489" y="129" on="1"/>
        <pt x="497" y="162" on="1"/>
        <pt x="309" y="162" on="1"/>
        <pt x="316" y="181" on="0"/>
        <pt x="334" y="208" on="0"/>
        <pt x="361" y="225" on="0"/>
        <pt x="402" y="233" on="0"/>
        <pt x="431" y="233" on="1"/>
        <pt x="508" y="233" on="1"/>
        <pt x="546" y="432" on="1"/>
        <pt x="555" y="471" on="1"/>
        <pt x="334" y="471" on="1"/>
        <pt x="244" y="0" on="1"/>
        <pt x="158" y="0" on="1"/>
        <pt x="164" y="32" on="0"/>
        <pt x="176" y="98" on="0"/>
        <pt x="183" y="130" on="1"/>
        <pt x="190" y="162" on="1"/>
        <pt x="77" y="162" on="1"/>
        <pt x="77" y="233" on="1"/>
        <pt x="201" y="233" on="1"/>
        <pt x="240" y="433" on="1"/>
        <pt x="248" y="471" on="1"/>
        <pt x="136" y="471" on="1"/>
        <pt x="136" y="542" on="1"/>
        <pt x="261" y="542" on="1"/>
        <pt x="291" y="702" on="1"/>
        <pt x="377" y="702" on="1"/>
        <pt x="347" y="542" on="1"/>
        <pt x="567" y="542" on="1"/>
        <pt x="598" y="702" on="1"/>
        <pt x="684" y="702" on="1"/>
        <pt x="654" y="542" on="1"/>
        <pt x="764" y="542" on="1"/>
        <pt x="764" y="471" on="1"/>
        <pt x="640" y="471" on="1"/>
        <pt x="595" y="233" on="1"/>
        <pt x="705" y="233" on="1"/>
        <pt x="705" y="162" on="1"/>
        <pt x="582" y="162" on="1"/>
        <pt x="551" y="0" on="1"/>
      </contour>
    </TTGlyph>
    <TTGlyph name="o" xMin="38" yMin="-11" xMax="536" yMax="528">
      <contour>
        <pt x="151" y="259" on="1"/>
        <pt x="151" y="217" on="0"/>
        <pt x="169" y="148" on="0"/>
        <pt x="204" y="98" on="0"/>
        <pt x="255" y="70" on="0"/>
        <pt x="287" y="70" on="1"/>
        <pt x="321" y="70" on="0"/>
        <pt x="372" y="100" on="0"/>
        <pt x="406" y="152" on="0"/>
        <pt x="422" y="220" on="0"/>
        <pt x="422" y="259" on="1"/>
        <pt x="422" y="351" on="0"/>
        <pt x="345" y="447" on="0"/>
        <pt x="287" y="447" on="1"/>
        <pt x="258" y="447" on="0"/>
        <pt x="209" y="423" on="0"/>
        <pt x="172" y="375" on="0"/>
        <pt x="151" y="305" on="0"/>
      </contour>
      <contour>
        <pt x="38" y="259" on="1"/>
        <pt x="38" y="328" on="0"/>
        <pt x="83" y="429" on="0"/>
        <pt x="154" y="496" on="0"/>
        <pt x="243" y="528" on="0"/>
        <pt x="287" y="528" on="1"/>
        <pt x="345" y="528" on="0"/>
        <pt x="437" y="487" on="0"/>
        <pt x="502" y="415" on="0"/>
        <pt x="536" y="316" on="0"/>
        <pt x="536" y="259" on="1"/>
        <pt x="536" y="194" on="0"/>
        <pt x="495" y="94" on="0"/>
        <pt x="426" y="25" on="0"/>
        <pt x="336" y="-11" on="0"/>
        <pt x="287" y="-11" on="1"/>
        <pt x="236" y="-11" on="0"/>
        <pt x="145" y="24" on="0"/>
        <pt x="78" y="93" on="0"/>
        <pt x="38" y="194" on="0"/>
      </contour>
    </TTGlyph>
    <TTGlyph name="oacute" xMin="32" yMin="-11" xMax="530" yMax="740">
      <contour>
        <pt x="427" y="740" on="1"/>
        <pt x="342" y="635" on="1"/>
        <pt x="319" y="607" on="0"/>
        <pt x="255" y="595" on="0"/>
        <pt x="230" y="602" on="1"/>
        <pt x="318" y="740" on="1"/>
      </contour>
      <contour>
        <pt x="416" y="259" on="1"/>
        <pt x="416" y="351" on="0"/>
        <pt x="339" y="447" on="0"/>
        <pt x="281" y="447" on="1"/>
        <pt x="223" y="447" on="0"/>
        <pt x="145" y="351" on="0"/>
        <pt x="145" y="259" on="1"/>
        <pt x="145" y="166" on="0"/>
        <pt x="223" y="70" on="0"/>
        <pt x="281" y="70" on="1"/>
        <pt x="339" y="70" on="0"/>
        <pt x="416" y="166" on="0"/>
      </contour>
      <contour>
        <pt x="530" y="259" on="1"/>
        <pt x="530" y="196" on="0"/>
        <pt x="490" y="96" on="0"/>
        <pt x="422" y="26" on="0"/>
        <pt x="332" y="-11" on="0"/>
        <pt x="281" y="-11" on="1"/>
        <pt x="229" y="-11" on="0"/>
        <pt x="138" y="25" on="0"/>
        <pt x="71" y="94" on="0"/>
        <pt x="32" y="194" on="0"/>
        <pt x="32" y="259" on="1"/>
        <pt x="32" y="322" on="0"/>
        <pt x="72" y="421" on="0"/>
        <pt x="140" y="491" on="0"/>
        <pt x="230" y="528" on="0"/>
        <pt x="281" y="528" on="1"/>
        <pt x="333" y="528" on="0"/>
        <pt x="423" y="492" on="0"/>
        <pt x="491" y="423" on="0"/>
        <pt x="530" y="323" on="0"/>
      </contour>
    </TTGlyph>
    <TTGlyph name="ocircumflex" xMin="32" yMin="-11" xMax="530" yMax="743">
      <contour>
        <pt x="246" y="743" on="1"/>
        <pt x="316" y="743" on="1"/>
        <pt x="426" y="599" on="1"/>
        <pt x="366" y="589" on="1"/>
        <pt x="281" y="669" on="1"/>
        <pt x="196" y="588" on="1"/>
        <pt x="138" y="599" on="1"/>
      </contour>
      <contour>
        <pt x="416" y="259" on="1"/>
        <pt x="416" y="351" on="0"/>
        <pt x="339" y="447" on="0"/>
        <pt x="281" y="447" on="1"/>
        <pt x="223" y="447" on="0"/>
        <pt x="145" y="351" on="0"/>
        <pt x="145" y="259" on="1"/>
        <pt x="145" y="166" on="0"/>
        <pt x="223" y="70" on="0"/>
        <pt x="281" y="70" on="1"/>
        <pt x="339" y="70" on="0"/>
        <pt x="416" y="166" on="0"/>
      </contour>
      <contour>
        <pt x="530" y="259" on="1"/>
        <pt x="530" y="196" on="0"/>
        <pt x="490" y="96" on="0"/>
        <pt x="422" y="26" on="0"/>
        <pt x="332" y="-11" on="0"/>
        <pt x="281" y="-11" on="1"/>
        <pt x="229" y="-11" on="0"/>
        <pt x="138" y="25" on="0"/>
        <pt x="71" y="94" on="0"/>
        <pt x="32" y="194" on="0"/>
        <pt x="32" y="259" on="1"/>
        <pt x="32" y="322" on="0"/>
        <pt x="72" y="421" on="0"/>
        <pt x="140" y="491" on="0"/>
        <pt x="230" y="528" on="0"/>
        <pt x="281" y="528" on="1"/>
        <pt x="333" y="528" on="0"/>
        <pt x="423" y="492" on="0"/>
        <pt x="491" y="423" on="0"/>
        <pt x="530" y="323" on="0"/>
      </contour>
    </TTGlyph>
    <TTGlyph name="odieresis" xMin="32" yMin="-11" xMax="530" yMax="725">
      <contour>
        <pt x="322" y="670" on="1"/>
        <pt x="322" y="693" on="0"/>
        <pt x="355" y="725" on="0"/>
        <pt x="378" y="725" on="1"/>
        <pt x="401" y="725" on="0"/>
        <pt x="433" y="693" on="0"/>
        <pt x="433" y="670" on="1"/>
        <pt x="433" y="647" on="0"/>
        <pt x="401" y="615" on="0"/>
        <pt x="378" y="615" on="1"/>
        <pt x="355" y="615" on="0"/>
        <pt x="322" y="647" on="0"/>
      </contour>
      <contour>
        <pt x="128" y="670" on="1"/>
        <pt x="128" y="693" on="0"/>
        <pt x="160" y="725" on="0"/>
        <pt x="183" y="725" on="1"/>
        <pt x="206" y="725" on="0"/>
        <pt x="239" y="693" on="0"/>
        <pt x="239" y="670" on="1"/>
        <pt x="239" y="647" on="0"/>
        <pt x="206" y="615" on="0"/>
        <pt x="183" y="615" on="1"/>
        <pt x="160" y="615" on="0"/>
        <pt x="128" y="647" on="0"/>
      </contour>
      <contour>
        <pt x="416" y="259" on="1"/>
        <pt x="416" y="351" on="0"/>
        <pt x="338" y="447" on="0"/>
        <pt x="281" y="447" on="1"/>
        <pt x="223" y="447" on="0"/>
        <pt x="145" y="351" on="0"/>
        <pt x="145" y="259" on="1"/>
        <pt x="145" y="166" on="0"/>
        <pt x="222" y="70" on="0"/>
        <pt x="281" y="70" on="1"/>
        <pt x="338" y="70" on="0"/>
        <pt x="416" y="166" on="0"/>
      </contour>
      <contour>
        <pt x="530" y="259" on="1"/>
        <pt x="530" y="196" on="0"/>
        <pt x="490" y="96" on="0"/>
        <pt x="422" y="26" on="0"/>
        <pt x="332" y="-11" on="0"/>
        <pt x="281" y="-11" on="1"/>
        <pt x="229" y="-11" on="0"/>
        <pt x="138" y="25" on="0"/>
        <pt x="71" y="94" on="0"/>
        <pt x="32" y="194" on="0"/>
        <pt x="32" y="259" on="1"/>
        <pt x="32" y="322" on="0"/>
        <pt x="72" y="421" on="0"/>
        <pt x="140" y="491" on="0"/>
        <pt x="230" y="528" on="0"/>
        <pt x="281" y="528" on="1"/>
        <pt x="333" y="528" on="0"/>
        <pt x="423" y="492" on="0"/>
        <pt x="491" y="423" on="0"/>
        <pt x="530" y="323" on="0"/>
      </contour>
    </TTGlyph>
</ttFont>
